<?xml version="1.0" standalone="no"?>
<!DOCTYPE svg PUBLIC "-//W3C//DTD SVG 20010904//EN"
 "http://www.w3.org/TR/2001/REC-SVG-20010904/DTD/svg10.dtd">
<svg version="1.0" xmlns="http://www.w3.org/2000/svg"
 width="400.000000pt" height="400.000000pt" viewBox="0 0 400.000000 400.000000"
 preserveAspectRatio="xMidYMid meet">
<metadata>
Created by potrace 1.14, written by Peter Selinger 2001-2017
</metadata>
<g transform="translate(0.000000,400.000000) scale(0.100000,-0.100000)"
fill="#000000" stroke="none">
<path d="M2763 3993 c10 -3 17 -12 16 -21 -2 -9 1 -33 6 -52 5 -19 8 -39 7
-43 -2 -5 2 -6 8 -2 6 4 10 -5 10 -21 0 -21 4 -25 20 -21 17 4 20 0 20 -23 0
-29 37 -80 59 -80 6 0 11 -7 11 -15 0 -9 9 -15 25 -15 16 0 25 -6 25 -15 0 -8
9 -15 19 -15 13 0 21 -8 23 -22 2 -13 13 -27 26 -33 13 -6 22 -18 22 -33 0
-16 5 -22 18 -20 14 2 17 -4 15 -32 -3 -47 4 -65 20 -52 14 12 35 -2 55 -36
16 -29 3 -48 -38 -57 -16 -3 -34 -13 -41 -21 -17 -20 -31 -17 -24 5 4 15 -1
21 -26 30 -17 6 -35 9 -39 6 -5 -3 -6 3 -3 14 5 21 -29 58 -88 96 -29 19 -38
32 -43 63 -5 33 -9 39 -24 35 -14 -3 -22 4 -31 26 -13 31 -61 71 -61 50 0 -6
-6 -9 -12 -6 -7 2 -13 17 -13 33 0 23 -4 28 -20 26 -15 -2 -17 -1 -6 6 16 11
7 29 -23 52 -39 28 -55 30 -62 8 -7 -22 16 -48 43 -48 16 0 17 -12 1 -28 -9
-9 -8 -12 6 -12 9 0 14 -5 11 -11 -4 -6 -4 -26 0 -45 5 -31 8 -33 21 -19 9 8
20 13 25 10 5 -4 9 -1 9 4 0 6 5 11 10 11 6 0 4 -13 -5 -31 -13 -24 -22 -30
-43 -28 -15 1 -34 -1 -42 -4 -8 -3 -26 -7 -40 -9 -30 -4 -34 -33 -5 -34 11 0
29 5 40 11 13 8 28 9 43 4 21 -8 22 -10 8 -30 -8 -12 -12 -28 -9 -37 5 -12 2
-14 -11 -9 -12 5 -16 3 -13 -5 2 -7 14 -12 25 -10 13 2 22 -2 22 -10 0 -7 9
-2 19 11 10 13 23 21 29 17 17 -10 -6 -63 -30 -69 -11 -3 -17 -10 -13 -16 9
-15 42 -14 48 2 3 6 4 -4 3 -23 -3 -30 -7 -35 -31 -38 -15 -2 -34 -10 -42 -18
-21 -21 -36 -18 -24 5 8 15 7 20 -5 25 -25 10 -54 7 -54 -5 0 -36 110 -113
126 -88 8 14 21 11 21 -6 0 -8 -4 -12 -9 -9 -4 3 -8 0 -8 -5 0 -6 7 -11 15
-11 8 0 15 6 15 13 0 16 30 19 30 3 0 -6 5 -3 11 7 5 9 14 17 19 17 17 0 50
-34 50 -52 0 -18 -38 -50 -51 -43 -4 3 -9 -2 -13 -10 -3 -8 -16 -15 -28 -15
-13 0 -18 -4 -12 -8 10 -7 26 -42 24 -52 0 -3 -11 -4 -24 -2 -26 3 -43 -13
-48 -48 -2 -21 4 -28 39 -45 42 -20 42 -21 23 -38 -11 -9 -20 -24 -20 -32 0
-21 -22 -19 -52 4 -24 19 -24 19 -36 1 -7 -11 -8 -21 -2 -25 5 -3 11 -1 14 4
10 16 46 -1 52 -25 4 -14 11 -21 20 -17 8 3 14 2 13 -3 -4 -16 16 -49 30 -52
7 -1 20 3 29 10 12 10 14 10 8 1 -4 -8 -1 -13 9 -13 12 0 15 -6 10 -20 -4 -11
-2 -20 4 -20 6 0 11 -9 11 -19 0 -11 5 -23 10 -26 6 -3 10 0 10 7 0 10 2 11 8
0 5 -7 15 -10 24 -7 15 6 46 -21 35 -31 -3 -3 -27 -9 -54 -14 -39 -6 -44 -9
-25 -15 12 -4 22 -14 22 -21 0 -20 51 -39 61 -23 9 15 32 1 25 -17 -3 -7 -1
-16 5 -19 5 -4 14 7 20 24 10 30 19 35 47 32 6 -1 12 4 12 11 0 9 3 9 12 0 9
-9 7 -19 -10 -42 -19 -26 -20 -31 -8 -36 9 -3 23 1 31 10 9 9 20 16 25 16 11
0 0 32 -14 42 -6 4 -8 9 -5 13 3 3 16 -3 28 -14 33 -29 20 -65 -29 -80 -42
-12 -55 -25 -45 -41 4 -7 14 -6 28 2 12 7 25 11 30 10 4 -1 7 3 7 10 0 6 3 8
7 5 3 -4 -2 -16 -12 -27 -10 -11 -13 -20 -7 -20 7 0 12 -11 12 -24 0 -15 7
-26 20 -29 16 -4 21 1 26 29 3 18 12 38 20 45 8 6 14 18 14 25 0 17 17 19 22
3 3 -8 10 -8 25 2 19 11 25 11 41 -4 10 -9 24 -17 31 -17 10 0 12 -12 7 -47
-6 -42 -5 -46 7 -31 9 11 21 15 35 11 15 -4 22 -1 22 9 0 17 29 78 37 78 3 0
2 -12 -1 -27 -5 -16 -3 -29 5 -34 9 -5 6 -15 -10 -37 -25 -35 -28 -72 -6 -72
8 0 15 6 15 13 0 7 15 13 35 14 39 3 45 -9 15 -34 -11 -10 -20 -23 -20 -29 0
-7 -13 -17 -29 -22 -22 -8 -32 -7 -43 4 -8 8 -32 15 -55 17 -27 1 -39 6 -36
15 3 7 -3 12 -15 12 -11 0 -26 2 -34 5 -17 6 -45 -11 -35 -22 5 -4 12 -1 17 7
8 13 10 13 10 -1 0 -9 -7 -22 -15 -29 -17 -14 -85 -17 -106 -5 -21 14 -59 12
-59 -2 0 -7 5 -13 11 -13 5 0 8 -4 5 -9 -4 -5 3 -7 14 -4 17 5 18 1 13 -30 -5
-36 12 -61 27 -37 6 9 9 4 12 -15 2 -22 10 -31 33 -37 17 -5 42 -6 58 -4 19 4
27 1 27 -9 0 -10 10 -15 28 -15 21 0 24 -2 12 -10 -13 -8 -13 -10 2 -10 9 0
18 5 20 12 3 7 12 9 22 5 15 -6 14 -11 -13 -39 -17 -18 -31 -39 -31 -45 0 -7
-4 -13 -9 -13 -5 0 -8 8 -7 18 0 10 -5 16 -14 13 -48 -12 -100 -20 -132 -21
-33 0 -37 3 -44 33 -6 31 -7 31 -15 8 -7 -17 -13 -21 -27 -15 -9 5 -46 9 -82
9 -61 0 -66 2 -78 28 -12 25 -17 27 -50 21 -20 -3 -41 -10 -45 -14 -13 -12 14
-59 30 -53 11 4 13 -1 11 -22 -2 -17 3 -30 12 -35 8 -4 24 -11 35 -17 12 -6
21 -22 23 -40 3 -28 1 -29 -32 -25 -28 3 -34 1 -33 -14 1 -10 -5 -19 -13 -20
-35 -3 -38 -5 -33 -23 3 -11 18 -24 34 -30 16 -5 29 -17 29 -26 0 -8 11 -20
25 -25 14 -5 25 -17 25 -25 0 -12 6 -15 20 -10 16 5 20 2 20 -18 0 -28 -29
-41 -64 -27 -13 4 -29 4 -39 -2 -9 -5 -21 -7 -26 -4 -5 3 -12 -1 -15 -10 -3
-9 -12 -14 -20 -11 -16 7 -26 -21 -26 -75 0 -30 -4 -38 -19 -38 -15 0 -20 -10
-25 -49 -3 -27 -3 -57 1 -66 5 -14 3 -16 -8 -10 -12 7 -12 5 -1 -6 8 -9 15
-10 20 -4 4 6 16 11 27 12 22 2 54 8 103 18 21 5 32 4 32 -4 0 -14 37 -15 45
-1 9 15 36 -15 30 -32 -3 -8 3 -23 15 -33 27 -24 25 -35 -5 -35 -14 0 -25 -3
-25 -7 1 -15 25 -40 45 -46 11 -4 26 -16 33 -28 8 -12 9 -18 4 -15 -6 3 -23
-1 -38 -9 -16 -8 -35 -15 -41 -15 -7 0 -13 -7 -13 -15 0 -8 -7 -15 -16 -15 -8
0 -12 5 -9 10 3 6 -1 10 -9 10 -9 0 -16 -7 -16 -15 0 -8 4 -15 9 -15 5 0 12
-11 15 -25 4 -14 11 -25 17 -25 6 0 25 -12 42 -26 29 -24 34 -25 121 -20 50 3
205 6 344 8 199 2 255 0 261 -11 6 -10 10 -9 14 3 5 14 27 16 142 16 l135 0 0
149 0 149 -50 -3 c-55 -4 -96 -28 -105 -62 -4 -16 -14 -24 -33 -25 -85 -5
-118 -4 -129 4 -15 12 -95 0 -105 -16 -5 -8 -13 -7 -29 2 -12 8 -24 10 -28 5
-3 -4 -33 -9 -66 -10 -33 -1 -61 -7 -63 -13 -2 -5 -8 -7 -14 -4 -7 4 -6 9 2
14 19 12 -9 47 -60 73 -48 25 -69 60 -30 50 12 -3 25 -1 29 5 4 6 22 13 41 14
19 2 41 9 48 16 11 10 17 9 33 -2 32 -22 69 0 62 36 -4 21 -2 28 11 28 12 0
16 -9 16 -34 0 -31 2 -33 28 -28 19 4 22 7 10 10 -23 5 -23 13 2 40 26 28 27
28 25 -8 -2 -35 5 -38 23 -10 8 13 8 20 2 20 -7 0 -8 6 -1 19 9 16 8 18 -9 14
-15 -4 -19 -1 -15 9 5 11 -1 14 -27 11 -26 -4 -30 -2 -18 6 13 10 12 13 -5 26
-11 9 -25 13 -32 11 -21 -8 -15 12 7 24 11 6 20 19 20 29 0 18 30 52 30 35 0
-5 4 -3 9 4 4 7 38 17 74 22 37 6 70 11 74 12 16 5 73 -27 73 -40 0 -16 24
-42 39 -42 6 0 11 -4 11 -10 0 -5 7 -10 15 -10 8 0 15 -4 15 -10 0 -5 9 -10
20 -10 28 0 25 -12 -15 -60 -19 -23 -35 -47 -34 -53 0 -8 2 -8 6 0 3 10 10 10
24 2 11 -5 18 -13 15 -17 -2 -4 1 -15 8 -25 12 -16 16 -16 54 6 l42 22 0 196
c0 166 -2 198 -15 203 -8 3 -22 3 -30 0 -8 -4 -23 -3 -32 1 -17 7 -16 8 2 16
26 11 -41 4 -70 -7 -19 -8 -19 -7 -4 16 8 14 19 31 23 38 6 10 11 10 21 2 9
-8 15 -8 20 0 3 6 11 8 16 5 5 -4 12 1 15 10 4 8 11 15 18 14 34 -4 36 1 36
109 0 60 -3 111 -6 115 -9 9 -33 -3 -30 -16 1 -7 1 -9 -1 -4 -7 11 -33 8 -33
-3 0 -6 -11 -3 -23 7 -23 17 -23 18 -6 36 13 15 28 18 59 15 32 -3 40 0 38 11
-2 9 -17 18 -33 21 -34 7 -77 28 -86 43 -9 13 -29 0 -29 -19 0 -9 10 -14 29
-14 37 0 61 -9 61 -22 0 -7 -19 -8 -51 -4 -33 5 -56 3 -65 -5 -8 -6 -14 -7
-14 -2 0 6 -18 10 -40 10 -32 0 -46 7 -70 32 -31 32 -53 41 -44 17 8 -21 -12
-28 -30 -10 -13 13 -16 13 -16 1 0 -20 -32 -46 -37 -30 -2 7 -11 9 -19 6 -9
-3 -14 2 -14 16 0 14 11 25 35 35 19 8 35 19 35 25 0 6 15 7 37 4 30 -5 35 -4
30 10 -3 9 0 18 9 21 8 3 14 0 14 -6 0 -6 8 -4 18 5 14 13 21 14 30 5 8 -8 15
0 28 31 11 28 22 41 35 41 23 0 25 -15 4 -24 -8 -3 -15 -9 -14 -13 1 -4 0 -10
-1 -13 -7 -18 -7 -41 0 -45 5 -3 11 9 15 26 9 38 25 71 49 94 15 15 19 16 27
4 12 -19 11 -32 -1 -24 -5 3 -17 2 -27 -3 -14 -8 -13 -11 8 -22 13 -7 26 -16
29 -19 4 -5 26 -17 93 -49 4 -2 7 16 6 40 0 42 0 42 -16 21 -21 -31 -49 -29
-57 2 -7 28 17 64 29 44 5 -7 14 -3 26 10 18 19 19 39 19 289 0 148 -3 272 -6
275 -4 3 -15 2 -24 -3 -14 -7 -19 -5 -23 10 -4 16 -9 18 -29 11 -12 -5 -22
-14 -21 -20 4 -16 -31 -31 -47 -21 -8 5 -11 12 -7 17 5 4 12 1 18 -7 7 -11 9
-4 7 23 -1 24 4 43 15 55 17 16 18 16 11 0 -3 -11 -1 -18 5 -18 6 0 11 5 11
10 0 6 18 0 39 -12 42 -24 63 -20 40 8 -11 13 -11 18 -1 21 9 4 12 42 12 149
0 130 -2 144 -17 144 -17 1 -17 1 -1 14 15 11 17 40 18 269 l0 257 -194 0
c-169 0 -195 -2 -190 -15 4 -8 11 -12 16 -9 12 8 90 13 101 7 4 -2 0 -14 -8
-26 -25 -36 -19 -48 15 -31 16 9 34 13 40 9 5 -3 10 -1 10 4 0 6 5 11 10 11 6
0 10 -7 10 -15 0 -8 -9 -15 -19 -15 -28 0 -37 -20 -12 -27 11 -3 23 -13 26
-24 3 -10 15 -21 25 -24 16 -5 17 -10 10 -31 -6 -14 -6 -24 -1 -24 5 0 11 4
13 9 2 5 16 11 32 13 34 4 49 -21 17 -29 -25 -6 -26 -13 -6 -39 18 -24 19 -44
1 -44 -7 0 -44 13 -82 29 -122 51 -178 70 -219 77 -38 6 -51 11 -85 33 -13 9
-13 12 3 23 15 11 13 13 -20 13 -21 0 -42 -4 -46 -10 -5 -6 -6 -2 -3 9 5 15 2
17 -13 13 -21 -5 -51 28 -51 56 0 10 -8 13 -24 10 -15 -3 -32 4 -51 21 l-27
25 -267 -1 c-146 0 -258 -3 -248 -5z m420 -117 c-6 -27 -31 -42 -46 -27 -15
15 -1 39 25 44 13 2 24 5 24 6 1 0 -1 -10 -3 -23z m217 5 c13 -25 13 -44 0
-36 -6 4 -8 10 -5 15 3 4 -2 10 -10 14 -8 3 -15 10 -15 16 0 17 19 11 30 -9z
m-110 -18 c0 -3 -11 -16 -24 -28 -18 -16 -27 -20 -35 -12 -11 11 -15 40 -6 49
6 6 65 -2 65 -9z m260 -65 c0 -6 6 -8 14 -5 20 8 147 -33 153 -49 3 -8 16 -14
29 -14 19 0 66 -15 83 -27 7 -5 -28 -33 -41 -33 -8 0 -19 -5 -26 -12 -9 -9
-12 -7 -12 12 l0 23 -23 -21 c-13 -12 -29 -22 -35 -22 -7 0 -12 -7 -12 -15 0
-18 -30 -34 -50 -27 -37 12 -71 45 -68 66 2 16 -3 21 -22 23 -14 1 -18 0 -7
-3 20 -6 23 -24 5 -25 -10 0 -10 -2 0 -6 6 -2 12 -11 12 -18 0 -7 7 -16 16
-19 9 -4 14 -13 10 -21 -3 -8 -1 -15 3 -15 5 0 12 6 14 13 3 7 6 5 6 -5 1 -10
-5 -18 -11 -18 -8 0 -9 -3 -3 -8 6 -4 16 -18 23 -31 21 -36 -2 -42 -62 -18
-28 12 -53 24 -56 27 -3 3 -18 10 -35 15 -20 7 -30 18 -31 32 -1 11 -11 35
-23 52 -13 17 -18 30 -13 29 6 -2 18 6 26 17 14 19 15 19 16 2 0 -17 4 -16 31
7 17 14 37 26 45 26 13 0 60 39 49 41 -3 1 -26 2 -52 2 -48 2 -77 12 -69 25 7
11 116 11 116 0z m-70 -48 c0 -5 -4 -10 -10 -10 -5 0 -10 5 -10 10 0 6 5 10
10 10 6 0 10 -4 10 -10z m37 4 c-3 -3 -12 -4 -19 -1 -8 3 -5 6 6 6 11 1 17 -2
13 -5z m-150 -96 c-3 -8 -6 -5 -6 6 -1 11 2 17 5 13 3 -3 4 -12 1 -19z m503
-58 c0 -13 36 -13 62 1 19 10 20 9 14 -17 -6 -24 -5 -26 8 -15 9 8 16 9 16 3
0 -5 -6 -15 -14 -21 -10 -8 -13 -27 -11 -54 1 -23 1 -36 -2 -29 -3 8 -9 10
-16 4 -8 -6 -22 -6 -37 0 -13 5 -20 12 -15 16 13 9 17 52 5 52 -6 0 -10 9 -10
20 0 19 -2 20 -29 6 -26 -14 -30 -14 -41 0 -14 16 -15 16 20 31 32 15 50 16
50 3z m-78 -68 c3 8 13 8 32 2 28 -10 28 -11 11 -28 -15 -15 -16 -19 -4 -27
13 -8 6 -13 -14 -10 -4 1 -24 4 -45 7 -46 7 -46 7 -38 38 5 22 9 24 30 16 17
-6 26 -5 28 2z m-117 -21 c-3 -6 -11 -11 -16 -11 -5 0 -4 6 3 14 14 16 24 13
13 -3z m-855 -20 c0 -23 -16 -36 -25 -21 -9 14 1 40 15 40 5 0 10 -9 10 -19z
m758 -2 c-2 -6 -8 -10 -13 -10 -5 0 -11 4 -13 10 -2 6 4 11 13 11 9 0 15 -5
13 -11z m-718 -54 c0 -8 -4 -15 -10 -15 -5 0 -7 7 -4 15 4 8 8 15 10 15 2 0 4
-7 4 -15z m30 -29 c-14 -14 -24 0 -16 21 6 15 8 15 16 3 6 -9 5 -19 0 -24z
m365 25 c3 -5 1 -12 -5 -16 -5 -3 -10 1 -10 9 0 18 6 21 15 7z m34 -57 c-6 -7
-36 -23 -67 -34 -32 -12 -64 -27 -72 -34 -20 -18 -52 -16 -67 3 -12 17 -7 35
8 25 5 -3 15 -1 22 5 7 5 25 8 40 7 15 -2 27 2 27 8 0 13 34 36 70 46 31 9 55
-7 39 -26z m-309 6 c0 -5 -4 -10 -10 -10 -5 0 -10 5 -10 10 0 6 5 10 10 10 6
0 10 -4 10 -10z m-160 -32 c0 -7 -5 -20 -10 -28 -8 -12 -10 -9 -10 13 0 15 5
27 10 27 6 0 10 -6 10 -12z m70 3 c0 -6 -4 -13 -10 -16 -5 -3 -10 1 -10 9 0 9
5 16 10 16 6 0 10 -4 10 -9z m109 -9 c-6 -10 -20 -19 -31 -19 -17 -2 -17 0 4
17 29 24 41 25 27 2z m-72 -25 c-6 -20 -27 -19 -27 2 0 14 5 19 15 14 9 -3 14
-10 12 -16z m547 -13 c-14 -34 -14 -36 1 -30 26 10 14 -26 -13 -40 -13 -6 -30
-21 -38 -33 -21 -30 -41 -26 -41 8 0 22 4 27 19 23 10 -2 18 1 18 7 0 6 7 11
15 11 8 0 15 7 15 16 0 11 -8 14 -27 12 -15 -2 -28 2 -30 10 -3 6 2 12 10 12
8 0 24 9 37 20 38 33 52 26 34 -16z m153 -16 c17 -19 17 -20 0 -33 -9 -7 -17
-25 -17 -41 l0 -29 23 26 c27 32 57 45 57 24 0 -18 21 -19 39 -2 10 10 14 9
22 -5 5 -10 16 -15 24 -12 8 4 15 2 15 -4 0 -6 -18 -13 -40 -17 -22 -4 -42
-11 -46 -16 -10 -16 -24 -10 -36 16 -11 25 -11 25 -25 5 -15 -21 -42 -23 -55
-5 -5 6 -8 3 -8 -6 0 -8 -10 -26 -21 -38 -17 -19 -19 -25 -8 -31 7 -5 18 -5
24 -1 17 14 123 -11 128 -30 3 -12 13 -16 36 -13 18 2 30 0 27 -5 -3 -4 6 -14
19 -21 28 -15 32 -28 10 -36 -24 -10 -17 -29 10 -30 14 -1 25 2 25 7 0 5 4 9
8 9 5 0 8 -17 7 -37 -1 -21 2 -43 7 -50 31 -40 -141 -1 -276 63 l-56 26 0 47
-1 46 -15 -28 c-13 -24 -20 -28 -52 -25 -32 3 -37 7 -40 30 -3 22 2 29 22 34
14 3 24 11 23 17 -1 6 8 13 19 15 14 2 30 21 48 57 14 30 27 60 27 67 1 7 5 0
9 -17 l8 -30 2 30 c2 17 3 39 3 51 1 26 27 22 54 -8z m-344 -6 c4 11 7 10 18
-1 12 -12 12 -13 -1 -7 -12 6 -12 5 1 -6 18 -15 32 -85 18 -93 -5 -4 -9 -15
-9 -25 0 -25 -26 -16 -33 11 -4 13 -10 17 -23 12 -13 -5 -16 -3 -11 10 7 18
-26 42 -43 32 -6 -3 -10 3 -10 14 0 14 6 21 20 21 13 0 20 7 20 18 0 28 11 34
31 16 13 -12 18 -12 22 -2z m-298 -11 c3 -5 1 -12 -5 -16 -5 -3 -10 1 -10 9 0
18 6 21 15 7z m-35 -38 c0 -14 -3 -23 -7 -20 -3 4 -12 2 -20 -4 -17 -15 -18 4
-1 31 18 28 28 25 28 -7z m225 7 c3 -5 1 -10 -4 -10 -6 0 -11 5 -11 10 0 6 2
10 4 10 3 0 8 -4 11 -10z m-175 -16 c0 -21 -19 -54 -31 -54 -8 0 -3 42 8 63 7
13 23 7 23 -9z m140 1 c0 -8 -4 -15 -10 -15 -5 0 -10 7 -10 15 0 8 5 15 10 15
6 0 10 -7 10 -15z m-66 -32 c-7 -45 -14 -56 -14 -23 0 22 -1 23 -20 5 -11 -10
-23 -15 -27 -12 -3 4 -1 7 5 7 7 0 12 5 12 10 0 12 31 48 42 49 5 1 5 -16 2
-36z m286 17 c-6 -11 -15 -18 -21 -14 -6 4 -6 11 2 20 17 21 31 17 19 -6z
m-180 -19 c0 -12 -29 -35 -36 -28 -11 10 5 37 21 37 8 0 15 -4 15 -9z m-70
-26 c0 -8 -4 -15 -9 -15 -13 0 -22 16 -14 24 11 11 23 6 23 -9z m380 5 c0 -5
-5 -10 -11 -10 -5 0 -7 5 -4 10 3 6 8 10 11 10 2 0 4 -4 4 -10z m280 -4 c0 -8
-4 -18 -10 -21 -5 -3 -10 3 -10 14 0 12 5 21 10 21 6 0 10 -6 10 -14z m-400 0
c0 -3 -4 -8 -10 -11 -5 -3 -10 -1 -10 4 0 6 5 11 10 11 6 0 10 -2 10 -4z m340
-16 c0 -5 -4 -10 -10 -10 -5 0 -10 5 -10 10 0 6 5 10 10 10 6 0 10 -4 10 -10z
m-350 -31 c0 -24 -23 -21 -28 4 -2 10 3 17 12 17 10 0 16 -9 16 -21z m-56 -36
c7 -17 -4 -21 -41 -16 -32 5 -32 6 -15 28 13 18 20 20 34 11 10 -6 20 -16 22
-23z m102 21 c-3 -9 -6 -20 -6 -25 0 -12 -11 -11 -30 1 -13 9 -12 12 4 25 26
19 40 19 32 -1z m-46 -45 c0 -6 -4 -7 -10 -4 -5 3 -10 11 -10 16 0 6 5 7 10 4
6 -3 10 -11 10 -16z m560 -19 c0 -5 -4 -10 -9 -10 -6 0 -13 5 -16 10 -3 6 1
10 9 10 9 0 16 -4 16 -10z m-512 -12 c36 -11 35 -9 23 -60 -11 -46 2 -51 15
-6 12 39 44 51 44 17 0 -17 3 -20 11 -12 9 9 20 8 43 -2 34 -14 83 -33 161
-61 30 -11 43 -20 33 -22 -10 -2 -18 -7 -18 -12 0 -5 -8 -6 -17 -3 -16 6 -16
5 -4 -10 12 -15 9 -21 -11 -18 -5 0 -8 -4 -8 -10 0 -6 6 -9 14 -6 18 7 52 -33
36 -43 -14 -9 -48 -2 -56 11 -3 5 -10 9 -15 9 -6 0 -8 -4 -5 -9 8 -12 -68 -20
-76 -8 -3 6 -43 11 -87 13 -92 2 -128 19 -137 63 -5 23 -11 28 -37 28 -18 0
-40 -7 -50 -15 -15 -13 -23 -13 -57 -2 -22 7 -40 19 -40 25 0 23 -48 47 -69
35 -30 -15 -37 7 -14 38 13 17 28 26 40 24 12 -2 23 4 26 13 9 22 27 18 27 -7
0 -20 1 -20 20 -3 10 9 26 15 35 12 20 -8 45 2 45 17 0 16 82 18 128 4z m-415
-34 c-8 -21 -23 -17 -23 6 0 13 5 18 14 14 8 -3 12 -12 9 -20z m-3 -34 c0 -5
-7 -10 -15 -10 -8 0 -15 5 -15 10 0 6 7 10 15 10 8 0 15 -4 15 -10z m155 -76
c17 -13 18 -16 5 -24 -22 -14 -37 -12 -44 6 -14 37 3 45 39 18z m845 -9 c0 -8
-6 -15 -14 -15 -8 0 -16 -6 -19 -12 -2 -7 -7 -10 -11 -7 -5 5 29 49 39 49 3 0
5 -7 5 -15z m-200 -4 c0 -10 -24 -21 -46 -21 -20 0 -17 18 4 23 29 8 42 7 42
-2z m-551 -32 c20 -22 36 -67 26 -77 -3 -3 -5 2 -5 11 0 10 -8 17 -19 17 -10
0 -32 5 -49 11 -28 10 -30 13 -20 35 14 30 41 31 67 3z m581 -6 c0 -7 4 -13
10 -13 16 0 52 -93 39 -101 -8 -5 -8 -9 1 -14 9 -6 9 -9 0 -15 -12 -8 -71 18
-120 53 -21 15 -20 37 2 37 14 0 37 31 38 51 0 19 30 21 30 2z m-365 -62 c3
-5 1 -12 -5 -16 -5 -3 -10 1 -10 9 0 18 6 21 15 7z m175 -75 c0 -3 -4 -8 -10
-11 -5 -3 -10 -1 -10 4 0 6 5 11 10 11 6 0 10 -2 10 -4z m162 -114 c-3 -9 -11
-23 -18 -30 -10 -10 -16 -8 -28 10 -21 30 -20 36 7 40 33 6 47 -2 39 -20z
m-252 -111 c0 -5 -7 -14 -15 -21 -13 -10 -15 -9 -15 9 0 12 6 21 15 21 8 0 15
-4 15 -9z m239 -224 c3 6 21 14 38 17 l32 7 -11 -33 c-19 -54 -32 -73 -53 -76
-60 -10 -81 -16 -86 -25 -4 -5 -14 -7 -22 -4 -23 9 -10 47 27 80 l31 28 7 -23
c5 -20 6 -19 7 8 1 35 14 54 20 28 1 -9 6 -12 10 -7z m-134 -7 c-3 -5 -10 -10
-16 -10 -5 0 -9 5 -9 10 0 6 7 10 16 10 8 0 12 -4 9 -10z m-98 -30 c-3 -10 1
-27 8 -37 12 -15 17 -16 34 -5 17 10 21 10 21 -2 0 -20 -54 -46 -71 -35 -8 5
-26 9 -41 9 -23 0 -28 4 -28 25 0 18 7 26 25 31 13 3 29 12 36 20 16 20 22 17
16 -6z m113 -30 c0 -5 -2 -10 -4 -10 -3 0 -8 5 -11 10 -3 6 -1 10 4 10 6 0 11
-4 11 -10z m-50 -105 c0 -22 3 -24 19 -16 23 13 35 3 20 -16 -12 -13 2 -18 44
-14 10 2 17 -5 17 -15 0 -13 5 -10 21 10 24 31 39 33 39 6 0 -10 8 -23 18 -29
14 -8 15 -12 5 -22 -10 -10 -13 -10 -13 -1 0 7 -4 12 -10 12 -5 0 -7 -7 -3
-16 5 -14 1 -16 -19 -12 -20 4 -29 -1 -40 -21 -9 -14 -14 -31 -11 -37 2 -6 -3
-17 -12 -24 -8 -7 -15 -21 -15 -31 0 -21 -11 -24 -27 -8 -6 6 -21 8 -34 3 -31
-9 -93 -9 -108 1 -7 4 -11 18 -8 31 2 13 0 24 -4 24 -5 0 -9 7 -9 15 0 20 -13
19 -34 -4 -13 -15 -14 -20 -4 -24 19 -6 3 -19 -26 -21 -14 0 -26 -7 -26 -13 0
-17 -29 -17 -36 0 -3 8 -16 12 -33 9 -26 -4 -29 -1 -35 32 -4 20 -12 35 -19
33 -7 -1 -12 5 -12 13 0 8 9 16 20 16 11 1 25 2 31 3 6 1 9 12 6 26 -5 30 16
33 54 8 16 -10 28 -13 32 -6 4 5 15 11 25 11 9 1 24 3 33 4 9 1 24 14 34 30 9
15 20 25 23 21 4 -3 7 -1 7 5 0 7 6 12 14 12 8 0 17 6 19 13 4 9 8 9 15 -1 7
-11 10 -11 15 2 10 25 27 19 27 -9z m147 3 c-3 -8 -6 -5 -6 6 -1 11 2 17 5 13
3 -3 4 -12 1 -19z m-262 -3 c-16 -7 -32 -11 -35 -9 -7 8 24 24 45 23 15 0 13
-4 -10 -14z m-220 -15 c-3 -5 -10 -10 -16 -10 -5 0 -9 5 -9 10 0 6 7 10 16 10
8 0 12 -4 9 -10z m550 -101 c-4 -5 -13 -9 -22 -9 -13 0 -13 3 -3 15 13 15 35
11 25 -6z m-602 -49 c-3 -12 -8 -19 -11 -16 -5 6 5 36 12 36 2 0 2 -9 -1 -20z
m497 -76 c0 -2 -7 -4 -15 -4 -8 0 -15 4 -15 10 0 5 7 7 15 4 8 -4 15 -8 15
-10z m-399 -17 c-10 -9 -11 -8 -5 6 3 10 9 15 12 12 3 -3 0 -11 -7 -18z m272
-10 c17 2 25 0 17 -3 -8 -4 -18 -13 -23 -20 -11 -19 -37 -5 -36 20 0 11 3 16
5 10 2 -6 19 -9 37 -7z m112 -12 c-22 -8 -48 -14 -58 -14 -15 -1 -16 1 -5 14
8 9 30 14 58 14 l45 -1 -40 -13z m-572 -19 c3 -8 -1 -17 -9 -20 -11 -4 -12
-10 -3 -30 19 -40 6 -56 -45 -56 -54 0 -60 12 -33 63 23 41 37 48 37 16 0 -18
2 -19 15 -5 8 8 15 22 15 30 0 20 16 21 23 2z m72 -27 c-6 -15 -45 -24 -45
-11 0 7 42 30 48 26 1 0 0 -8 -3 -15z m259 -48 c4 -5 0 -12 -6 -14 -10 -4 -9
-8 2 -16 8 -5 11 -13 7 -17 -12 -12 -40 23 -34 40 7 18 23 21 31 7z m-439
-118 c5 -20 2 -31 -12 -41 -10 -7 -17 -18 -15 -23 1 -5 -5 -9 -14 -9 -11 0
-14 6 -9 22 6 17 4 20 -9 15 -23 -9 -20 3 11 35 33 35 39 35 48 1z m79 12 c-4
-8 -10 -12 -15 -9 -11 6 -2 24 11 24 5 0 7 -7 4 -15z m-235 -29 c8 -6 21 -10
30 -9 24 4 45 -13 38 -31 -5 -12 -20 -16 -57 -16 -27 0 -50 5 -50 10 0 6 -3 9
-7 9 -5 -1 -18 -1 -30 0 -21 1 -21 2 -6 31 12 25 19 29 41 24 15 -4 33 -12 41
-18z m496 4 c-3 -5 -12 -7 -20 -3 -21 7 -19 13 6 13 11 0 18 -4 14 -10z m-45
-45 c0 -6 -13 -12 -30 -12 -34 0 -39 13 -13 33 19 13 43 2 43 -21z m69 -4 c9
-6 4 -10 -18 -13 -31 -5 -47 3 -34 16 9 9 35 7 52 -3z m-619 -31 c0 -5 -2 -10
-4 -10 -3 0 -8 5 -11 10 -3 6 -1 10 4 10 6 0 11 -4 11 -10z m393 -55 c-22 -16
-38 2 -21 22 8 10 14 10 24 2 12 -10 11 -14 -3 -24z m582 -125 c-3 -5 0 -10 8
-10 10 0 13 -7 10 -20 -4 -15 -9 -18 -18 -10 -20 17 -26 50 -8 50 8 0 11 -4 8
-10z"/>
<path d="M3611 3756 c2 -2 27 -6 54 -10 34 -4 43 -3 30 3 -19 9 -93 15 -84 7z"/>
<path d="M3630 3670 c0 -5 5 -10 10 -10 6 0 10 5 10 10 0 6 -4 10 -10 10 -5 0
-10 -4 -10 -10z"/>
<path d="M3496 3576 c3 -9 11 -16 16 -16 13 0 5 23 -10 28 -7 2 -10 -2 -6 -12z"/>
<path d="M3340 1964 c0 -3 8 -13 17 -22 12 -12 18 -13 21 -4 2 6 18 12 35 12
16 0 27 3 24 6 -8 8 -97 15 -97 8z"/>
<path d="M3450 1946 c0 -2 13 -6 29 -8 17 -2 28 -1 25 4 -5 8 -54 12 -54 4z"/>
<path d="M3550 1932 c0 -4 24 -8 53 -9 39 -1 46 1 27 7 -33 11 -80 12 -80 2z"/>
<path d="M2800 1550 c0 -5 7 -7 15 -4 8 4 15 8 15 10 0 2 -7 4 -15 4 -8 0 -15
-4 -15 -10z"/>
<path d="M3486 3985 c-3 -9 -14 -19 -24 -23 -17 -6 -17 -10 -6 -37 11 -26 13
-27 14 -7 0 12 3 22 8 23 47 5 62 3 62 -8 0 -7 5 -13 11 -13 6 0 8 -9 4 -20
-6 -19 -4 -18 19 3 25 24 36 44 16 32 -5 -3 -12 6 -16 21 -4 17 -2 29 7 35 11
7 11 9 1 9 -7 0 -20 -7 -28 -15 -9 -8 -21 -15 -27 -15 -7 0 -3 7 7 15 19 14
18 15 -11 15 -18 0 -33 -6 -37 -15z"/>
<path d="M3535 3840 c3 -5 10 -10 16 -10 5 0 9 5 9 10 0 6 -7 10 -16 10 -8 0
-12 -4 -9 -10z"/>
<path d="M2613 3653 c-10 -3 -10 -8 1 -19 20 -19 26 -18 26 6 0 20 -5 23 -27
13z"/>
<path d="M2653 3556 c-13 -6 -23 -14 -23 -19 0 -4 -4 -5 -10 -2 -16 10 -12
-11 5 -25 12 -10 15 -10 15 3 0 9 12 23 26 30 32 17 19 28 -13 13z"/>
<path d="M2560 3525 c0 -8 9 -15 20 -15 11 0 20 7 20 15 0 8 -9 15 -20 15 -11
0 -20 -7 -20 -15z"/>
<path d="M1870 3119 l-25 -7 28 -1 c15 -1 27 -6 27 -12 0 -5 5 -7 10 -4 6 3
10 1 10 -4 0 -6 7 -11 15 -11 9 0 12 6 9 15 -4 8 -14 15 -24 15 -10 0 -20 4
-22 8 -1 5 -14 5 -28 1z"/>
<path d="M1606 3101 c-3 -4 -21 -11 -41 -14 -23 -4 -50 -20 -77 -46 -23 -23
-45 -41 -50 -41 -5 0 -6 -5 -3 -11 4 -6 -2 -19 -13 -29 -22 -21 -20 -51 5 -71
15 -13 33 -2 36 22 3 20 17 39 27 39 22 0 -53 -109 -74 -110 -6 0 -5 5 2 12 7
7 12 17 12 23 -1 12 -40 -33 -40 -47 0 -5 5 -6 10 -3 16 10 12 -1 -30 -81 -45
-86 -47 -92 -23 -73 15 13 16 11 8 -16 -13 -49 -14 -146 -2 -142 6 2 25 40 42
84 35 88 59 126 90 139 11 5 22 20 23 34 2 14 8 29 13 35 5 5 9 14 9 20 0 5
-5 3 -10 -5 -5 -8 -10 -10 -10 -4 0 7 16 26 34 42 26 23 41 29 58 24 18 -5 20
-7 6 -10 -23 -4 -23 -22 -1 -22 13 0 14 -3 5 -12 -19 -19 -14 -37 8 -31 34 9
53 -4 40 -27 -12 -22 -1 -27 19 -7 11 10 12 9 7 -1 -6 -10 -1 -11 19 -6 24 6
26 4 21 -12 -4 -13 1 -24 15 -32 18 -12 26 -10 60 12 21 14 45 26 54 26 8 0
15 9 15 20 0 11 5 20 10 20 6 0 10 -7 10 -15 0 -8 7 -15 16 -15 9 0 18 -9 21
-19 5 -19 6 -19 29 2 14 12 22 28 19 37 -3 9 1 8 10 -4 8 -11 15 -14 15 -8 0
20 17 14 23 -8 3 -11 12 -20 20 -20 12 0 14 8 10 35 -3 21 -1 41 7 50 7 9 8
15 2 15 -6 0 -12 -4 -14 -10 -6 -19 -30 8 -30 34 0 14 -5 26 -10 26 -6 0 -7
-11 -4 -25 4 -14 2 -25 -3 -25 -4 0 -11 13 -14 28 -4 19 -12 28 -26 29 -12 1
-21 -2 -21 -8 0 -5 -8 -9 -17 -9 -16 0 -16 2 -3 11 11 8 12 12 3 16 -7 2 -13
11 -13 19 0 8 -5 14 -11 14 -6 0 -9 -7 -5 -15 3 -8 2 -15 -3 -15 -5 0 -11 16
-13 35 -2 19 -2 35 2 35 3 0 5 25 5 55 0 47 -2 53 -12 38 -11 -15 -13 -15 -13
-1 0 15 -27 28 -62 28 -10 0 -18 -4 -18 -10 0 -5 8 -7 18 -4 13 5 14 4 3 -4
-7 -5 -28 -8 -46 -5 -36 5 -145 -23 -145 -38 0 -5 -7 -9 -15 -9 -27 0 0 50 35
63 12 4 12 6 -2 6 -9 1 -19 -3 -22 -8z m-36 -89 c0 -15 -2 -15 -10 -2 -13 20
-13 33 0 25 6 -3 10 -14 10 -23z m90 24 c0 -2 -7 -7 -16 -10 -8 -3 -12 -2 -9
4 6 10 25 14 25 6z m168 -20 c-16 -13 -28 -29 -28 -35 0 -7 -5 -9 -10 -6 -7 4
-6 14 1 28 14 26 28 37 49 37 10 0 5 -8 -12 -24z m-278 -16 c0 -5 -4 -10 -10
-10 -5 0 -10 5 -10 10 0 6 5 10 10 10 6 0 10 -4 10 -10z"/>
<path d="M1936 3053 c-6 -14 -5 -15 5 -6 7 7 10 15 7 18 -3 3 -9 -2 -12 -12z"/>
<path d="M2669 3054 c-12 -14 -11 -16 5 -13 11 2 21 10 24 17 5 17 -13 15 -29
-4z"/>
<path d="M2110 2990 c0 -6 7 -10 15 -10 8 0 15 2 15 4 0 2 -7 6 -15 10 -8 3
-15 1 -15 -4z"/>
<path d="M2104 2918 c1 -21 0 -41 -3 -44 -10 -9 -9 -84 0 -84 5 0 9 4 9 10 0
6 9 6 23 1 12 -4 27 -6 33 -4 13 4 7 40 -9 61 -6 8 -5 12 4 12 10 0 10 3 1 12
-17 17 -15 28 6 22 13 -4 14 -3 4 4 -8 5 -13 12 -13 16 3 20 -2 24 -28 28 -28
4 -29 3 -27 -34z m39 5 c-7 -2 -13 -15 -13 -28 0 -13 -5 -27 -12 -31 -8 -5 -9
-2 -5 10 4 10 7 26 7 37 0 12 7 19 18 18 10 0 12 -3 5 -6z"/>
<path d="M2057 2917 c-3 -9 1 -21 9 -28 20 -17 25 -8 10 20 -10 19 -14 20 -19
8z"/>
<path d="M1357 2891 c-4 -17 -3 -21 5 -13 5 5 8 16 6 23 -3 8 -7 3 -11 -10z"/>
<path d="M1381 2879 c-14 -41 -9 -47 14 -13 11 17 13 30 7 36 -6 6 -14 -2 -21
-23z"/>
<path d="M520 2749 c0 -5 5 -7 10 -4 6 3 10 8 10 11 0 2 -4 4 -10 4 -5 0 -10
-5 -10 -11z"/>
<path d="M1973 2748 c-20 -26 -26 -41 -15 -34 12 7 36 46 29 46 -3 0 -9 -6
-14 -12z"/>
<path d="M1685 2720 c-3 -5 1 -10 9 -10 9 0 16 5 16 10 0 6 -4 10 -9 10 -6 0
-13 -4 -16 -10z"/>
<path d="M1321 2574 c0 -11 3 -14 6 -6 3 7 2 16 -1 19 -3 4 -6 -2 -5 -13z"/>
<path d="M57 2543 c-4 -3 -7 -11 -7 -17 0 -6 5 -5 12 2 6 6 9 14 7 17 -3 3 -9
2 -12 -2z"/>
<path d="M80 2471 c0 -5 5 -13 10 -16 6 -3 10 -2 10 4 0 5 -4 13 -10 16 -5 3
-10 2 -10 -4z"/>
<path d="M250 2425 c-7 -9 -11 -17 -9 -20 3 -2 10 5 17 15 14 24 10 26 -8 5z"/>
<path d="M3847 2394 c-17 -23 -19 -23 -42 -8 -24 15 -24 15 -22 -20 2 -34 19
-48 32 -26 4 6 10 8 15 5 4 -3 10 1 13 9 3 8 15 16 26 18 17 3 18 6 8 25 l-12
21 -18 -24z"/>
<path d="M3895 2410 c-3 -5 -2 -10 4 -10 5 0 13 5 16 10 3 6 2 10 -4 10 -5 0
-13 -4 -16 -10z"/>
<path d="M118 2353 c7 -3 16 -2 19 1 4 3 -2 6 -13 5 -11 0 -14 -3 -6 -6z"/>
<path d="M2058 2336 c-157 -6 -290 -14 -293 -18 -4 -4 -35 -4 -69 -1 -89 8
-160 -10 -241 -62 -38 -25 -73 -45 -77 -45 -12 0 -10 -48 3 -72 7 -12 18 -48
25 -80 19 -79 45 -127 93 -171 67 -61 162 -77 289 -51 15 3 22 0 22 -11 0 -8
-7 -15 -15 -15 -13 0 -18 -12 -14 -36 0 -3 -16 -21 -36 -40 -21 -19 -33 -34
-27 -34 5 0 34 24 63 53 29 28 56 51 61 49 4 -1 8 2 8 7 0 6 16 27 35 48 19
21 35 44 35 52 0 8 14 36 31 62 17 27 37 71 44 98 14 55 40 98 49 83 3 -6 19
-8 35 -6 35 6 53 -15 75 -89 18 -59 92 -146 149 -175 29 -14 63 -22 96 -22 66
0 143 19 138 34 -3 6 -11 9 -18 7 -8 -3 -46 -4 -86 -3 -117 2 -184 42 -229
137 -13 27 -21 51 -19 54 3 2 28 -9 57 -24 59 -31 109 -40 101 -18 -5 12 13
18 46 14 7 -2 10 2 6 8 -3 6 1 11 9 11 9 0 16 7 16 16 0 11 6 15 20 11 10 -3
24 1 31 9 6 8 18 14 26 14 8 0 23 5 35 11 20 11 20 11 -7 39 -14 15 -44 36
-66 45 -21 10 -39 23 -39 30 0 17 -31 41 -65 50 -27 8 -25 9 30 17 79 12 173
5 218 -17 66 -31 98 -151 65 -246 -14 -39 -65 -124 -76 -124 -13 0 -32 -16
-32 -26 0 -17 58 20 84 53 41 55 77 175 80 267 1 32 -3 36 -64 68 -112 57
-112 57 -602 39z m83 -78 c-4 -13 -6 -29 -4 -36 3 -7 -3 -21 -13 -31 -17 -17
-22 -17 -48 -4 -26 14 -28 13 -23 -1 4 -10 1 -16 -8 -16 -9 0 -12 6 -8 18 5
14 3 15 -8 5 -22 -22 -34 -15 -50 32 -11 31 -13 46 -5 49 6 2 48 5 93 5 81 1
82 1 74 -21z m-586 -28 c-3 -5 3 -10 15 -10 12 0 41 -5 66 -11 l44 -11 -57
-28 c-53 -25 -75 -43 -112 -92 -11 -15 -11 -18 3 -18 9 0 16 7 16 15 0 20 6
19 41 -6 17 -12 42 -25 57 -29 24 -7 23 -8 -15 -9 -43 -1 -66 -16 -36 -24 10
-2 1 -4 -19 -3 -37 1 -52 19 -25 29 6 3 8 6 2 6 -18 1 -47 -27 -40 -38 3 -6
19 -11 36 -11 23 0 29 -4 29 -20 0 -18 4 -20 35 -14 27 5 41 2 55 -11 11 -10
20 -14 20 -9 0 5 4 3 9 -5 11 -17 34 -4 27 15 -3 8 1 14 8 14 8 0 16 -5 18
-12 3 -8 9 -8 24 0 10 6 13 12 7 12 -24 0 -13 18 20 30 65 25 116 50 122 60
13 21 27 10 20 -17 -13 -53 -101 -144 -143 -148 -9 -1 -37 -7 -61 -14 -56 -16
-131 -6 -168 22 -55 42 -74 64 -67 80 4 12 1 17 -12 18 -11 0 -14 3 -6 6 6 2
12 9 12 14 0 6 -4 8 -9 4 -20 -12 -33 38 -29 108 3 61 7 72 31 93 27 23 95 35
82 14z m380 -10 c-3 -5 -2 -10 3 -10 11 0 20 -30 15 -47 -3 -7 -9 -13 -14 -13
-6 0 -7 5 -4 10 3 6 -5 14 -19 20 -25 9 -34 29 -19 43 10 11 45 8 38 -3z m510
-70 c7 -12 -31 -28 -60 -26 -11 1 -29 8 -40 15 -18 11 -16 11 17 6 21 -3 39
-1 43 5 8 13 32 13 40 0z m-75 -50 c0 -5 -12 -10 -27 -9 l-28 1 25 8 c14 4 26
8 28 9 1 1 2 -3 2 -9z m-750 -20 c13 -9 13 -10 0 -10 -8 0 -22 5 -30 10 -13 9
-13 10 0 10 8 0 22 -5 30 -10z m270 0 c0 -5 -5 -10 -11 -10 -5 0 -7 5 -4 10 3
6 8 10 11 10 2 0 4 -4 4 -10z m-130 -24 c0 -9 -39 -13 -51 -5 -10 6 -4 9 19 9
17 0 32 -2 32 -4z m-33 -32 c-3 -3 -12 -4 -19 -1 -8 3 -5 6 6 6 11 1 17 -2 13
-5z m118 -174 c-3 -5 -12 -10 -18 -10 -7 0 -6 4 3 10 19 12 23 12 15 0z"/>
<path d="M1315 2256 c-16 -12 -18 -17 -7 -27 15 -16 36 1 30 25 -3 15 -5 15
-23 2z"/>
<path d="M120 2236 c0 -8 4 -17 9 -20 5 -4 7 3 4 14 -6 23 -13 26 -13 6z"/>
<path d="M1260 2194 c0 -8 5 -12 10 -9 6 4 8 11 5 16 -9 14 -15 11 -15 -7z"/>
<path d="M1306 2157 c3 -10 9 -15 12 -12 3 3 0 11 -7 18 -10 9 -11 8 -5 -6z"/>
<path d="M1217 2094 c-10 -10 -9 -44 2 -44 13 0 23 32 13 42 -5 5 -11 5 -15 2z"/>
<path d="M161 2034 c0 -11 3 -14 6 -6 3 7 2 16 -1 19 -3 4 -6 -2 -5 -13z"/>
<path d="M412 1888 c5 -15 28 -23 28 -10 0 5 -7 13 -16 16 -10 4 -14 1 -12 -6z"/>
<path d="M210 1855 c0 -8 5 -15 10 -15 6 0 10 7 10 15 0 8 -4 15 -10 15 -5 0
-10 -7 -10 -15z"/>
<path d="M7 1824 c-11 -11 3 -24 25 -24 17 0 18 2 8 15 -13 16 -23 19 -33 9z"/>
<path d="M387 1823 c-13 -13 -7 -43 9 -43 13 0 14 3 4 15 -6 8 -9 19 -5 25 7
11 2 14 -8 3z"/>
<path d="M521 1794 c-6 -21 -8 -40 -6 -43 3 -2 5 0 5 6 0 6 8 10 18 9 12 -1
17 7 17 28 0 43 -22 43 -34 0z"/>
<path d="M190 1800 c0 -5 7 -10 16 -10 8 0 12 5 9 10 -3 6 -10 10 -16 10 -5 0
-9 -4 -9 -10z"/>
<path d="M117 1760 c3 -11 11 -20 18 -20 8 0 11 8 8 20 -3 11 -11 20 -18 20
-8 0 -11 -8 -8 -20z"/>
<path d="M1928 1748 c-36 -21 -38 -21 -58 -3 -15 14 -20 15 -20 4 1 -25 27
-49 54 -49 17 0 26 -5 26 -16 0 -8 5 -12 10 -9 6 3 10 -4 11 -17 0 -23 0 -23
9 -2 11 28 28 39 26 16 0 -9 5 -16 12 -14 14 2 17 -24 3 -32 -5 -4 -12 0 -15
6 -3 7 -3 2 0 -12 9 -33 44 -57 44 -29 0 6 9 8 22 4 17 -6 20 -4 14 10 -14 38
-17 63 -8 69 6 3 8 15 5 26 -3 11 0 20 6 20 6 0 11 -4 11 -10 0 -5 7 -10 15
-10 8 0 15 5 15 12 0 6 3 8 7 5 3 -4 12 -2 19 4 8 7 14 7 19 -1 5 -8 11 -7 22
2 8 6 28 11 43 10 16 -1 31 1 34 6 2 4 -5 9 -17 9 -12 1 -32 8 -45 15 -19 10
-29 9 -55 -5 -55 -28 -82 -30 -125 -8 -23 12 -43 21 -44 21 -2 0 -20 -10 -40
-22z m72 -35 c-8 -3 -24 -10 -35 -15 -20 -9 -20 -9 -1 6 11 9 27 16 35 15 14
0 14 -1 1 -6z"/>
<path d="M238 1747 c-16 -6 -28 -18 -29 -26 0 -12 -3 -10 -9 4 l-9 20 -1 -20
c-2 -11 -2 -25 -1 -32 1 -6 -6 -14 -16 -17 -10 -4 -25 -21 -34 -39 -9 -18 -31
-39 -50 -49 -19 -9 -41 -28 -48 -42 -8 -14 -20 -26 -28 -26 -8 0 -13 -12 -13
-30 0 -39 24 -40 41 -1 7 16 17 27 23 24 5 -4 6 6 2 23 -7 28 -7 28 12 11 19
-17 20 -17 25 3 3 11 13 20 22 20 12 0 16 6 12 20 -3 12 0 20 7 20 6 0 17 14
23 31 8 22 17 30 27 26 9 -4 18 -2 21 3 8 13 25 13 25 1 0 -5 -7 -16 -15 -25
-8 -8 -15 -23 -15 -33 0 -15 2 -16 10 -3 6 10 10 11 10 3 0 -7 11 -15 25 -19
17 -4 25 -13 26 -28 1 -25 37 -107 38 -86 1 8 -3 29 -8 47 -10 35 -4 48 15 32
15 -12 54 21 54 46 0 21 -20 19 -20 -2 -1 -17 -1 -17 -14 -1 -12 16 -14 15
-31 -4 l-18 -21 -13 24 c-21 38 -16 127 7 113 15 -9 10 14 -7 30 -8 9 -16 16
-17 15 -1 -1 -14 -6 -29 -12z"/>
<path d="M540 1720 c0 -6 -7 -10 -15 -10 -8 0 -15 -4 -15 -8 0 -5 7 -9 15 -9
8 0 15 5 15 10 0 5 5 5 13 -1 7 -6 18 -7 26 -3 13 9 9 13 -21 24 -10 4 -18 2
-18 -3z"/>
<path d="M1024 1718 c3 -7 9 -21 12 -30 7 -21 24 -24 24 -5 -1 14 -24 47 -34
47 -4 0 -5 -6 -2 -12z"/>
<path d="M6 1703 c-6 -14 -5 -15 5 -6 7 7 10 15 7 18 -3 3 -9 -2 -12 -12z"/>
<path d="M290 1679 c0 -24 26 -53 40 -44 16 10 12 29 -10 48 -26 22 -30 21
-30 -4z"/>
<path d="M40 1680 c0 -5 4 -10 9 -10 6 0 13 5 16 10 3 6 -1 10 -9 10 -9 0 -16
-4 -16 -10z"/>
<path d="M623 1683 c-7 -2 -13 -14 -13 -24 0 -11 -4 -17 -10 -14 -5 3 -10 1
-10 -4 0 -6 7 -11 15 -11 8 0 15 4 15 8 0 5 11 15 25 22 14 7 25 17 25 22 0 9
-27 10 -47 1z"/>
<path d="M995 1634 c-13 -44 -13 -59 -4 -70 8 -10 15 -12 23 -4 14 14 26 12
26 -5 0 -8 5 -15 10 -15 6 0 9 6 8 13 -2 6 2 11 8 10 7 -1 10 6 7 17 -3 11 -8
19 -12 18 -24 -3 -41 4 -41 17 0 8 4 15 8 15 5 0 8 10 6 23 -1 12 -3 25 -3 30
-1 4 -5 7 -10 7 -5 0 -17 -25 -26 -56z"/>
<path d="M1883 1651 c2 -21 14 -48 25 -59 l20 -20 5 20 c3 12 10 17 17 13 6
-4 9 -14 5 -24 -4 -11 -3 -13 4 -6 8 8 6 21 -7 46 -18 35 -42 42 -42 13 0 -9
-4 -12 -10 -9 -5 3 -10 18 -10 33 0 19 3 23 9 14 7 -11 9 -11 14 2 5 12 0 16
-15 16 -18 0 -20 -4 -15 -39z"/>
<path d="M703 1665 c-7 -8 -9 -16 -4 -19 5 -3 12 1 15 10 8 22 4 25 -11 9z"/>
<path d="M3660 1665 c-7 -9 -11 -17 -9 -20 3 -2 10 5 17 15 14 24 10 26 -8 5z"/>
<path d="M20 1656 c0 -9 -4 -16 -10 -16 -5 0 -10 -12 -10 -27 0 -25 0 -26 20
-8 21 19 26 50 10 60 -5 3 -10 -1 -10 -9z"/>
<path d="M478 1663 c7 -3 16 -2 19 1 4 3 -2 6 -13 5 -11 0 -14 -3 -6 -6z"/>
<path d="M780 1659 c0 -5 5 -7 10 -4 6 3 10 8 10 11 0 2 -4 4 -10 4 -5 0 -10
-5 -10 -11z"/>
<path d="M1760 1638 l-23 -33 28 28 c15 16 25 31 22 33 -3 3 -15 -10 -27 -28z"/>
<path d="M2090 1670 c-9 -45 -7 -61 11 -70 13 -8 19 -7 19 0 0 6 -7 13 -16 17
-11 4 -12 8 -4 13 9 6 9 13 1 26 -6 11 -11 17 -11 14z"/>
<path d="M1055 1649 c-4 -6 -3 -15 3 -21 6 -6 11 -4 15 6 7 18 -9 31 -18 15z"/>
<path d="M65 1639 c-4 -6 -5 -13 -2 -16 7 -7 27 6 27 18 0 12 -17 12 -25 -2z"/>
<path d="M1614 1639 c-3 -5 0 -9 6 -9 7 0 10 -7 6 -15 -3 -10 1 -15 12 -15 25
0 26 37 1 43 -10 3 -22 1 -25 -4z"/>
<path d="M1260 1601 c0 -12 5 -21 10 -21 6 0 10 6 10 14 0 8 -4 18 -10 21 -5
3 -10 -3 -10 -14z"/>
<path d="M2444 1567 c-4 -11 -13 -16 -22 -12 -12 4 -13 3 -3 -9 7 -8 10 -20 6
-26 -3 -5 -2 -10 4 -10 5 0 12 8 14 18 4 13 5 11 6 -5 0 -13 -3 -23 -9 -23 -5
0 -10 -5 -10 -11 0 -5 4 -8 9 -4 5 3 11 -7 13 -22 6 -52 22 -23 19 34 -3 67
-15 99 -27 70z"/>
<path d="M217 1549 c4 -13 8 -18 11 -10 2 7 -1 18 -6 23 -8 8 -9 4 -5 -13z"/>
<path d="M757 1556 c-4 -9 -13 -13 -20 -10 -17 6 -33 -58 -20 -81 13 -23 28
-4 40 50 11 49 11 70 0 41z"/>
<path d="M620 1535 c-10 -12 -10 -15 4 -15 9 0 16 7 16 15 0 8 -2 15 -4 15 -2
0 -9 -7 -16 -15z"/>
<path d="M2051 1533 c-53 -14 -108 -16 -115 -5 -2 4 -28 5 -58 2 -29 -3 -68
-2 -86 3 -51 13 -62 2 -17 -17 80 -34 252 -29 470 13 l100 20 -124 -2 c-68 -1
-145 -7 -170 -14z"/>
<path d="M526 1532 c-4 -7 -12 -10 -17 -7 -20 13 -7 -16 14 -29 22 -15 67 -12
67 4 0 5 -8 6 -18 3 -12 -3 -22 3 -28 18 -7 16 -13 19 -18 11z"/>
<path d="M1285 1530 c3 -5 8 -10 11 -10 2 0 4 5 4 10 0 6 -5 10 -11 10 -5 0
-7 -4 -4 -10z"/>
<path d="M1658 1500 c-5 -58 3 -104 20 -108 8 -1 11 2 7 8 -3 5 -2 10 4 10 5
0 17 7 26 16 14 14 14 18 1 28 -8 6 -16 22 -18 36 -2 14 -7 24 -13 22 -5 -2
-12 5 -16 15 -4 12 -8 3 -11 -27z"/>
<path d="M780 1493 c0 -35 0 -36 18 -18 16 18 16 21 3 37 -21 24 -21 24 -21
-19z"/>
<path d="M872 1488 c2 -28 8 -34 31 -36 21 -3 27 1 26 15 0 10 -3 13 -6 6 -8
-22 -25 -14 -18 8 5 14 2 25 -6 30 -24 15 -30 10 -27 -23z"/>
<path d="M921 1504 c0 -11 3 -14 6 -6 3 7 2 16 -1 19 -3 4 -6 -2 -5 -13z"/>
<path d="M3648 1503 c7 -3 16 -2 19 1 4 3 -2 6 -13 5 -11 0 -14 -3 -6 -6z"/>
<path d="M160 1488 c0 -8 9 -14 20 -13 21 1 41 15 22 15 -5 0 -17 3 -26 6 -10
4 -16 1 -16 -8z"/>
<path d="M1015 1469 c-4 -6 -5 -12 -2 -15 2 -3 7 2 10 11 7 17 1 20 -8 4z"/>
<path d="M326 1416 c5 -35 3 -50 -7 -57 -11 -6 -9 -13 8 -31 12 -13 23 -36 26
-53 10 -63 20 -86 33 -81 7 3 18 -2 24 -10 18 -21 36 -17 55 12 9 14 15 27 13
28 -18 13 -81 36 -85 32 -4 -3 -1 -6 5 -6 7 0 12 -4 12 -10 0 -15 -30 -12 -32
3 -2 20 -5 31 -10 47 -14 37 -28 99 -28 121 0 13 -5 31 -11 39 -7 11 -8 1 -3
-34z"/>
<path d="M831 1444 c0 -11 3 -14 6 -6 3 7 2 16 -1 19 -3 4 -6 -2 -5 -13z"/>
<path d="M383 1443 c-7 -2 -13 -17 -13 -32 0 -46 69 -65 70 -19 0 4 -9 9 -19
13 -13 4 -17 12 -14 25 5 20 -1 23 -24 13z"/>
<path d="M1267 1436 c-4 -10 2 -20 13 -26 15 -8 20 -8 20 2 0 9 3 9 11 -2 8
-12 10 -12 7 -1 -2 8 -13 20 -25 28 -18 12 -21 12 -26 -1z"/>
<path d="M703 1414 c-6 -13 -8 -26 -3 -29 4 -3 11 7 14 21 9 35 4 39 -11 8z"/>
<path d="M970 1408 c-14 -17 -34 -39 -44 -49 -20 -19 -20 -19 0 -19 21 0 41
19 63 63 20 38 11 40 -19 5z"/>
<path d="M1061 1424 c0 -11 3 -14 6 -6 3 7 2 16 -1 19 -3 4 -6 -2 -5 -13z"/>
<path d="M1332 1414 c3 -23 -34 -60 -92 -89 -105 -54 -250 -176 -250 -211 0
-8 -7 -22 -15 -30 -8 -9 -15 -24 -15 -35 0 -10 -7 -19 -15 -19 -9 0 -15 9 -15
25 0 14 -4 25 -10 25 -5 0 -10 -15 -10 -34 0 -22 -6 -36 -16 -40 -23 -9 -24
-8 -24 23 0 17 -5 33 -11 37 -8 4 -10 -6 -6 -34 3 -33 1 -40 -12 -40 -9 0 -24
-3 -33 -7 -12 -4 -18 -3 -18 5 0 10 -3 10 -14 1 -8 -7 -20 -11 -28 -10 -7 1
-29 1 -48 0 l-34 -1 23 -16 c26 -19 18 -32 -24 -38 -17 -2 -37 -6 -45 -9 -8
-3 -34 -11 -58 -17 -24 -6 -50 -14 -58 -17 -10 -4 -12 0 -8 11 3 8 10 14 16
13 5 -1 16 8 24 19 13 19 13 22 -1 27 -8 4 -15 2 -15 -3 0 -6 -4 -10 -10 -10
-16 0 -12 70 5 87 16 16 11 38 -7 27 -7 -5 -9 3 -5 22 3 16 4 23 1 16 -3 -6
-10 -10 -15 -6 -5 3 -9 -2 -9 -10 0 -9 -6 -16 -14 -16 -8 0 -16 -6 -19 -14 -4
-10 1 -13 16 -10 l22 5 -22 -12 c-35 -19 -50 -5 -58 53 -13 95 -23 85 -23 -23
l0 -106 24 5 c15 3 24 11 24 22 0 13 6 17 20 13 22 -6 26 -23 9 -40 -7 -7 -5
-15 6 -27 9 -9 12 -16 7 -16 -6 0 -13 -7 -16 -16 -5 -12 -2 -15 9 -10 9 3 13
2 10 -4 -13 -22 -34 -9 -41 25 -7 39 -30 43 -27 4 3 -23 2 -23 -12 -5 -8 11
-15 14 -15 8 0 -7 -4 -12 -10 -12 -5 0 -10 7 -10 15 0 8 -4 15 -10 15 -5 0 -9
-10 -7 -22 1 -14 -3 -22 -10 -21 -22 5 -14 -14 8 -20 25 -7 22 -43 -4 -41 -9
1 -14 -2 -11 -7 3 -5 1 -9 -4 -9 -6 0 -12 7 -16 15 -7 20 -26 19 -26 0 0 -12
-7 -14 -28 -9 -26 7 -27 6 -9 -13 17 -20 14 -33 -9 -33 -16 0 -54 70 -54 98 0
10 -3 22 -8 26 -4 4 -7 11 -8 14 -2 14 -24 62 -29 62 -2 0 0 -11 4 -24 8 -20
5 -27 -20 -45 -24 -18 -32 -19 -49 -9 -11 7 -20 19 -20 26 0 7 -5 10 -10 7 -6
-3 -10 0 -10 9 0 8 6 17 13 20 9 5 9 7 -1 12 -6 3 -10 9 -7 14 3 4 -2 11 -10
14 -12 4 -14 0 -9 -22 4 -21 3 -24 -5 -12 -8 12 -11 4 -11 -30 0 -36 4 -46 18
-48 9 -1 37 -5 60 -8 27 -4 48 -2 55 5 16 16 27 13 27 -7 0 -10 4 -22 10 -28
5 -5 11 -20 13 -33 2 -13 11 -29 21 -36 15 -11 10 -18 -46 -58 -35 -25 -74
-55 -87 -67 -21 -20 -23 -21 -18 -4 6 20 -18 62 -29 51 -4 -4 -2 -12 4 -20 13
-15 -1 -43 -17 -33 -8 5 -11 -82 -11 -318 l0 -326 1666 0 1666 0 -6 32 c-4 18
-8 43 -9 56 -1 12 -6 22 -12 22 -5 0 -4 4 4 9 10 7 11 13 1 31 -6 12 -14 34
-16 48 -3 15 -14 44 -24 65 -26 49 -25 61 0 21 11 -17 31 -62 45 -100 13 -38
24 -59 25 -46 0 12 -7 38 -14 57 -8 19 -12 35 -9 35 3 0 1 6 -4 12 -5 7 -10
28 -12 47 -1 19 -6 39 -10 45 -12 15 -1 68 13 63 6 -2 10 -21 9 -43 -1 -21 9
-84 22 -139 14 -55 27 -126 31 -158 l7 -57 133 0 c83 0 134 4 134 10 0 6 0 13
-1 16 0 4 5 11 13 16 9 6 6 7 -9 3 -12 -3 -24 -1 -28 4 -3 7 0 8 9 5 19 -7 32
19 20 38 -15 23 -13 40 3 34 8 -3 16 -6 17 -6 2 0 1 -12 -2 -26 -3 -15 -1 -24
4 -21 5 3 8 -12 6 -34 l-4 -39 166 0 166 0 -1 105 c-2 72 -5 102 -13 98 -6 -3
-5 0 2 8 14 16 16 39 2 39 -6 0 -9 -5 -8 -11 2 -6 -3 -14 -11 -17 -8 -3 -11 0
-7 7 4 6 2 11 -3 11 -6 0 -11 -4 -11 -10 0 -5 -8 -10 -18 -10 -10 0 -23 -5
-29 -11 -8 -8 -13 -7 -18 2 -5 7 -4 10 2 6 6 -4 13 0 17 8 3 9 12 12 23 9 15
-5 15 -4 3 4 -8 6 -18 8 -23 5 -10 -6 2 39 12 47 12 10 32 64 42 114 5 28 12
59 15 70 4 11 2 16 -4 12 -6 -3 -12 -1 -15 6 -2 7 -3 4 -1 -7 6 -36 -7 -94
-21 -89 -7 3 -15 -4 -18 -15 -3 -12 -11 -21 -19 -20 -10 0 -10 2 0 6 21 8 13
21 -10 17 -13 -2 -17 -1 -8 2 8 4 21 14 29 22 13 13 12 14 -9 7 -21 -7 -23 -6
-12 7 10 12 9 18 -3 28 -8 7 -12 17 -8 23 4 6 0 8 -11 4 -14 -6 -15 -4 -5 14
8 15 8 19 0 15 -6 -4 -11 -3 -11 3 0 5 5 11 12 13 9 3 9 6 0 12 -8 5 -16 -3
-22 -21 -21 -57 -29 -70 -23 -36 4 22 0 41 -11 58 -9 14 -15 29 -12 33 3 4 1
14 -3 21 -5 7 -8 1 -9 -18 -1 -35 -8 -51 -25 -51 -8 0 -8 3 1 12 7 7 12 26 12
43 0 23 -3 26 -10 15 -7 -11 -10 -11 -10 -2 0 7 -4 11 -9 8 -4 -3 -4 17 1 45
5 28 7 53 5 56 -6 5 -27 -88 -27 -120 -1 -18 -4 -16 -19 13 -10 19 -17 45 -16
58 4 43 -14 22 -21 -25 -5 -36 -9 -43 -14 -28 -4 11 -3 30 1 43 12 33 11 50
-3 49 -60 -2 -88 24 -53 49 16 12 16 13 -9 20 -14 3 -26 10 -26 15 0 5 7 6 15
3 8 -4 15 -2 15 3 0 19 -253 92 -375 109 -16 2 -35 6 -41 8 -7 3 -9 -5 -6 -21
3 -18 7 -21 13 -11 7 10 9 10 10 -2 0 -8 2 -23 4 -33 3 -15 1 -15 -25 3 -15
11 -34 20 -41 20 -14 0 -112 60 -117 72 -2 5 -8 6 -13 2 -5 -3 -9 4 -9 15 0
11 -8 22 -17 24 -13 3 -12 5 5 6 28 1 55 -12 107 -54 54 -43 90 -54 41 -13
-78 66 -101 84 -128 97 -15 8 -25 17 -23 22 3 4 -3 9 -12 12 -17 4 -17 4 1 12
12 5 28 2 47 -9 23 -14 28 -14 23 -2 -3 8 -24 22 -47 31 -61 25 -81 62 -27 52
17 -4 30 -4 30 -2 0 9 -58 34 -64 28 -3 -4 -14 2 -24 13 -19 19 -22 26 -22 44
0 6 -7 10 -15 10 -8 0 -15 8 -15 18 0 11 -3 13 -8 6 -7 -12 -22 -2 -33 21 -2
5 -11 11 -19 12 -8 1 -16 7 -18 12 -2 6 -12 11 -22 11 -10 0 -20 6 -23 14 -8
20 -69 30 -82 13 -5 -7 -18 -16 -29 -20 -10 -4 -16 -13 -13 -21 3 -8 -4 -18
-17 -24 -41 -18 -41 -124 -1 -155 6 -4 4 -11 -7 -17 -13 -8 -15 -19 -11 -46 4
-27 1 -38 -13 -49 -14 -11 -15 -14 -4 -15 11 0 11 -3 2 -12 -18 -18 -15 -27 8
-21 14 4 20 0 20 -11 0 -10 -4 -15 -8 -12 -4 2 -6 -11 -4 -30 3 -22 -1 -41
-10 -52 -9 -9 -20 -32 -27 -51 -6 -19 -19 -43 -28 -53 -9 -10 -11 -18 -5 -18
20 0 59 64 87 143 25 69 26 79 12 90 -9 7 -17 34 -19 70 -4 54 -4 56 13 41 21
-19 34 -3 19 26 -17 31 6 24 30 -10 21 -29 77 -66 93 -62 4 1 7 -3 7 -9 0 -5
4 -8 9 -5 5 3 6 -15 3 -40 -4 -35 -24 -73 -92 -177 -48 -73 -111 -160 -140
-195 l-53 -63 -143 2 c-79 1 -141 6 -138 11 3 4 -1 8 -8 8 -8 0 -6 5 5 11 9 5
17 17 17 24 0 8 6 15 13 15 7 0 18 9 25 20 8 14 9 20 1 20 -6 0 -9 7 -5 15 8
22 -3 45 -20 38 -10 -4 -12 0 -8 11 4 11 0 16 -12 17 -11 0 -14 3 -6 6 6 2 12
11 12 18 0 14 -17 15 -38 1 -20 -12 -25 -1 -12 24 7 13 9 37 5 57 -4 21 -2 40
6 49 6 8 9 27 6 43 -5 23 -1 33 18 47 29 22 33 39 6 25 -10 -6 -22 -7 -26 -3
-3 4 -5 0 -3 -8 2 -9 -4 -14 -14 -14 -10 1 -18 -3 -18 -10 0 -6 -5 -3 -11 7
-6 9 -14 15 -20 12 -5 -4 -16 1 -25 10 -13 12 -19 13 -31 4 -20 -17 -75 -18
-91 -3 -7 7 -19 11 -26 8 -8 -3 -17 -1 -21 5 -3 6 -17 11 -31 11 -13 0 -24 5
-24 10 0 6 -4 9 -8 8 -4 -2 -22 11 -39 29 -23 23 -30 38 -26 54 5 19 3 21 -15
17 -24 -7 -32 16 -9 25 7 3 5 6 -5 6 -10 1 -18 8 -18 16 0 23 -26 18 -38 -7
-11 -23 -11 -23 -11 4 -1 15 6 34 16 43 13 13 14 18 3 25 -7 4 -9 13 -5 20 5
8 4 11 -3 6 -6 -3 -13 3 -17 14 -4 11 -11 17 -17 14 -7 -5 -9 0 -6 14 4 12 2
24 -2 27 -5 3 -12 26 -16 51 -4 27 -10 41 -14 34 -4 -7 -13 -9 -19 -6 -7 5
-12 -2 -12 -18 -1 -14 -2 -32 -3 -38 -1 -7 5 -12 12 -11 6 2 12 -4 12 -13 0
-9 -5 -12 -12 -8 -7 5 -8 3 -4 -5 5 -7 11 -10 14 -7 11 11 30 -15 25 -34 -4
-14 0 -20 10 -20 10 0 18 -14 22 -41 4 -22 5 -43 2 -46 -3 -3 -20 10 -39 28
-18 19 -36 33 -41 31 -5 -1 -6 2 -2 8 3 5 1 10 -5 10 -6 0 -8 5 -5 10 3 6 -3
10 -14 10 -14 0 -19 -5 -15 -14 4 -11 0 -13 -14 -9 -14 3 -18 11 -14 25 3 13
11 18 24 15 16 -5 17 -3 7 9 -6 8 -14 12 -17 9 -3 -2 -11 3 -19 13 -12 15 -13
14 -7 -12 5 -22 4 -27 -7 -24 -8 3 -13 11 -11 17 1 6 -2 11 -7 11 -5 0 -18 3
-28 6 -13 4 -15 3 -4 -4 8 -6 11 -17 6 -32 -5 -17 -9 -19 -16 -9 -5 8 -3 16 4
21 8 5 7 8 -5 8 -16 0 -31 27 -27 46 4 19 -14 44 -32 44 -10 0 -25 12 -34 28
-13 22 -15 23 -13 6z m175 -230 c11 -10 25 -13 46 -8 25 5 29 4 24 -10 -7 -17
5 -45 32 -79 8 -9 12 -19 9 -22 -8 -8 -38 6 -38 17 0 10 -25 38 -34 38 -2 0
-7 -8 -9 -17 -3 -13 -5 -12 -6 5 -1 15 -5 21 -13 16 -7 -4 -8 -3 -4 4 4 7 2
12 -3 12 -6 0 -11 9 -11 20 0 11 -4 20 -10 20 -5 0 -10 5 -10 10 0 14 9 12 27
-6z m1101 -129 c-3 -3 -9 2 -12 12 -6 14 -5 15 5 6 7 -7 10 -15 7 -18z m-1013
-16 c-7 -11 -35 -12 -35 -1 0 4 9 8 20 9 11 1 18 -2 15 -8z m232 -75 c-3 -3
-12 -4 -19 -1 -8 3 -5 6 6 6 11 1 17 -2 13 -5z m220 -68 c-3 -7 -1 -18 5 -24
6 -6 0 -15 -21 -25 -30 -15 -31 -15 -31 6 0 26 10 42 30 50 22 8 23 8 17 -7z
m-180 -2 c-3 -3 -12 -4 -19 -1 -8 3 -5 6 6 6 11 1 17 -2 13 -5z m-1502 -14 c3
-5 1 -10 -4 -10 -6 0 -11 5 -11 10 0 6 2 10 4 10 3 0 8 -4 11 -10z m2679 -13
c16 -11 63 -35 105 -53 42 -19 72 -34 68 -34 -4 0 -3 -9 3 -20 14 -26 -2 -26
-26 1 -12 14 -25 18 -41 14 -13 -3 -23 -1 -23 4 0 6 -7 8 -15 5 -8 -4 -17 1
-21 10 -3 9 -10 14 -14 11 -19 -12 -100 40 -100 64 0 5 -6 12 -12 14 -7 3 1 5
17 4 17 0 43 -10 59 -20z m-2629 4 c3 -5 1 -12 -5 -16 -5 -3 -10 1 -10 9 0 18
6 21 15 7z m1559 -7 c17 -6 22 -24 8 -24 -5 0 -17 7 -28 15 -19 15 -8 20 20 9z
m1244 -19 c-3 -3 -9 2 -12 12 -6 14 -5 15 5 6 7 -7 10 -15 7 -18z m-1468 -1
c0 -2 -7 -4 -15 -4 -8 0 -15 4 -15 10 0 5 7 7 15 4 8 -4 15 -8 15 -10z m344
-9 c-4 -8 -10 -12 -15 -9 -14 8 -10 24 6 24 9 0 12 -6 9 -15z m1189 -35 c-3
-12 -8 -19 -11 -16 -5 6 5 36 12 36 2 0 2 -9 -1 -20z m-230 -24 c29 -13 78
-29 107 -36 30 -8 62 -20 71 -27 9 -7 18 -10 22 -7 3 3 3 -3 0 -15 -7 -27 -12
-26 -46 5 -18 16 -34 23 -46 19 -11 -3 -22 -1 -26 5 -5 8 -11 8 -19 1 -9 -8
-18 -5 -33 8 -13 13 -25 16 -35 10 -12 -7 -23 -1 -41 20 -13 16 -33 31 -43 34
-14 3 -11 5 8 6 15 0 51 -10 81 -23z m456 8 c3 -4 -1 -5 -10 -1 -9 3 -21 1
-26 -4 -6 -6 -10 -4 -10 5 0 14 33 14 46 0z m36 -12 c-3 -3 -11 0 -18 7 -9 10
-8 11 6 5 10 -3 15 -9 12 -12z m-72 -27 c-3 -9 -8 -14 -10 -11 -3 3 -2 9 2 15
9 16 15 13 8 -4z m-407 -56 c56 -14 81 -25 72 -30 -10 -7 -9 -9 5 -9 9 0 17
-4 17 -8 0 -5 -13 -7 -30 -4 -16 2 -30 7 -30 11 0 3 -18 6 -39 6 -29 1 -45 7
-59 25 -11 14 -24 21 -28 17 -5 -4 -2 -12 6 -17 9 -6 10 -10 3 -10 -11 0 -43
26 -43 36 0 9 45 3 126 -17z m177 -42 c-2 -4 3 -10 11 -13 15 -6 23 -34 11
-34 -8 0 -57 32 -73 47 -9 9 -5 11 22 10 19 -1 32 -5 29 -10z m394 -9 c-3 -8
-6 -5 -6 6 -1 11 2 17 5 13 3 -3 4 -12 1 -19z m-1771 -23 c12 -24 12 -24 -17
-9 -31 16 -40 27 -12 17 11 -4 14 -3 9 5 -4 7 -4 12 1 12 4 0 13 -11 19 -25z
m348 11 c-6 -15 -64 -28 -64 -14 0 4 11 8 25 8 14 0 25 5 25 10 0 6 4 10 10
10 5 0 7 -6 4 -14z m-2174 -5 c0 -5 -7 -14 -15 -21 -16 -14 -18 -10 -9 14 6
17 24 22 24 7z m2877 -7 c-3 -3 -12 -4 -19 -1 -8 3 -5 6 6 6 11 1 17 -2 13 -5z
m169 -15 c6 -5 14 -6 18 -2 4 4 4 0 1 -9 -6 -15 -11 -15 -46 -3 -21 8 -41 10
-44 5 -3 -4 1 -11 7 -13 8 -4 7 -6 -4 -6 -9 -1 -20 4 -23 9 -3 6 -1 10 4 10
23 0 9 19 -16 23 -16 2 -1 2 32 0 33 -3 65 -9 71 -14z m70 -27 c-4 -3 -14 2
-24 12 -16 18 -16 18 6 6 13 -6 21 -14 18 -18z m120 -7 c9 -8 14 -22 12 -31
-2 -12 -9 -8 -26 15 -23 32 -13 43 14 16z m-1281 -15 c13 -6 15 -9 5 -9 -8 0
-22 4 -30 9 -18 12 -2 12 25 0z m918 -37 c-7 -2 -19 -2 -25 0 -7 3 -2 5 12 5
14 0 19 -2 13 -5z m67 -3 c0 -12 -8 -12 -35 0 -18 8 -17 9 8 9 15 1 27 -3 27
-9z m60 6 c0 -2 -11 -6 -25 -8 -14 -3 -25 -1 -25 3 0 5 11 9 25 9 14 0 25 -2
25 -4z m25 -6 c3 -5 1 -10 -4 -10 -6 0 -11 5 -11 10 0 6 2 10 4 10 3 0 8 -4
11 -10z m231 -25 c9 -14 14 -28 11 -31 -7 -7 -47 32 -47 46 0 18 19 10 36 -15z
m488 9 c3 -8 2 -12 -4 -9 -6 3 -10 10 -10 16 0 14 7 11 14 -7z m-1956 -55 c-3
-8 -7 -3 -11 10 -4 17 -3 21 5 13 5 -5 8 -16 6 -23z m86 -12 c20 -18 29 -35
31 -68 4 -41 4 -42 -3 -8 -5 20 -23 49 -42 67 -38 37 -27 44 14 9z m1123 -43
c17 -35 28 -62 23 -59 -4 3 -11 0 -13 -5 -3 -6 -4 -5 -3 2 2 7 -10 36 -25 65
-31 55 -34 63 -21 62 4 0 21 -29 39 -65z m283 46 c0 -5 -2 -10 -4 -10 -3 0 -8
5 -11 10 -3 6 -1 10 4 10 6 0 11 -4 11 -10z m-1490 -30 c0 -11 -2 -20 -4 -20
-2 0 -6 9 -9 20 -3 11 -1 20 4 20 5 0 9 -9 9 -20z m779 4 c7 4 11 -1 11 -13 0
-11 -5 -23 -12 -27 -7 -5 -9 -2 -5 9 3 9 0 18 -9 21 -8 3 -14 11 -14 18 0 10
2 10 9 -1 5 -7 14 -10 20 -7z m137 -9 c9 -37 -2 -41 -14 -6 -7 18 -7 31 -2 31
5 0 12 -11 16 -25z m64 -5 c0 -5 -5 -10 -11 -10 -5 0 -7 5 -4 10 3 6 8 10 11
10 2 0 4 -4 4 -10z m-893 -22 c-3 -8 -6 -5 -6 6 -1 11 2 17 5 13 3 -3 4 -12 1
-19z m733 12 c0 -5 -2 -10 -4 -10 -3 0 -8 5 -11 10 -3 6 -1 10 4 10 6 0 11 -4
11 -10z m567 -12 c-3 -8 -6 -5 -6 6 -1 11 2 17 5 13 3 -3 4 -12 1 -19z m-1177
-10 c0 -13 -23 -5 -28 10 -2 7 2 10 12 6 9 -3 16 -11 16 -16z m800 18 c0 -2
-7 -9 -15 -16 -13 -11 -14 -10 -9 4 5 14 24 23 24 12z m-289 -39 c-10 -9 -11
-8 -5 6 3 10 9 15 12 12 3 -3 0 -11 -7 -18z m-472 -36 c0 -14 -1 -14 -6 -1 -3
8 -10 24 -15 35 -9 20 -9 20 6 1 9 -11 16 -27 15 -35z m678 32 c4 -9 1 -19 -5
-21 -15 -5 -16 -38 -2 -47 6 -3 10 4 11 17 0 21 1 22 8 3 5 -12 3 -25 -6 -33
-17 -17 -17 -26 1 -19 10 4 19 -12 31 -55 9 -33 14 -62 12 -64 -3 -3 -7 7 -11
21 -4 14 -10 25 -15 25 -4 0 -7 12 -5 28 2 15 1 19 -2 10 -7 -23 -23 -23 -22
0 0 20 -7 47 -21 84 -8 21 -7 27 6 32 12 5 13 9 3 21 -9 11 -9 15 -1 15 6 0
15 -8 18 -17z m216 -40 c3 -13 2 -23 -3 -23 -4 0 -10 10 -13 23 -2 12 -8 31
-12 42 l-7 20 14 -20 c8 -11 17 -30 21 -42z m-516 25 c-3 -8 -6 -5 -6 6 -1 11
2 17 5 13 3 -3 4 -12 1 -19z m113 -18 c0 -16 -4 -30 -8 -30 -5 0 -8 10 -6 23
1 12 3 25 3 30 3 21 11 3 11 -23z m300 -11 c0 -37 41 -149 52 -143 6 4 8 3 5
-3 -4 -6 1 -28 10 -49 9 -22 17 -47 18 -58 2 -16 -1 -15 -16 5 -10 13 -15 27
-13 31 3 5 -6 34 -21 66 -35 78 -41 87 -54 84 -6 -1 -11 5 -11 13 0 9 6 12 18
8 13 -5 14 -3 5 7 -6 7 -9 19 -6 26 3 8 1 14 -5 14 -6 0 -8 9 -5 21 4 16 8 17
14 7 5 -7 9 -20 9 -29z m-670 -4 c0 -11 -39 2 -48 16 -10 16 -9 16 19 2 16 -8
29 -16 29 -18z m445 25 c-3 -5 1 -10 9 -10 9 0 16 -7 16 -15 0 -8 -4 -15 -10
-15 -5 0 -10 -5 -10 -11 0 -6 7 -9 15 -5 12 4 15 -3 15 -29 0 -36 -13 -47 -24
-20 -3 8 -1 15 4 15 6 0 10 5 10 11 0 6 -6 9 -13 6 -8 -3 -14 0 -14 6 -1 7 -4
27 -8 45 -5 22 -4 32 4 32 7 0 9 -4 6 -10z m-178 -52 c-3 -7 -5 -2 -5 12 0 14
2 19 5 13 2 -7 2 -19 0 -25z m-120 -35 c-3 -10 -5 -2 -5 17 0 19 2 27 5 18 2
-10 2 -26 0 -35z m120 -60 c-2 -16 -4 -3 -4 27 0 30 2 43 4 28 2 -16 2 -40 0
-55z m513 37 c0 -16 -14 -12 -38 10 -30 28 -28 33 8 15 17 -9 30 -20 30 -25z
m737 -2 c-3 -8 -6 -5 -6 6 -1 11 2 17 5 13 3 -3 4 -12 1 -19z m-1140 -20 c-3
-7 -5 -2 -5 12 0 14 2 19 5 13 2 -7 2 -19 0 -25z m479 2 c8 0 14 -4 14 -9 0
-5 -9 -7 -20 -4 -11 3 -20 13 -19 22 0 10 2 11 6 4 2 -7 11 -13 19 -13z m204
-72 c0 -15 -4 -30 -10 -33 -6 -4 -10 11 -10 39 0 24 -2 53 -5 63 -3 10 1 5 9
-12 8 -16 15 -42 16 -57z m-843 50 c-3 -8 -6 -5 -6 6 -1 11 2 17 5 13 3 -3 4
-12 1 -19z m1285 -10 c-8 -8 -9 -4 -5 13 4 13 8 18 11 10 2 -7 -1 -18 -6 -23z
m-1003 -28 c0 -9 -4 -8 -9 5 -5 11 -9 27 -9 35 0 9 4 8 9 -5 5 -11 9 -27 9
-35z m327 13 c-3 -4 -6 0 -6 7 0 9 -7 7 -22 -6 -13 -12 -18 -13 -13 -4 19 32
30 39 38 23 5 -8 6 -17 3 -20z m944 22 c0 -8 -2 -15 -4 -15 -2 0 -6 7 -10 15
-3 8 -1 15 4 15 6 0 10 -7 10 -15z m-1613 -27 c-3 -7 -5 -2 -5 12 0 14 2 19 5
13 2 -7 2 -19 0 -25z m1288 22 c3 -6 -1 -7 -9 -4 -18 7 -21 14 -7 14 6 0 13
-4 16 -10z m-1195 -10 c0 -5 -2 -10 -4 -10 -3 0 -8 5 -11 10 -3 6 -1 10 4 10
6 0 11 -4 11 -10z m225 -9 c3 -5 2 -12 -3 -15 -5 -3 -9 1 -9 9 0 17 3 19 12 6z
m482 -28 c-3 -10 -5 -4 -5 12 0 17 2 24 5 18 2 -7 2 -21 0 -30z m-820 5 c-3
-8 -6 -5 -6 6 -1 11 2 17 5 13 3 -3 4 -12 1 -19z m140 0 c-3 -8 -6 -5 -6 6 -1
11 2 17 5 13 3 -3 4 -12 1 -19z m122 -28 c0 -9 -4 -8 -9 5 -5 11 -9 27 -9 35
0 9 4 8 9 -5 5 -11 9 -27 9 -35z m-147 17 c-4 -14 -7 -16 -13 -5 -12 19 -11
25 5 25 8 0 11 -8 8 -20z m607 -47 c0 -8 -6 0 -14 19 -8 18 -15 38 -14 45 1
15 28 -46 28 -64z m-380 34 c4 3 8 -4 8 -15 2 -17 0 -17 -13 -5 -8 8 -14 21
-13 28 0 10 2 10 6 0 2 -6 8 -10 12 -8z m157 -34 c4 -24 3 -31 -4 -21 -5 7
-15 10 -22 6 -9 -6 -9 -3 0 15 6 12 9 29 5 38 -4 12 -3 14 4 7 6 -6 13 -26 17
-45z m-117 7 c0 -21 -1 -21 -9 -2 -12 28 -12 37 0 30 6 -3 10 -16 9 -28z m448
-6 c1 -14 -3 -18 -13 -14 -17 6 -18 20 -1 26 6 3 12 6 12 6 1 1 1 -8 2 -18z
m-142 -1 c3 -5 1 -10 -4 -10 -6 0 -11 5 -11 10 0 6 2 10 4 10 3 0 8 -4 11 -10z
m232 -6 c-3 -3 -12 -4 -19 -1 -8 3 -5 6 6 6 11 1 17 -2 13 -5z"/>
<path d="M1526 1152 c-3 -6 -1 -14 5 -17 15 -10 25 3 12 16 -7 7 -13 7 -17 1z"/>
<path d="M870 1364 c0 -8 5 -12 10 -9 6 4 8 11 5 16 -9 14 -15 11 -15 -7z"/>
<path d="M32 1362 c-9 -3 -7 -9 8 -19 12 -8 24 -13 27 -9 9 9 -21 33 -35 28z"/>
<path d="M470 1362 c0 -13 28 -47 34 -42 10 10 -6 50 -20 50 -8 0 -14 -4 -14
-8z"/>
<path d="M684 1326 c-9 -30 -8 -33 10 -32 25 1 34 37 14 54 -11 8 -16 4 -24
-22z"/>
<path d="M0 1334 c0 -10 5 -26 10 -34 8 -11 9 -7 4 15 -8 37 -14 45 -14 19z"/>
<path d="M260 1335 c0 -16 16 -20 24 -6 3 5 -1 11 -9 15 -9 3 -15 0 -15 -9z"/>
<path d="M2470 1339 c0 -5 -5 -7 -12 -3 -7 4 -8 3 -4 -4 4 -6 13 -9 21 -6 8 4
12 10 9 15 -7 12 -14 11 -14 -2z"/>
<path d="M526 1325 c4 -8 8 -15 10 -15 2 0 4 7 4 15 0 8 -4 15 -10 15 -5 0 -7
-7 -4 -15z"/>
<path d="M2041 1306 c-7 -8 -8 -17 -3 -20 6 -3 12 3 15 14 6 24 4 25 -12 6z"/>
<path d="M50 1291 c0 -6 5 -13 10 -16 6 -3 10 1 10 9 0 9 -4 16 -10 16 -5 0
-10 -4 -10 -9z"/>
<path d="M867 1280 c-3 -13 0 -20 9 -20 8 0 14 9 14 20 0 11 -4 20 -9 20 -5 0
-11 -9 -14 -20z"/>
<path d="M807 1261 c4 -17 8 -18 24 -8 13 8 15 13 6 19 -22 14 -35 9 -30 -11z"/>
<path d="M7 1263 c-13 -13 -7 -24 19 -34 36 -13 39 -7 11 19 -13 12 -27 19
-30 15z"/>
<path d="M74 1237 c3 -10 0 -20 -9 -23 -18 -7 -9 -31 13 -37 24 -6 48 21 33
36 -8 8 -11 8 -11 -2 0 -7 -5 -9 -10 -6 -6 4 -8 10 -6 14 3 4 0 13 -6 21 -8
12 -9 12 -4 -3z"/>
<path d="M1035 1220 c3 -5 8 -10 11 -10 2 0 4 5 4 10 0 6 -5 10 -11 10 -5 0
-7 -4 -4 -10z"/>
<path d="M605 1180 c3 -5 8 -10 11 -10 2 0 4 5 4 10 0 6 -5 10 -11 10 -5 0 -7
-4 -4 -10z"/>
<path d="M246 1165 c-5 -11 -8 -27 -8 -35 3 -27 -44 -145 -56 -142 -7 1 -12
-4 -12 -11 0 -21 12 -28 27 -16 9 9 13 8 13 0 0 -6 5 -11 10 -11 7 0 7 6 1 19
-6 10 -8 21 -4 24 3 4 7 20 9 37 2 17 11 44 19 61 9 17 15 45 13 62 -3 28 -4
30 -12 12z"/>
<path d="M20 1155 c0 -13 4 -14 20 -5 11 6 20 13 20 15 0 3 -9 5 -20 5 -11 0
-20 -7 -20 -15z"/>
<path d="M1 1144 c0 -11 3 -14 6 -6 3 7 2 16 -1 19 -3 4 -6 -2 -5 -13z"/>
<path d="M88 1142 c-4 -13 -2 -20 4 -16 6 4 8 -2 6 -12 -2 -11 -11 -18 -22
-17 -11 0 -15 -4 -12 -13 3 -9 -1 -14 -12 -15 -11 0 -13 -2 -4 -6 7 -3 21 2
31 11 10 9 21 13 24 9 9 -9 8 37 -2 61 -7 19 -8 19 -13 -2z"/>
<path d="M130 1150 c0 -29 15 -41 41 -32 l24 9 -25 8 c-14 4 -28 13 -32 19 -5
7 -8 6 -8 -4z"/>
<path d="M845 1128 c4 -13 11 -27 16 -33 5 -5 4 5 -2 23 -12 36 -24 44 -14 10z"/>
<path d="M940 1119 c0 -11 4 -18 10 -14 5 3 7 12 3 20 -7 21 -13 19 -13 -6z"/>
<path d="M672 1119 c2 -6 8 -10 13 -10 5 0 11 4 13 10 2 6 -4 11 -13 11 -9 0
-15 -5 -13 -11z"/>
<path d="M312 1093 c-10 -17 -9 -22 4 -27 12 -4 14 -13 10 -32 -6 -23 -5 -24
14 -14 20 11 28 40 11 40 -5 0 -13 12 -18 27 -10 28 -10 28 -21 6z"/>
<path d="M3230 1095 c0 -7 -7 -18 -15 -25 -24 -20 -18 -30 20 -30 24 0 37 -6
45 -19 19 -36 13 -44 -31 -37 -53 8 -43 -8 16 -24 63 -18 75 -6 75 76 0 35 -3
65 -7 66 -36 7 -103 3 -103 -7z"/>
<path d="M648 1075 c-14 -19 -15 -24 -4 -28 9 -4 16 4 19 21 7 34 6 35 -15 7z"/>
<path d="M576 1054 c-9 -24 -7 -46 4 -39 5 3 6 13 3 22 -4 11 -2 14 8 11 8 -3
13 -12 11 -22 -2 -9 2 -16 8 -16 5 0 10 -8 10 -17 0 -27 16 -47 30 -38 10 6 8
11 -6 22 -15 11 -16 15 -5 22 10 7 7 15 -16 40 -35 36 -39 37 -47 15z"/>
<path d="M70 1016 c0 -25 28 -62 38 -51 4 3 1 10 -6 14 -7 4 -12 12 -11 17 1
5 1 17 0 27 -2 26 -21 20 -21 -7z"/>
<path d="M100 1030 c0 -5 5 -10 11 -10 5 0 7 5 4 10 -3 6 -8 10 -11 10 -2 0
-4 -4 -4 -10z"/>
<path d="M2541 1014 c0 -11 3 -14 6 -6 3 7 2 16 -1 19 -3 4 -6 -2 -5 -13z"/>
<path d="M259 958 c-13 -11 -14 -18 -3 -48 7 -19 13 -27 13 -17 1 11 6 15 12
11 8 -4 9 1 3 17 -4 13 -7 30 -7 37 0 6 -1 12 -2 12 -1 0 -8 -6 -16 -12z"/>
<path d="M190 926 c0 -8 5 -18 10 -21 6 -3 10 1 10 9 0 8 -4 18 -10 21 -5 3
-10 -1 -10 -9z"/>
<path d="M210 884 c0 -5 7 -18 15 -28 12 -16 15 -17 15 -4 0 8 -7 21 -15 28
-8 7 -15 9 -15 4z"/>
<path d="M53 845 c-3 -9 -3 -19 1 -22 3 -4 6 -1 6 5 0 6 18 -5 40 -25 22 -21
40 -43 40 -49 0 -16 17 -27 30 -19 10 6 -18 65 -31 65 -4 0 -12 14 -19 30 -14
33 -56 42 -67 15z"/>
<path d="M24 794 c3 -9 6 -22 6 -29 0 -7 9 -23 20 -36 l20 -24 -10 29 c-9 26
-9 27 5 16 26 -21 19 13 -8 38 -27 26 -42 28 -33 6z"/>
<path d="M3600 766 c0 -2 15 -9 33 -15 29 -10 30 -9 13 4 -18 14 -46 20 -46
11z"/>
<path d="M3675 720 c7 -41 12 -48 21 -27 3 9 -2 26 -11 39 -16 23 -16 23 -10
-12z"/>
<path d="M3620 721 c0 -11 5 -23 10 -26 6 -3 10 -1 10 5 0 6 5 8 10 5 14 -9
13 8 -2 23 -17 17 -28 15 -28 -7z"/>
<path d="M0 715 c0 -8 2 -15 4 -15 2 0 6 7 10 15 3 8 1 15 -4 15 -6 0 -10 -7
-10 -15z"/>
<path d="M2443 715 c0 -8 4 -12 9 -9 5 3 6 10 3 15 -9 13 -12 11 -12 -6z"/>
<path d="M3590 714 c0 -8 5 -12 10 -9 6 4 8 11 5 16 -9 14 -15 11 -15 -7z"/>
<path d="M3710 695 c0 -8 4 -15 10 -15 5 0 7 7 4 15 -4 8 -8 15 -10 15 -2 0
-4 -7 -4 -15z"/>
<path d="M3767 663 c-6 -34 -5 -37 10 -14 6 10 8 23 3 30 -5 9 -9 3 -13 -16z"/>
<path d="M2370 642 c-13 -20 -29 -43 -35 -51 -8 -12 -7 -12 10 -3 11 6 33 21
48 34 24 20 26 25 15 40 -12 16 -15 15 -38 -20z"/>
<path d="M2425 669 c-10 -15 3 -25 16 -12 7 7 7 13 1 17 -6 3 -14 1 -17 -5z"/>
<path d="M3800 663 c0 -5 4 -13 9 -18 5 -6 11 -19 14 -30 4 -16 5 -14 6 6 0
15 -6 32 -14 39 -8 7 -15 8 -15 3z"/>
<path d="M3863 605 c-13 -14 -7 -25 14 -25 14 0 18 26 6 33 -5 3 -13 -1 -20
-8z"/>
<path d="M3808 570 c2 -17 8 -33 14 -36 5 -3 6 6 2 23 -9 40 -22 50 -16 13z"/>
<path d="M3946 284 c-3 -8 -2 -13 3 -9 5 3 11 0 13 -7 3 -7 7 -8 10 -3 3 6 0
15 -7 22 -10 10 -14 9 -19 -3z"/>
<path d="M3342 80 c0 -14 4 -38 8 -55 l8 -30 0 30 c0 17 -4 41 -8 55 l-8 25 0
-25z"/>
</g>
</svg>
