<?xml version="1.0" standalone="no"?>
<!DOCTYPE svg PUBLIC "-//W3C//DTD SVG 20010904//EN"
 "http://www.w3.org/TR/2001/REC-SVG-20010904/DTD/svg10.dtd">
<svg version="1.0" xmlns="http://www.w3.org/2000/svg"
 width="640.000000pt" height="640.000000pt" viewBox="0 0 640.000000 640.000000"
 preserveAspectRatio="xMidYMid meet">
<metadata>
Created by potrace 1.14, written by Peter Selinger 2001-2017
</metadata>
<g transform="translate(0.000000,640.000000) scale(0.100000,-0.100000)"
fill="#000000" stroke="none">
<path d="M0 6169 c0 -180 3 -230 12 -227 7 3 16 24 19 49 3 24 7 -29 7 -118 2
-157 1 -163 -18 -163 -11 0 -20 -7 -20 -15 0 -8 9 -15 20 -15 15 0 20 -7 20
-26 0 -21 -4 -24 -20 -19 -20 6 -20 2 -20 -1934 l0 -1941 193 -3 192 -2 -192
-3 -193 -2 0 -875 0 -875 3200 0 3200 0 0 1045 0 1045 -22 4 c-13 3 -32 7 -43
9 -14 3 -11 5 10 7 l30 2 -30 8 c-28 7 -27 8 13 9 l42 1 0 355 c0 230 -4 355
-10 355 -5 0 -10 -7 -10 -15 0 -11 -12 -15 -47 -15 l-48 0 0 -123 c0 -159 -5
-165 -117 -159 -65 3 -78 7 -83 23 -8 23 3 42 19 36 23 -9 37 9 31 36 -4 15
-16 28 -31 31 -30 8 -29 -6 -33 485 l-3 244 29 23 c15 13 36 22 45 20 9 -2 25
5 34 15 16 18 16 19 0 19 -9 0 -19 7 -22 15 -8 20 -24 19 -24 -1 0 -10 -7 -14
-22 -12 -20 3 -23 8 -21 43 11 221 51 389 104 446 16 17 29 37 29 45 0 7 11
23 24 36 13 13 32 42 42 66 10 23 23 42 29 42 14 0 35 -43 35 -69 0 -14 7 -18
25 -17 l25 1 0 1173 0 1172 -3200 0 -3200 0 0 -231z m127 -170 c37 -18 47 -19
54 -8 5 8 9 -51 9 -147 l0 -162 -37 8 c-21 5 -50 11 -65 15 l-28 5 0 133 c0
125 10 232 18 195 2 -9 24 -27 49 -39z m36 -341 c9 -5 17 -18 17 -30 0 -19 -4
-20 -47 -14 -27 4 -54 7 -60 8 -7 1 -13 14 -13 30 0 28 1 28 43 22 23 -4 50
-11 60 -16z m3039 -242 c3 -14 1 -31 -3 -38 -6 -8 -9 1 -9 25 0 42 6 48 12 13z
m-16 -108 c-4 -42 -3 -47 4 -23 6 21 7 9 3 -40 -4 -38 -6 -83 -5 -100 5 -86 4
-106 -6 -117 -5 -7 -13 -38 -16 -68 -9 -75 -26 -149 -36 -155 -4 -3 -7 50 -6
118 2 87 7 133 19 160 9 21 18 78 21 132 6 92 14 145 22 145 3 0 2 -24 0 -52z
m758 -708 c-4 -55 -9 -76 -13 -61 -6 21 -9 16 -19 -28 -15 -66 -16 -113 -2
-91 8 12 10 10 10 -10 0 -14 3 -43 7 -64 6 -36 5 -39 -15 -34 -23 6 -26 1 -37
-67 -6 -41 -20 -73 -28 -65 -2 3 0 38 6 78 8 62 7 83 -7 127 -19 63 -14 81 42
143 38 41 40 48 48 130 4 48 10 74 12 57 2 -16 1 -68 -4 -115z m33 78 c-2 -13
-4 -3 -4 22 0 25 2 35 4 23 2 -13 2 -33 0 -45z m2168 12 c81 -2 23 -18 -67
-19 -64 -1 -78 2 -78 14 0 13 9 15 48 11 26 -3 70 -5 97 -6z m-3337 -72 c7 11
25 15 55 13 11 -1 17 -9 17 -23 0 -17 -3 -19 -9 -9 -7 11 -12 10 -29 -5 -10
-11 -21 -26 -24 -34 -3 -9 -13 3 -25 32 -30 66 -37 100 -12 54 11 -21 24 -34
27 -28z m1175 15 c-4 -10 -3 -14 5 -9 7 4 15 -7 21 -31 23 -83 30 -117 26
-121 -8 -8 -25 10 -25 28 0 18 -14 21 -36 8 -7 -5 -9 13 -6 55 4 64 8 87 16
87 3 0 2 -7 -1 -17z m1787 -88 c0 -5 -5 -3 -10 5 -5 8 -10 20 -10 25 0 6 5 3
10 -5 5 -8 10 -19 10 -25z m-1783 -57 c-3 -8 -6 -5 -6 6 -1 11 2 17 5 13 3 -3
4 -12 1 -19z m-60 -20 c-3 -7 -5 -2 -5 12 0 14 2 19 5 13 2 -7 2 -19 0 -25z
m-1833 -15 c-4 -21 -13 -47 -20 -58 -8 -11 -14 -31 -14 -44 0 -44 -22 -7 -26
43 -4 39 -2 46 14 46 10 0 24 11 30 25 17 36 24 31 16 -12z m-2007 21 c-3 -3
-12 -4 -19 -1 -8 3 -5 6 6 6 11 1 17 -2 13 -5z m2612 -61 l-1 -68 -9 45 c-9
42 -5 90 6 90 3 0 5 -30 4 -67z m-659 47 c0 -5 -5 -10 -11 -10 -5 0 -7 5 -4
10 3 6 8 10 11 10 2 0 4 -4 4 -10z m1107 -54 c-3 -7 6 -37 20 -67 20 -43 64
-202 63 -228 -1 -16 -46 96 -75 182 -30 92 -36 145 -13 131 5 -3 7 -11 5 -18z
m2570 -129 c-2 -23 -3 -1 -3 48 0 50 1 68 3 42 2 -26 2 -67 0 -90z m-1755 98
c-2 -14 -9 -25 -14 -25 -6 0 -7 7 -4 16 3 9 6 20 6 25 0 5 4 9 9 9 4 0 6 -11
3 -25z m756 -114 c-22 -46 -25 -48 -43 -35 -15 11 -16 17 -7 26 17 17 15 33
-2 19 -10 -8 -16 -9 -21 -1 -3 5 0 10 8 10 8 0 20 6 26 14 7 8 21 13 32 11 12
-3 19 2 20 13 0 10 3 12 6 5 2 -7 -6 -35 -19 -62z m1062 19 c0 -11 -4 -20 -10
-20 -5 0 -10 -12 -10 -27 0 -22 -2 -25 -10 -13 -14 21 -12 67 3 73 22 10 27 7
27 -13z m-3763 -62 c-3 -7 -5 -2 -5 12 0 14 2 19 5 13 2 -7 2 -19 0 -25z
m-947 2 c0 -5 -4 -10 -10 -10 -5 0 -10 5 -10 10 0 6 5 10 10 10 6 0 10 -4 10
-10z m0 -36 c0 -8 -5 -12 -10 -9 -6 4 -8 11 -5 16 9 14 15 11 15 -7z m4057
-31 c-3 -10 -5 -2 -5 17 0 19 2 27 5 18 2 -10 2 -26 0 -35z m-4057 -13 c11 -7
5 -10 -23 -10 -23 0 -36 4 -32 10 8 13 35 13 55 0z m2080 -230 c1 -47 5 -109
9 -137 7 -47 5 -53 -11 -53 -20 0 -25 16 -6 22 9 3 9 21 -1 74 -26 142 -32
201 -25 264 l8 65 12 -75 c7 -41 13 -113 14 -160z m2016 113 c-5 -5 -36 86
-35 101 0 6 9 -13 20 -43 10 -30 17 -56 15 -58z m-595 49 c-6 -2 -11 -9 -11
-16 0 -20 -34 -46 -48 -37 -15 9 -5 41 13 41 7 0 21 12 31 28 17 24 19 25 22
7 2 -10 -1 -21 -7 -23z m460 -72 c4 -3 0 -29 -7 -59 -9 -31 -11 -58 -6 -65 5
-6 12 -24 16 -41 6 -27 5 -28 -7 -13 -8 10 -18 14 -23 10 -4 -4 -3 0 4 10 11
13 10 19 -1 29 -11 11 -12 21 -4 42 8 25 7 51 -8 161 -3 20 1 14 12 -19 10
-27 20 -52 24 -55z m-4519 68 c-7 -7 -12 -8 -12 -2 0 14 12 26 19 19 2 -3 -1
-11 -7 -17z m548 14 c0 -5 -3 -12 -7 -16 -5 -4 -8 -12 -8 -17 0 -21 -19 -7
-22 16 -3 20 1 25 17 25 11 0 20 -4 20 -8z m1780 -55 c0 -5 -4 -5 -10 -2 -5 3
-10 14 -10 23 0 15 2 15 10 2 5 -8 10 -19 10 -23z m1747 -29 c-3 -7 -5 -2 -5
12 0 14 2 19 5 13 2 -7 2 -19 0 -25z m-3485 -17 c3 -23 8 -27 55 -32 65 -8
117 -39 134 -82 32 -74 1 -184 -63 -228 -18 -12 -35 -24 -37 -26 -3 -2 5 -13
16 -26 34 -37 43 -63 43 -124 0 -67 -22 -122 -70 -177 -57 -65 -148 -96 -279
-96 l-68 0 -24 -52 c-30 -66 -90 -133 -144 -160 -25 -13 -66 -23 -110 -25 -60
-4 -77 -1 -115 19 -64 35 -90 77 -90 147 0 39 6 66 21 91 44 71 74 83 233 89
l128 6 104 259 c57 143 104 263 104 268 0 4 -19 8 -43 8 -24 0 -48 5 -55 12
-35 35 9 98 70 98 32 0 40 4 48 25 10 28 54 43 106 37 27 -3 33 -9 36 -31z
m3395 -11 c-4 -17 0 -20 23 -20 16 0 40 -4 53 -9 22 -9 24 -7 20 17 -3 26 -3
26 7 -2 5 -16 22 -42 37 -58 25 -26 28 -36 28 -98 0 -65 -2 -71 -34 -104 -36
-37 -91 -56 -165 -56 l-46 0 46 -62 c57 -78 74 -117 81 -193 14 -156 -121
-285 -298 -285 l-58 0 4 -32 c2 -18 6 -76 9 -128 4 -75 2 -99 -10 -115 -15
-19 -15 -19 -8 9 5 19 3 27 -4 23 -13 -9 -23 67 -22 168 l1 80 -53 35 c-125
83 -142 261 -35 377 64 69 154 105 198 77 10 -6 10 -2 -2 16 -15 23 -24 25
-98 28 l-82 3 6 -38 c4 -33 3 -31 -14 16 -21 60 -35 118 -25 108 4 -3 16 0 28
8 12 9 44 15 82 15 l62 0 6 36 c13 66 101 142 186 159 60 11 70 16 70 31 0 8
3 14 6 14 4 0 4 -9 1 -20z m-1295 -87 l-27 -58 -3 42 c-2 25 3 55 13 73 14 27
18 29 30 16 13 -12 11 -22 -13 -73z m-408 51 c9 -8 16 -16 16 -17 -1 -15 -35
-107 -59 -159 -17 -37 -31 -72 -31 -78 0 -5 24 -10 53 -10 40 0 59 -5 75 -20
41 -39 40 -62 -15 -207 -4 -9 8 -13 39 -13 49 0 68 -13 68 -47 0 -47 -32 -63
-124 -63 -146 0 -156 13 -110 140 26 72 26 100 1 100 -24 0 -55 -42 -96 -132
-40 -87 -60 -108 -103 -108 -29 0 -48 17 -48 45 0 11 25 81 56 155 31 74 76
184 101 245 52 126 60 144 81 168 19 21 75 22 96 1z m2181 0 c18 -19 17 -25
-32 -144 -59 -142 -58 -128 -5 -119 64 11 74 11 67 0 -3 -5 3 -12 14 -16 10
-3 25 -20 32 -37 13 -31 7 -57 -36 -170 -6 -16 -1 -18 37 -18 24 0 49 -5 56
-12 18 -18 14 -56 -8 -78 -17 -17 -33 -20 -110 -20 -78 0 -93 3 -111 21 -24
24 -21 63 13 141 19 46 19 78 -1 78 -23 0 -56 -43 -99 -130 -51 -104 -76 -123
-129 -104 -22 8 -27 16 -25 35 3 34 219 549 239 572 20 21 76 22 98 1z m-4657
-5 c-2 -6 -8 -10 -13 -10 -5 0 -11 4 -13 10 -2 6 4 11 13 11 9 0 15 -5 13 -11z
m222 -36 c3 -3 8 -39 11 -81 5 -71 4 -80 -19 -110 -26 -36 -23 -53 5 -31 16
13 17 12 4 -3 -15 -21 -59 -24 -58 -5 1 40 -3 49 -17 38 -23 -19 -36 17 -30
80 10 107 13 117 37 122 22 4 57 -1 67 -10z m1239 -15 c-1 -24 -3 -27 -6 -10
-2 12 -9 22 -14 22 -6 0 -7 5 -4 10 13 21 25 9 24 -22z m-1386 -14 c6 -32 -7
-31 -21 1 -15 33 -15 36 2 29 8 -3 16 -16 19 -30z m1557 -22 l0 -48 40 4 c54
5 74 -12 67 -58 -3 -19 -8 -43 -12 -52 -6 -14 -2 -18 18 -18 33 0 51 -23 43
-55 -7 -27 -40 -45 -82 -45 -20 0 -30 -11 -54 -62 -17 -34 -30 -65 -30 -70 0
-4 15 -8 34 -8 54 0 66 -8 66 -46 0 -50 -28 -64 -125 -64 -91 0 -125 15 -125
56 0 13 15 62 34 109 30 74 32 85 17 85 -48 0 -53 50 -9 91 32 28 66 40 52 18
-4 -7 -1 -10 7 -7 8 3 15 14 17 26 4 25 -20 30 -93 21 -27 -4 -53 -4 -57 0
-12 11 15 92 29 87 7 -3 15 -1 18 4 4 6 26 10 50 10 41 0 45 -3 51 -27 3 -16
9 -37 14 -48 8 -16 8 -14 4 8 -8 36 5 137 17 137 5 0 9 -21 9 -48z m-1600 29
c0 -5 3 -18 6 -28 5 -16 4 -16 -10 1 -18 23 -20 36 -6 36 6 0 10 -4 10 -9z
m5657 -103 c-2 -18 -4 -4 -4 32 0 36 2 50 4 33 2 -18 2 -48 0 -65z m-266 -45
l25 -57 55 3 c47 2 59 -1 80 -23 37 -36 48 -84 37 -148 -12 -69 -51 -135 -94
-160 l-34 -20 -2 -86 c0 -48 -2 -161 -2 -252 -1 -91 -6 -183 -12 -205 -9 -37
-11 -39 -22 -19 -6 12 -9 24 -6 27 3 3 -2 17 -11 31 -9 14 -17 45 -17 70 -1
36 -7 52 -32 78 -17 19 -40 46 -51 61 -11 15 -27 30 -37 32 -32 11 -28 35 13
87 60 76 71 110 53 153 -8 19 -18 35 -23 35 -5 0 -35 -66 -67 -146 -61 -153
-84 -184 -133 -184 -32 0 -51 17 -51 45 0 20 40 123 139 362 29 70 42 115 40
140 -3 49 2 181 6 168 2 -5 6 -36 10 -67 7 -61 20 -75 31 -33 3 14 17 34 31
44 17 14 25 33 30 70 3 28 9 51 12 51 3 0 17 -26 32 -57z m-2223 -25 c13 -27
15 -28 97 -28 63 0 87 -4 100 -16 29 -29 -4 -84 -51 -84 -28 0 -94 -72 -94
-104 0 -29 16 -36 84 -36 57 0 76 -12 76 -47 0 -47 -32 -63 -125 -63 -131 0
-165 25 -165 118 0 40 6 57 30 87 17 21 27 41 24 44 -4 3 -11 -2 -18 -13 -31
-50 -49 -66 -76 -66 -28 0 -60 22 -60 42 0 14 69 170 83 186 6 7 25 12 46 10
28 -2 39 -9 49 -30z m1632 -72 c0 -17 -21 -2 -39 28 -30 47 -26 52 9 13 17
-19 30 -37 30 -41z m870 52 c0 -12 10 -41 21 -66 l22 -44 -32 -28 c-38 -36
-41 -27 -3 14 15 17 19 24 10 17 -14 -11 -20 -11 -31 1 -7 7 -12 19 -9 27 3 8
0 11 -7 7 -8 -5 -8 0 -1 19 6 15 10 37 10 51 0 13 5 24 10 24 6 0 10 -10 10
-22z m-4180 2 c0 -5 -7 -7 -15 -4 -8 4 -15 8 -15 10 0 2 7 4 15 4 8 0 15 -4
15 -10z m-317 -32 c8 -13 2 -36 -27 -102 -41 -91 -42 -122 -4 -111 34 10 43
22 82 115 20 47 46 93 58 103 23 20 78 23 96 5 18 -18 15 -36 -27 -133 l-39
-90 31 -3 c70 -6 77 -10 77 -47 0 -54 -30 -68 -132 -62 -46 3 -90 5 -98 5
-143 -5 -179 -2 -198 16 -38 34 -37 66 9 176 56 135 70 152 122 148 24 -2 44
-10 50 -20z m847 5 c74 -43 63 -153 -15 -153 -30 0 -37 5 -49 35 -8 19 -22 35
-30 35 -24 0 -67 -60 -64 -89 4 -37 40 -51 136 -51 78 0 83 -1 94 -25 9 -19 8
-29 -6 -49 -22 -34 -45 -38 -171 -34 l-107 3 -33 37 c-19 20 -37 53 -41 73
-14 76 43 181 118 218 44 22 132 22 168 0z m880 2 c63 -33 76 -117 24 -166
-21 -20 -38 -24 -112 -29 -76 -4 -84 -7 -65 -17 13 -8 58 -13 112 -13 112 0
121 -3 121 -46 0 -53 -26 -64 -153 -64 -154 0 -208 27 -221 113 -13 81 39 177
115 215 52 26 136 29 179 7z m2217 -27 c32 -32 37 -44 41 -95 3 -49 -1 -66
-25 -112 -40 -76 -66 -93 -156 -99 -88 -5 -139 9 -166 47 -48 67 -35 159 34
240 23 27 45 48 47 45 3 -2 16 0 29 6 13 5 54 9 92 7 63 -2 70 -5 104 -39z
m533 -169 c0 -5 -8 -9 -17 -8 -11 0 -13 3 -5 6 6 2 9 10 6 15 -4 7 -2 8 4 4 7
-4 12 -11 12 -17z m-2183 -21 c-3 -8 -6 -5 -6 6 -1 11 2 17 5 13 3 -3 4 -12 1
-19z m123 -112 c0 -12 -5 -7 -19 24 -11 24 -11 24 3 6 9 -11 16 -24 16 -30z
m1307 -98 c-2 -18 -4 -6 -4 27 0 33 2 48 4 33 2 -15 2 -42 0 -60z m-529 7 c-6
-14 -13 -23 -15 -21 -5 5 15 46 22 46 3 0 -1 -11 -7 -25z m284 -87 c4 -10 5
-18 3 -18 -8 0 -85 102 -85 113 0 13 72 -70 82 -95z m-322 5 c0 -71 -20 -96
-41 -50 -6 13 -20 27 -31 32 -31 14 -30 41 0 61 15 9 31 24 36 32 13 23 35
-23 36 -75z m350 -54 c0 -6 -4 -7 -10 -4 -5 3 -10 11 -10 16 0 6 5 7 10 4 6
-3 10 -11 10 -16z m190 -83 c-19 -32 -47 -52 -57 -42 -3 2 4 7 15 10 24 8 51
62 54 108 1 33 1 33 5 -5 3 -26 -2 -48 -17 -71z m-1865 34 c3 -5 1 -10 -4 -10
-6 0 -11 5 -11 10 0 6 2 10 4 10 3 0 8 -4 11 -10z m1192 -12 c15 -6 34 -10 41
-9 18 3 15 -13 -7 -33 -21 -19 -35 -8 -24 21 4 11 -4 6 -20 -12 -15 -16 -27
-33 -27 -37 0 -5 -5 -8 -12 -8 -6 0 -4 7 5 18 21 22 22 36 3 29 -11 -4 -11 -1
-2 19 6 13 12 24 13 24 1 0 14 -5 30 -12z m-47 -2 c0 -3 -4 -8 -10 -11 -5 -3
-10 -1 -10 4 0 6 5 11 10 11 6 0 10 -2 10 -4z m-1097 -13 c3 -5 8 -24 12 -43
l7 -35 -26 34 c-24 32 -26 51 -6 51 5 0 11 -3 13 -7z m-46 -40 c2 -6 -3 -13
-11 -16 -10 -4 -13 -1 -9 9 3 7 1 14 -5 14 -5 0 -13 7 -16 16 -6 15 -4 15 16
2 12 -8 23 -19 25 -25z m1183 -23 c0 -5 -4 -10 -10 -10 -5 0 -10 5 -10 10 0 6
5 10 10 10 6 0 10 -4 10 -10z m-1148 -56 c-2 -13 -14 -31 -26 -41 -21 -18 -21
-18 -3 3 9 11 17 38 18 60 0 28 2 34 8 20 4 -11 6 -30 3 -42z m1764 11 c-9
-14 -21 -25 -26 -25 -6 0 0 16 12 35 13 19 25 30 26 24 2 -5 -3 -21 -12 -34z
m-1873 -32 c-3 -7 -6 -13 -8 -13 -2 0 -5 6 -8 13 -3 8 1 14 8 14 7 0 11 -6 8
-14z m636 -17 c29 -30 31 -34 12 -29 -20 5 -51 38 -51 55 0 13 4 10 39 -26z
m-3821 -8 c17 -17 15 -74 -4 -92 -36 -37 -83 -1 -69 52 12 49 46 67 73 40z
m1868 -23 c4 -9 -14 -65 -40 -126 -25 -61 -46 -115 -46 -120 0 -5 9 -9 20 -9
25 0 38 -29 19 -41 -19 -12 -86 -11 -109 1 -12 6 -21 6 -25 1 -3 -6 -44 -10
-91 -9 -93 0 -124 15 -124 59 0 35 31 89 59 104 33 17 141 17 147 0 3 -6 -4
-35 -15 -63 l-21 -52 25 0 c14 0 28 0 33 -1 4 0 23 39 43 88 68 167 76 183 99
183 11 0 23 -7 26 -15z m2594 -3 c0 -10 -20 -68 -45 -130 -25 -61 -45 -114
-45 -117 0 -3 9 -5 20 -5 25 0 38 -29 19 -41 -18 -11 -168 -10 -190 1 -28 16
-32 57 -9 105 23 47 60 69 106 63 25 -3 30 2 52 57 30 74 38 85 68 85 16 0 24
-6 24 -18z m-1270 -57 c0 -5 -5 -3 -10 5 -5 8 -10 20 -10 25 0 6 5 3 10 -5 5
-8 10 -19 10 -25z m613 -22 c4 -7 19 -13 32 -13 16 0 25 -6 25 -15 0 -23 47
-19 53 5 3 11 10 20 16 20 9 0 9 -5 1 -20 -9 -17 -8 -20 10 -20 29 0 26 -38
-4 -50 -26 -9 -46 -38 -46 -64 0 -12 10 -16 34 -16 39 0 53 -14 36 -35 -8 -10
-31 -15 -61 -15 -38 0 -51 4 -63 22 -9 12 -16 30 -16 40 0 10 -9 18 -22 20
-29 4 -34 29 -14 70 9 17 16 32 16 33 0 1 -12 0 -26 -3 -20 -3 -26 0 -31 17
-3 11 -12 21 -19 21 -11 0 -10 4 4 18 14 15 22 16 42 8 14 -6 29 -16 33 -23z
m-1828 -3 c0 -20 -6 -26 -28 -28 -29 -4 -44 16 -33 44 4 10 15 14 33 12 22 -2
28 -8 28 -28z m143 -10 c-3 -20 0 -30 8 -30 20 0 27 -19 14 -35 -7 -8 -21 -15
-31 -15 -12 0 -24 -13 -34 -36 -19 -46 -20 -44 11 -44 21 0 25 -4 22 -22 -3
-20 -10 -23 -53 -26 -68 -4 -81 13 -54 75 18 43 18 46 2 58 -15 11 -15 15 -4
29 7 9 20 16 27 16 7 0 20 14 29 30 11 22 23 30 41 30 23 0 26 -3 22 -30z
m1290 0 c-3 -19 0 -30 8 -30 17 0 25 -25 11 -39 -6 -6 -19 -11 -30 -11 -11 0
-23 -13 -33 -35 -18 -45 -18 -45 12 -45 21 0 25 -4 22 -22 -3 -20 -10 -23 -53
-26 -36 -2 -52 1 -61 12 -10 14 -13 14 -23 2 -9 -11 -35 -15 -98 -14 -92 0
-123 15 -123 59 0 35 31 89 59 104 33 17 141 17 147 0 3 -6 -4 -35 -15 -63
-20 -51 -20 -52 -2 -52 11 0 26 -2 33 -5 10 -4 20 8 31 36 16 39 15 43 0 54
-15 11 -15 15 -4 29 7 9 20 16 27 16 7 0 20 14 29 30 11 22 23 30 41 30 23 0
26 -3 22 -30z m1590 0 c-3 -19 0 -30 8 -30 17 0 25 -25 11 -39 -6 -6 -19 -11
-30 -11 -11 0 -23 -13 -33 -35 -18 -45 -18 -45 12 -45 21 0 25 -4 22 -22 -3
-20 -10 -23 -53 -26 -37 -2 -52 1 -61 13 -11 15 -13 15 -22 -2 -9 -15 -21 -17
-74 -15 -80 3 -109 29 -106 96 2 38 6 45 40 64 42 25 86 28 112 9 13 -10 19
-28 20 -67 0 -29 6 -55 12 -57 6 -2 18 15 27 38 16 39 15 43 0 54 -15 11 -15
15 -4 29 7 9 21 16 30 16 9 0 22 13 28 30 9 23 17 30 38 30 25 0 27 -3 23 -30z
m131 -30 c1 -14 11 -36 21 -50 33 -47 35 -76 6 -105 -23 -23 -33 -26 -84 -23
-49 3 -57 6 -57 23 0 16 8 21 40 23 46 4 60 14 52 37 -6 13 -10 13 -27 3 -26
-16 -45 1 -36 34 19 74 77 114 85 58z m-3941 -16 c32 -22 28 -59 -18 -165 -22
-51 -40 -96 -40 -100 0 -4 10 -9 23 -11 14 -2 22 -10 22 -23 0 -17 -8 -20 -51
-23 -74 -4 -82 10 -49 89 14 34 25 64 25 66 0 2 -9 3 -19 3 -31 0 -51 28 -51
72 0 80 95 136 158 92z m148 3 c3 -8 -4 -34 -15 -60 -13 -30 -16 -49 -10 -53
15 -9 29 7 58 68 15 31 34 54 45 56 33 7 38 -12 17 -69 -12 -30 -21 -55 -21
-56 0 -2 12 -3 26 -3 21 0 25 -4 22 -22 -3 -22 -8 -23 -88 -25 -104 -3 -127 1
-135 26 -6 19 26 110 48 139 12 16 46 16 53 -1z m617 1 c2 -7 -4 -35 -14 -61
-23 -59 -24 -55 4 -59 14 -2 22 -10 22 -23 0 -17 -8 -20 -51 -23 -71 -4 -81
10 -54 79 12 30 28 64 36 77 16 24 50 30 57 10z m277 -7 c0 -10 -7 -35 -15
-54 -34 -82 -2 -75 40 9 21 42 36 60 53 62 36 5 37 -23 3 -103 -17 -41 -31
-77 -31 -79 0 -3 10 -6 23 -8 14 -2 22 -10 22 -23 0 -16 -8 -21 -35 -23 -30
-3 -39 -9 -58 -46 -36 -67 -103 -86 -156 -45 -28 22 -35 64 -16 99 12 22 60
40 114 41 40 1 40 1 10 8 -44 11 -54 19 -54 46 0 26 26 101 43 123 15 20 57
15 57 -7z m447 7 c8 -6 19 -6 32 1 32 18 69 13 85 -11 13 -18 13 -25 1 -56
-20 -46 -19 -50 8 -54 14 -2 22 -10 22 -23 0 -16 -8 -21 -39 -23 -22 -2 -50
-1 -64 3 -26 6 -26 20 -1 82 7 18 10 35 6 39 -12 12 -36 -16 -61 -72 -21 -45
-29 -54 -50 -54 -31 0 -33 16 -10 77 9 24 14 46 11 50 -11 11 -42 -24 -56 -64
-17 -49 -29 -63 -53 -63 -31 0 -31 24 2 103 l31 75 62 0 c34 0 67 -4 74 -10z
m321 -4 c28 -20 30 -69 3 -84 -11 -5 -36 -10 -56 -10 -22 0 -34 -4 -30 -10 3
-5 31 -10 61 -10 52 0 55 -2 52 -22 -3 -21 -10 -23 -62 -26 -103 -5 -141 28
-116 104 22 65 96 95 148 58z m744 -1 c35 -31 14 -128 -33 -153 -11 -6 -39
-10 -61 -8 l-42 3 -28 -69 c-15 -38 -33 -75 -39 -82 -13 -16 -45 -19 -54 -5
-7 13 102 286 127 318 14 17 109 15 130 -4z m413 -8 c29 -28 32 -63 10 -105
-19 -37 -43 -50 -92 -50 -58 0 -83 22 -83 74 0 23 6 49 13 58 42 52 113 63
152 23z m381 12 c3 -8 -4 -34 -15 -60 -13 -30 -16 -49 -10 -53 15 -9 29 7 58
68 18 37 33 54 49 56 32 5 36 -17 12 -72 -25 -59 -25 -56 6 -56 21 0 25 -4 22
-22 -3 -22 -8 -23 -106 -26 -101 -3 -102 -2 -114 23 -9 21 -7 34 12 78 13 28
28 58 33 65 12 16 46 16 53 -1z m842 -92 c7 -6 11 -72 12 -187 l0 -57 35 6
c31 5 35 3 35 -17 0 -13 -8 -24 -20 -27 -11 -3 -20 -9 -20 -13 0 -16 76 -20
150 -10 105 16 264 29 273 23 4 -2 7 -19 7 -37 0 -18 7 -41 15 -52 8 -10 15
-22 15 -26 0 -10 -125 -10 -169 -2 -40 8 -40 24 0 24 19 0 28 4 24 11 -4 5
-19 8 -33 4 -15 -3 -45 -7 -67 -9 -22 -2 -53 -9 -69 -15 -22 -9 -31 -9 -40 2
-6 7 -60 21 -121 31 -123 20 -138 26 -106 38 18 6 21 13 17 35 -9 39 -10 129
-2 141 3 6 2 13 -4 17 -13 8 -13 85 1 85 5 0 7 5 4 10 -3 6 -18 10 -33 10 -26
1 -27 1 -7 16 20 15 88 14 103 -1z m572 -85 c0 -13 -11 -13 -30 0 -12 8 -11
10 8 10 12 0 22 -4 22 -10z m-1494 -76 c10 -8 12 -12 4 -8 -10 5 -10 1 3 -12
18 -19 18 -19 36 4 13 18 25 23 52 20 31 -3 34 -6 37 -40 4 -48 5 -47 -191 -9
-147 29 -186 41 -134 41 14 0 29 5 32 10 10 17 138 12 161 -6z m462 -12 c6
-18 -15 -14 -22 4 -4 10 -1 14 6 12 6 -2 14 -10 16 -16z m1022 -53 c0 -11 -4
-17 -10 -14 -5 3 -10 13 -10 21 0 8 5 14 10 14 6 0 10 -9 10 -21z m-850 -3 c0
-8 7 -22 16 -31 30 -30 10 -46 -53 -43 -52 3 -58 5 -55 23 7 42 92 89 92 51z
m-4130 -216 c0 -13 -5 -18 -15 -14 -8 4 -15 12 -15 20 0 8 7 14 15 14 8 0 15
-9 15 -20z m47 -32 c-2 -13 -4 -5 -4 17 -1 22 1 32 4 23 2 -10 2 -28 0 -40z
m857 17 c9 -11 16 -26 16 -32 0 -16 5 -16 325 2 288 16 498 19 475 6 -17 -9
-91 -15 -445 -36 -255 -15 -632 -39 -807 -51 -82 -6 -98 -5 -98 8 0 11 45 17
243 32 283 20 338 29 228 36 -71 5 -105 22 -64 33 13 3 11 5 -7 6 -51 3 1 17
60 17 47 -1 62 -5 74 -21z m4190 -3 c2 -4 -12 -6 -32 -4 -62 6 -69 10 -20 11
26 0 49 -3 52 -7z m-3177 -8 c-3 -3 -12 -4 -19 -1 -8 3 -5 6 6 6 11 1 17 -2
13 -5z m-84 -11 c-7 -2 -21 -2 -30 0 -10 3 -4 5 12 5 17 0 24 -2 18 -5z m3416
-9 c8 -7 -63 -2 -94 7 -20 5 -9 6 30 2 33 -3 62 -7 64 -9z m-2492 -100 c-3 -3
-12 -4 -19 -1 -8 3 -5 6 6 6 11 1 17 -2 13 -5z m150 -20 c-3 -3 -12 -4 -19 -1
-8 3 -5 6 6 6 11 1 17 -2 13 -5z m42 -20 c8 -7 -114 -2 -139 6 -14 4 11 5 55
2 44 -2 82 -6 84 -8z m-3150 -8 c6 -4 15 -16 21 -26 10 -18 9 -19 -31 -5 -23
8 -46 12 -52 8 -6 -3 -7 -1 -3 5 5 9 -15 13 -71 14 -97 2 -101 2 -137 -3 -19
-3 -31 1 -34 10 -4 11 20 13 146 9 82 -3 155 -8 161 -12z m-342 -2 c-3 -3 -12
-4 -19 -1 -8 3 -5 6 6 6 11 1 17 -2 13 -5z m4029 -43 c98 -28 203 -59 483
-143 80 -24 135 -44 123 -46 -24 -4 -354 72 -517 119 -141 40 -274 87 -250 89
l20 1 -20 10 c-38 18 58 0 161 -30z m-1212 14 c9 -9 44 -22 78 -30 35 -7 79
-18 98 -24 19 -6 48 -11 63 -11 19 0 26 -4 21 -12 -5 -8 0 -9 17 -5 13 4 40 7
59 8 29 0 31 2 15 9 -35 15 24 12 78 -5 46 -14 64 -6 30 14 -14 8 -10 9 17 5
26 -4 31 -3 20 5 -13 9 -13 11 2 11 9 0 19 -4 23 -9 3 -6 26 -13 50 -17 25 -3
42 -10 39 -16 -3 -5 -14 -6 -24 -3 -10 3 -21 2 -24 -3 -3 -5 -20 -8 -38 -6
-22 3 -28 1 -19 -5 8 -5 20 -7 28 -4 7 3 13 -2 13 -11 0 -15 3 -15 30 -1 17 9
30 11 30 6 0 -19 -25 -25 -135 -36 -16 -1 -30 -3 -30 -4 0 -2 -81 -9 -152 -14
-18 -1 -33 -5 -33 -9 0 -14 -103 2 -129 19 -14 10 -39 19 -56 21 -31 4 -55 18
-55 33 0 24 -44 50 -88 54 -26 2 -60 8 -75 14 -34 13 -47 14 -47 2 0 -8 93
-52 140 -66 14 -4 36 -15 50 -25 14 -9 49 -28 77 -41 65 -29 78 -51 27 -43
-24 4 -41 1 -52 -9 -31 -26 -53 -27 -141 -11 -47 10 -97 18 -111 19 -85 4
-230 50 -230 73 0 5 -16 20 -35 33 -19 13 -33 29 -31 35 3 6 -1 17 -7 23 -20
20 5 31 51 20 24 -5 49 -6 55 -2 28 17 141 31 259 32 102 1 130 -2 142 -14z
m-627 -46 c15 -18 52 -43 83 -56 30 -13 64 -35 75 -48 12 -14 39 -28 65 -34
180 -39 210 -49 210 -72 0 -12 -43 -11 -76 1 -20 8 -36 8 -56 -1 -16 -6 -45
-12 -66 -12 -35 -1 -37 1 -37 29 0 56 -56 85 -85 44 -8 -11 -17 -15 -20 -10
-4 6 -18 6 -38 1 -20 -6 -30 -6 -27 0 12 19 -34 8 -71 -17 -21 -15 -65 -32
-96 -38 -58 -11 -69 -21 -45 -45 10 -10 7 -10 -15 0 -16 7 -28 17 -28 24 0 6
-13 24 -30 40 -16 15 -26 33 -22 39 9 16 2 60 -12 68 -18 12 -36 9 -33 -4 1
-8 -11 -14 -30 -16 -21 -2 -33 1 -33 9 0 9 -3 9 -15 -1 -15 -13 -39 -5 -30 11
4 5 -3 9 -14 9 -11 0 -22 -4 -25 -9 -3 -5 -18 -11 -33 -13 -23 -3 -28 0 -28
18 0 19 5 22 37 19 23 -2 38 2 42 10 3 9 -8 12 -47 8 l-52 -4 24 21 c26 23 51
26 69 8 9 -9 16 -8 30 5 10 9 22 14 26 10 4 -5 13 0 21 10 12 17 14 16 41 -6
30 -25 126 -43 118 -22 -10 24 106 66 164 60 21 -3 41 -15 59 -36z m63 21 c-8
-5 -19 -10 -25 -10 -5 0 -3 5 5 10 8 5 20 10 25 10 6 0 3 -5 -5 -10z m-682
-47 c-27 -4 -34 -12 -88 -87 -14 -20 -31 -36 -38 -36 -7 0 -11 -4 -7 -10 3 -5
-9 -7 -29 -5 -20 3 -66 -2 -103 -11 -76 -17 -218 -14 -268 7 l-30 12 40 8 c22
4 90 18 150 29 61 12 121 24 135 27 20 3 22 2 10 -6 -8 -6 -11 -11 -7 -11 14
0 81 31 97 45 23 21 90 43 130 42 28 0 30 -1 8 -4z m-979 -58 c-8 -7 -247 -26
-394 -30 -77 -2 -126 -2 -110 1 41 5 301 25 405 30 46 3 86 7 89 9 2 3 7 3 9
0 3 -3 3 -7 1 -10z m1261 -56 c0 -19 -114 -44 -190 -41 -63 1 -100 7 -100 14
0 7 8 9 51 12 9 1 23 7 33 15 13 11 22 11 40 3 18 -8 37 -8 73 1 50 13 93 11
93 -4z m-325 1 c-3 -5 -13 -10 -21 -10 -8 0 -12 5 -9 10 3 6 13 10 21 10 8 0
12 -4 9 -10z m365 -9 c0 -6 -4 -13 -10 -16 -5 -3 -10 1 -10 9 0 9 5 16 10 16
6 0 10 -4 10 -9z m2933 -52 c70 -17 126 -34 124 -36 -6 -5 -245 54 -272 67
l-20 10 20 -5 c11 -2 78 -18 148 -36z m-3283 -26 c31 -31 30 -43 -2 -43 -10 0
-18 -4 -18 -10 0 -15 -63 -29 -77 -17 -10 7 -13 3 -13 -18 0 -20 -4 -26 -15
-21 -8 3 -26 0 -40 -6 -28 -13 -45 -4 -27 14 16 16 15 28 -3 28 -9 0 -18 7
-21 15 -4 8 -16 15 -28 15 -20 -1 -21 -1 -2 -15 16 -12 18 -19 8 -39 -11 -24
-11 -24 -54 -9 -34 12 -70 13 -173 8 -71 -3 -138 -9 -148 -12 -14 -4 -18 0
-15 13 2 14 19 21 78 30 41 6 100 16 130 21 30 5 76 8 103 7 26 -2 45 1 42 6
-6 9 -263 5 -322 -5 -31 -6 -33 -4 -33 23 0 38 9 40 180 33 119 -5 139 -9 166
-28 30 -22 34 -22 74 -8 55 19 66 19 87 -5 13 -13 26 -17 41 -13 26 6 28 16 6
37 -8 9 -13 20 -9 25 10 18 56 4 85 -26z m1755 28 c8 -14 -13 -24 -33 -16 -14
5 -14 7 -2 15 19 12 27 12 35 1z m1481 -17 c42 -11 61 -20 53 -25 -8 -4 -10
-11 -6 -15 11 -11 -13 -34 -35 -34 -18 0 -87 65 -88 83 0 10 1 9 76 -9z
m-2579 -26 c-3 -7 -5 -2 -5 12 0 14 2 19 5 13 2 -7 2 -19 0 -25z m-117 2 c0
-5 -5 -10 -11 -10 -5 0 -7 5 -4 10 3 6 8 10 11 10 2 0 4 -4 4 -10z m2907 -6
c-3 -3 -12 -4 -19 -1 -8 3 -5 6 6 6 11 1 17 -2 13 -5z m-2191 -21 c-12 -12
-164 -32 -236 -31 -63 0 -64 0 -23 9 24 4 51 13 60 18 20 12 210 15 199 4z
m-1331 -112 c24 -6 11 -10 -65 -19 -225 -29 -480 -47 -480 -34 0 5 70 14 156
21 87 6 165 16 175 21 10 6 42 10 73 10 30 0 58 5 62 11 3 6 16 8 28 4 11 -4
35 -10 51 -14z m-875 -37 c0 -8 -4 -12 -10 -9 -5 3 -10 10 -10 16 0 5 5 9 10
9 6 0 10 -7 10 -16z m1980 -40 c47 0 135 -8 195 -18 66 -10 129 -14 158 -10
48 6 49 6 99 -46 27 -28 47 -54 44 -57 -3 -3 -13 0 -23 8 -11 9 -14 10 -9 2 9
-16 1 -16 -26 -2 -13 7 -23 8 -30 1 -10 -10 -78 22 -78 37 0 7 30 25 60 34 8
3 -10 6 -41 6 -31 1 -58 -1 -61 -5 -3 -3 -49 -7 -102 -9 -113 -6 -267 -35
-365 -70 -37 -14 -80 -25 -94 -25 -14 0 -38 -6 -54 -14 -15 -8 -62 -22 -103
-32 -41 -9 -80 -20 -85 -25 -6 -4 -39 -11 -75 -15 l-65 -7 25 20 c14 11 65 30
113 42 49 12 107 30 130 40 23 10 62 24 87 31 118 32 178 60 129 60 -14 0 -30
-5 -36 -11 -12 -12 -76 -28 -128 -33 -56 -5 -120 -18 -176 -36 -31 -10 -74
-21 -95 -24 -21 -4 -65 -14 -98 -22 -33 -9 -73 -13 -89 -10 -16 3 -41 3 -55
-1 -24 -6 -25 -7 -7 -15 15 -6 13 -7 -8 -3 -17 3 -45 -3 -75 -16 -77 -36 -183
-79 -243 -101 -54 -19 -57 -22 -63 -59 -4 -27 -13 -42 -27 -47 l-20 -8 20 -18
c12 -11 21 -26 21 -35 0 -13 2 -14 9 -2 6 10 3 20 -12 32 l-22 18 21 1 c28 0
38 -36 18 -64 -7 -11 -14 -15 -14 -8 0 8 -5 10 -12 6 -7 -5 -9 -2 -5 9 4 11 2
14 -9 10 -7 -3 -14 0 -14 7 0 6 -3 9 -7 7 -5 -3 -13 1 -20 8 -10 11 -10 15 0
18 8 4 7 6 -3 7 -15 1 -167 174 -203 230 -10 16 -16 34 -13 39 4 5 30 14 59
19 95 18 485 52 603 52 85 1 242 19 294 35 25 7 72 16 105 19 33 3 95 17 139
31 91 30 203 45 192 27 -5 -8 1 -12 15 -12 19 0 20 2 8 17 -13 15 -12 15 11 2
16 -9 57 -14 110 -15z m1035 -133 c-3 -6 -14 -11 -23 -11 -13 0 -13 2 4 14 21
15 30 14 19 -3z m-269 -56 c71 -29 33 -33 -246 -26 l-55 1 25 20 c14 10 43 21
65 23 64 7 173 -2 211 -18z m811 -37 c-15 -10 -154 -10 -160 0 -3 4 35 7 84 7
49 1 83 -3 76 -7z m-3052 -105 c58 -82 59 -96 2 -18 -24 33 -51 66 -60 74 -10
7 -17 18 -17 23 0 18 29 -13 75 -79z m1852 50 c61 -46 82 -125 47 -177 -11
-18 -12 -26 -3 -31 6 -4 15 -2 19 5 9 15 15 5 24 -36 l7 -31 -38 6 c-32 5 -39
11 -48 39 -9 33 -19 40 -30 22 -3 -5 -11 -10 -17 -10 -7 0 -5 7 4 18 21 24 29
52 21 65 -9 14 -10 19 -12 48 0 12 -14 34 -31 49 -16 15 -30 35 -30 43 0 9 -8
18 -17 21 -10 3 2 3 26 0 25 -3 57 -15 78 -31z m548 11 c19 -14 15 -15 -42
-12 -61 3 -71 12 -23 21 42 7 44 7 65 -9z m1265 -24 c0 -5 -8 -10 -17 -10 -15
0 -16 2 -3 10 19 12 20 12 20 0z m-1074 -87 c-9 -21 -12 -15 -20 32 l-6 40 16
-28 c8 -16 13 -36 10 -44z m923 51 c2 -2 -27 -4 -66 -4 -38 0 -73 -3 -77 -7
-10 -11 106 -32 124 -23 24 12 190 32 250 31 73 -3 78 -11 7 -11 -31 0 -76 -6
-99 -14 -63 -21 -148 -43 -191 -50 -23 -4 -35 -11 -31 -18 6 -10 42 -8 119 7
l30 6 -30 -15 -30 -14 50 -1 c38 -1 46 2 35 10 -11 8 -9 9 10 3 30 -8 155 -7
184 2 12 4 24 11 27 17 4 5 12 6 19 2 8 -5 -6 -16 -40 -30 -29 -12 -65 -34
-81 -49 -16 -15 -26 -21 -23 -12 5 13 -2 16 -37 17 -139 3 -236 9 -258 18 -49
18 -81 21 -234 25 -154 4 -217 13 -317 47 l-55 18 75 1 c41 0 156 10 255 21
305 36 365 39 384 23z m628 -20 c-3 -3 -12 -4 -19 -1 -8 3 -5 6 6 6 11 1 17
-2 13 -5z m-1406 -22 c-13 -2 -27 0 -32 5 -6 6 3 7 23 4 28 -4 29 -6 9 -9z
m1362 11 c-7 -2 -19 -2 -25 0 -7 3 -2 5 12 5 14 0 19 -2 13 -5z m-1449 -85 c0
-15 4 -25 8 -22 4 3 8 1 8 -3 0 -23 90 -47 205 -54 190 -12 237 -19 224 -35
-9 -12 -3 -14 32 -14 24 0 58 4 74 8 17 4 46 5 65 2 30 -6 32 -8 15 -15 -11
-5 -23 -13 -26 -18 -7 -10 -125 -11 -342 -2 -100 4 -162 3 -170 -3 -17 -14
-168 3 -288 34 -31 8 -84 14 -117 14 -34 0 -63 4 -66 9 -3 5 -36 14 -73 21
-93 18 -160 43 -184 68 -18 20 -18 22 -2 22 10 0 35 -5 56 -11 86 -23 411 -40
487 -25 59 12 66 16 51 25 -19 12 -3 33 22 29 17 -2 22 -10 21 -30z m1049 25
c-7 -2 -19 -2 -25 0 -7 3 -2 5 12 5 14 0 19 -2 13 -5z m-3603 -33 c12 -16 19
-30 16 -30 -2 0 -14 14 -26 30 -12 17 -19 30 -16 30 2 0 14 -13 26 -30z m2285
0 c-3 -5 -16 -10 -28 -9 -20 1 -20 2 3 9 14 4 26 8 28 9 2 1 0 -3 -3 -9z
m-1706 -88 c-18 -30 -33 -70 -36 -96 -4 -28 -10 -43 -16 -39 -6 4 -8 0 -4 -10
4 -12 1 -17 -11 -18 -16 -1 -16 -2 1 -6 9 -2 17 -13 17 -24 0 -11 -7 -19 -17
-19 -14 0 -15 -2 -4 -9 20 -13 4 -31 -27 -31 -21 0 -24 -2 -12 -10 11 -7 7
-10 -19 -10 -25 0 -32 4 -27 15 3 8 2 14 -2 12 -4 -1 -37 29 -74 68 -37 38
-70 66 -74 62 -4 -3 4 -16 17 -28 l24 -21 -24 14 c-14 8 -32 25 -40 39 -15 22
-15 23 2 10 15 -12 17 -11 17 3 0 9 -6 16 -14 16 -7 0 -16 8 -18 18 -4 14 3
22 28 31 23 8 34 19 34 32 0 10 1 19 3 20 6 3 302 35 305 33 1 -1 -11 -24 -29
-52z m2956 2 c-27 -7 -86 -16 -130 -19 -72 -4 -75 -3 -35 6 57 13 146 26 185
27 23 0 18 -3 -20 -14z m-445 -5 c11 -7 4 -8 -25 -3 -50 8 -58 14 -19 14 16 0
36 -5 44 -11z m-2210 -28 c-33 -28 -34 -28 -13 -39 12 -7 54 -17 95 -22 64
-10 81 -8 143 10 107 32 114 33 85 16 -23 -13 -210 -66 -233 -66 -5 0 -4 6 2
13 9 11 -5 16 -74 27 -57 9 -90 19 -101 32 -16 17 -16 18 7 19 13 0 44 8 69
19 25 10 47 18 50 19 2 1 -11 -12 -30 -28z m2370 19 c0 -5 -7 -10 -16 -10 -8
0 -12 5 -9 10 3 6 10 10 16 10 5 0 9 -4 9 -10z m-1357 -32 c-2 -5 -2 -8 1 -8
2 0 12 -3 22 -7 13 -5 15 -3 9 7 -6 10 -4 12 9 7 10 -4 22 -7 27 -7 6 0 8 -4
4 -9 -3 -5 0 -13 6 -17 8 -4 9 -3 5 4 -9 15 5 15 41 0 15 -6 33 -12 38 -14 6
-1 44 -14 85 -29 41 -14 89 -30 105 -35 90 -26 90 -29 5 -23 -47 3 -88 10 -91
14 -3 5 -33 12 -67 15 -34 4 -62 11 -62 15 0 5 -3 8 -7 7 -5 -1 -27 2 -51 6
-29 5 -42 12 -38 21 7 19 -38 24 -92 10 l-47 -12 40 -8 c22 -5 43 -8 47 -7 3
1 9 -5 12 -13 7 -19 -10 -19 -62 -1 -22 8 -43 12 -46 9 -8 -8 -46 27 -46 42 0
7 8 19 18 26 15 13 16 12 4 -3 -11 -13 -11 -21 -2 -35 10 -15 11 -15 6 -1 -2
9 2 22 10 29 12 10 13 9 9 -7 -4 -10 1 -7 9 7 13 23 22 26 60 25 24 0 42 -4
39 -8z m2282 -26 c-14 -12 -149 -36 -166 -29 -8 3 2 6 21 7 19 1 51 7 70 14
40 16 89 20 75 8z m-281 -39 c3 -4 -19 -15 -51 -24 -31 -10 -59 -16 -61 -14
-5 5 35 26 67 36 35 10 37 10 45 2z m-474 -13 c-8 -5 -19 -10 -25 -10 -5 0 -3
5 5 10 8 5 20 10 25 10 6 0 3 -5 -5 -10z m81 -6 c-18 -8 -43 -13 -55 -11 -14
2 -7 7 24 14 62 15 71 14 31 -3z m-981 -11 c-19 -8 -57 -16 -85 -17 -27 -1
-58 -6 -68 -10 -10 -5 -21 -6 -24 -3 -9 10 44 27 85 28 20 1 48 5 62 9 46 15
68 10 30 -7z m125 -2 c12 -5 -5 -8 -45 -8 -43 0 -58 2 -45 8 25 10 64 10 90 0z
m155 -10 c-19 -4 -46 -11 -60 -14 -14 -4 -19 -4 -12 -1 6 3 10 10 6 15 -3 5
18 8 48 8 48 -1 50 -2 18 -8z m600 -1 c-13 -9 -13 -10 0 -10 34 -1 -15 -18
-86 -31 -41 -7 -73 -18 -73 -23 4 -34 -1 -38 -27 -21 -25 16 -27 16 -41 -4
-16 -23 -34 -28 -30 -9 3 19 -39 21 -65 4 -21 -14 -29 -14 -80 2 -51 16 -55
19 -38 30 11 7 27 12 37 12 15 0 15 -1 -2 -14 -17 -12 -15 -14 19 -20 46 -9
73 -1 81 25 7 21 20 25 30 9 8 -14 38 -13 52 1 7 7 27 13 45 15 69 7 123 17
134 25 6 5 16 3 23 -4 7 -6 12 -7 11 -2 -4 18 0 25 13 25 8 0 7 -4 -3 -10z
m-1675 -10 c-3 -5 -21 -9 -38 -9 l-32 2 35 7 c19 4 36 8 38 9 2 0 0 -3 -3 -9z
m1185 0 c13 -9 13 -10 0 -10 -8 0 -28 -11 -45 -25 l-30 -24 32 -1 c17 0 34 -4
37 -9 3 -4 -49 -7 -117 -4 -67 2 -178 4 -247 5 -120 1 -167 9 -155 28 3 4 -1
11 -7 14 -7 3 -4 4 7 3 11 -2 19 -7 18 -13 -1 -5 49 -10 115 -11 65 -1 155 -4
202 -6 83 -3 117 5 133 31 4 6 16 12 25 12 15 0 15 2 2 10 -13 9 -13 10 0 10
8 0 22 -5 30 -10z m147 -6 c-3 -3 -12 -4 -19 -1 -8 3 -5 6 6 6 11 1 17 -2 13
-5z m-2731 -20 c-3 -8 -2 -13 3 -10 5 3 15 -2 22 -12 13 -15 12 -16 -3 -3 -14
10 -18 11 -18 1 0 -9 -7 -7 -20 5 -16 14 -17 20 -8 27 20 12 31 9 24 -8z
m1321 10 c-3 -3 -12 -4 -19 -1 -8 3 -5 6 6 6 11 1 17 -2 13 -5z m1053 -4 c-8
-5 -33 -9 -55 -9 l-40 2 35 7 c19 4 44 8 55 9 16 0 17 -1 5 -9z m303 3 c-7 -2
-19 -2 -25 0 -7 3 -2 5 12 5 14 0 19 -2 13 -5z m-965 -53 c23 -6 40 -15 37
-20 -6 -11 -49 -7 -80 6 -22 10 -33 36 -12 29 6 -2 31 -9 55 -15z m2145 -37
c-7 -2 -21 -2 -30 0 -10 3 -4 5 12 5 17 0 24 -2 18 -5z m-3693 -23 c-8 -5 -18
-6 -24 -3 -5 4 -1 10 10 13 24 9 34 2 14 -10z m1088 -2 c2 -12 -3 -18 -13 -18
-13 0 -15 -3 -7 -12 5 -8 6 -22 1 -33 -11 -28 -11 -37 0 -30 6 3 28 -14 50
-37 22 -24 35 -46 29 -49 -5 -4 5 -12 24 -19 31 -11 31 -12 12 -20 -14 -6 -21
-17 -21 -34 0 -16 4 -23 11 -19 8 5 7 2 -1 -8 -11 -14 -6 -36 21 -101 10 -21
-41 -37 -99 -31 -65 7 -74 14 -35 27 l34 13 -33 6 c-19 4 -39 3 -45 -1 -6 -4
-40 0 -76 9 -36 9 -58 18 -50 18 31 2 90 22 90 30 0 9 -70 -3 -100 -16 -24
-10 -50 -11 -50 -2 0 5 -11 9 -25 9 -17 0 -45 19 -87 60 -154 150 -195 183
-210 174 -8 -5 -4 -10 10 -15 12 -5 26 -19 31 -32 12 -30 41 -56 41 -36 0 11
2 11 9 -1 6 -8 7 -18 5 -22 -3 -4 -1 -8 5 -8 6 0 16 -10 22 -22 11 -22 11 -22
-17 2 -67 59 -192 194 -174 188 8 -3 49 -1 90 3 41 5 156 16 255 24 99 9 182
18 184 21 3 3 30 4 61 2 43 -2 56 -7 58 -20z m2387 -4 c-88 -13 -214 -30 -280
-39 -112 -14 -272 -41 -304 -51 -35 -11 3 -13 73 -3 89 12 111 6 41 -12 -27
-7 -42 -15 -35 -19 13 -8 -11 -20 -38 -19 -14 0 -13 2 3 9 19 8 19 9 -2 9 -12
1 -29 -2 -38 -5 -13 -6 -14 -9 -3 -16 9 -7 8 -8 -5 -4 -10 3 -27 2 -37 -4 -37
-20 -300 -7 -265 13 10 5 43 7 74 4 34 -3 48 -2 36 3 -12 5 -14 9 -6 9 8 1 12
3 9 6 -5 5 -393 -41 -413 -49 -5 -3 19 -5 55 -5 60 -1 63 -2 43 -16 -14 -10
-20 -22 -16 -37 4 -18 3 -20 -6 -8 -9 13 -14 13 -32 2 -26 -16 -159 -32 -159
-19 0 5 -7 4 -15 -3 -9 -8 -15 -9 -15 -2 0 6 5 14 10 17 6 4 8 10 5 15 -3 5 6
17 20 28 l24 19 -37 16 -37 15 92 1 c126 1 378 28 488 51 50 10 149 26 220 35
72 8 245 30 385 49 140 19 271 34 290 34 19 0 -37 -11 -125 -24z m-1861 7 c3
-4 -6 -6 -19 -3 -14 2 -25 6 -25 8 0 8 39 4 44 -5z m56 -26 c14 -8 21 -14 15
-14 -5 0 -21 6 -35 14 -14 8 -20 14 -15 14 6 0 21 -6 35 -14z m-1680 -5 c0 -5
-5 -10 -11 -10 -5 0 -7 5 -4 10 3 6 8 10 11 10 2 0 4 -4 4 -10z m463 -62 c56
-60 65 -74 51 -81 -11 -6 -21 -4 -32 7 -11 10 -12 16 -4 16 7 0 12 5 12 10 0
7 -6 7 -19 1 -14 -8 -23 -6 -36 9 -10 11 -13 20 -7 20 6 0 12 -5 14 -11 2 -6
12 -10 22 -8 17 4 16 5 -5 15 -13 6 -37 15 -53 20 -16 5 -31 15 -32 22 -1 7 0
8 3 2 2 -5 9 -7 14 -4 9 5 -32 44 -47 44 -4 0 1 -7 12 -15 10 -8 15 -14 9 -14
-16 0 -45 25 -38 32 3 4 20 7 37 7 25 0 43 -13 99 -72z m-213 58 c0 -2 -7 -6
-15 -10 -8 -3 -15 -1 -15 4 0 6 7 10 15 10 8 0 15 -2 15 -4z m50 -6 c0 -13
-11 -13 -30 0 -12 8 -11 10 8 10 12 0 22 -4 22 -10z m-265 -18 c-3 -3 0 -11 6
-19 6 -7 7 -13 3 -13 -5 0 -14 8 -21 18 -9 15 -8 19 3 19 8 0 12 -3 9 -5z
m220 -2 c-25 -11 -58 -12 -51 -2 2 4 19 8 38 9 27 2 29 0 13 -7z m54 -16 c-26
-13 -35 -12 -24 5 3 6 11 9 16 6 5 -4 9 -1 9 5 0 6 5 8 11 4 8 -4 3 -11 -12
-20z m-174 6 c3 -5 -1 -10 -10 -10 -9 0 -13 5 -10 10 3 6 8 10 10 10 2 0 7 -4
10 -10z m-55 -4 c0 -3 -4 -8 -10 -11 -5 -3 -10 -1 -10 4 0 6 5 11 10 11 6 0
10 -2 10 -4z m190 0 c0 -2 -7 -7 -16 -10 -8 -3 -12 -2 -9 4 6 10 25 14 25 6z
m-65 -16 c-3 -5 -12 -10 -18 -10 -7 0 -6 4 3 10 19 12 23 12 15 0z m2472 4
c-3 -3 -12 -4 -19 -1 -8 3 -5 6 6 6 11 1 17 -2 13 -5z m-2544 -11 c-7 -2 -21
-2 -30 0 -10 3 -4 5 12 5 17 0 24 -2 18 -5z m137 4 c0 -2 -10 -12 -22 -23 -12
-10 -18 -13 -13 -5 6 10 2 12 -16 7 -20 -6 -21 -5 -6 4 9 6 21 9 26 5 5 -3 12
-1 16 5 6 10 15 14 15 7z m1539 -13 c11 -11 -7 -10 -34 3 l-30 14 30 -6 c16
-4 32 -9 34 -11z m-1725 -10 c4 -9 13 -14 22 -10 8 3 12 2 9 -4 -10 -16 -29
-12 -48 10 -13 15 -14 20 -3 20 8 0 17 -7 20 -16z m1556 -5 c0 -6 -4 -7 -10
-4 -5 3 -10 11 -10 16 0 6 5 7 10 4 6 -3 10 -11 10 -16z m290 11 c13 -9 13
-10 0 -10 -8 0 -22 5 -30 10 -13 9 -13 10 0 10 8 0 22 -5 30 -10z m-1553 -15
c0 -8 -4 -12 -9 -9 -5 3 -6 10 -3 15 9 13 12 11 12 -6z m1749 -26 c8 -13 -21
1 -51 26 -19 15 -18 15 12 1 17 -9 35 -21 39 -27z m961 25 c-3 -3 -12 -4 -19
-1 -8 3 -5 6 6 6 11 1 17 -2 13 -5z m-2797 -19 c-7 -8 -17 -15 -23 -15 -6 0
-2 7 9 15 25 19 30 19 14 0z m1795 -55 c3 -5 2 -10 -4 -10 -5 0 -13 5 -16 10
-3 6 -2 10 4 10 5 0 13 -4 16 -10z m-1400 -70 c10 -11 16 -20 13 -20 -3 0 -13
9 -23 20 -10 11 -16 20 -13 20 3 0 13 -9 23 -20z m155 -80 c0 -5 3 -9 8 -9 29
5 62 -3 56 -12 -4 -7 -21 -9 -45 -5 -27 4 -39 3 -39 -6 0 -9 -3 -9 -11 -1 -8
8 -8 15 2 27 16 18 29 20 29 6z m627 -86 c-3 -3 -12 -4 -19 -1 -8 3 -5 6 6 6
11 1 17 -2 13 -5z"/>
<path d="M3171 5214 c0 -11 3 -14 6 -6 3 7 2 16 -1 19 -3 4 -6 -2 -5 -13z"/>
<path d="M3171 5054 c0 -11 3 -14 6 -6 3 7 2 16 -1 19 -3 4 -6 -2 -5 -13z"/>
<path d="M3892 4375 c0 -16 2 -22 5 -12 2 9 2 23 0 30 -3 6 -5 -1 -5 -18z"/>
<path d="M1106 3796 c-4 -24 -14 -50 -23 -58 -14 -11 -15 -10 -8 11 5 16 4 21
-4 17 -6 -4 -11 -15 -11 -24 0 -9 -7 -26 -15 -36 -22 -28 -19 -36 14 -36 36 0
79 34 97 76 18 44 18 50 -6 74 -29 29 -37 25 -44 -24z"/>
<path d="M973 3543 c-4 -10 -26 -67 -50 -127 -23 -61 -41 -112 -38 -114 2 -2
29 -1 59 2 98 13 166 80 166 165 0 25 -4 51 -8 57 -23 35 -118 47 -129 17z"/>
<path d="M522 3178 c-31 -15 -39 -54 -17 -78 26 -28 50 -33 83 -16 31 16 92
80 92 96 0 14 -129 11 -158 -2z"/>
<path d="M4424 3820 c-23 -12 -46 -32 -52 -45 l-12 -25 63 0 c95 0 141 34 102
74 -22 21 -51 20 -101 -4z"/>
<path d="M4290 3547 c0 -18 -10 -34 -30 -49 -26 -19 -30 -28 -30 -67 0 -46
-14 -147 -25 -182 -5 -14 0 -22 22 -30 85 -32 199 85 176 181 -9 38 -14 43
-27 24 -11 -15 -12 -13 -8 15 3 23 -3 42 -23 71 -41 59 -55 68 -55 37z"/>
<path d="M4181 3433 c-37 -45 -47 -89 -32 -136 11 -34 35 -54 45 -39 6 11 27
204 22 209 -2 2 -18 -13 -35 -34z"/>
<path d="M5752 3567 c-6 -6 -20 -35 -31 -64 -17 -44 -18 -53 -6 -63 19 -15 52
-4 71 25 24 37 35 87 23 102 -14 16 -43 17 -57 0z"/>
<path d="M3125 3560 l-20 -22 35 4 c23 2 35 8 35 18 0 23 -29 23 -50 0z"/>
<path d="M5303 3542 c-12 -9 -27 -29 -32 -45 -9 -23 -7 -31 10 -48 35 -35 99
3 99 60 0 49 -36 65 -77 33z"/>
<path d="M1657 2652 c-21 -23 -23 -72 -2 -72 16 0 31 24 36 59 5 31 -12 37
-34 13z"/>
<path d="M4377 2642 c-21 -23 -22 -62 -2 -62 17 0 49 56 40 70 -9 15 -20 12
-38 -8z"/>
<path d="M3227 2652 c-22 -24 -23 -72 -2 -72 15 0 30 27 37 65 4 25 -15 29
-35 7z"/>
<path d="M4844 2625 c-10 -25 4 -45 31 -45 17 0 25 5 25 18 0 36 -45 57 -56
27z"/>
<path d="M1206 2641 c-21 -23 -18 -54 5 -59 18 -3 45 50 34 67 -9 16 -20 14
-39 -8z"/>
<path d="M2220 2455 c-14 -17 -6 -45 13 -45 13 0 36 21 51 48 11 18 -48 16
-64 -3z"/>
<path d="M3035 2650 c-3 -5 1 -10 9 -10 9 0 16 5 16 10 0 6 -4 10 -9 10 -6 0
-13 -4 -16 -10z"/>
<path d="M3750 2638 c-24 -40 -25 -47 -3 -55 21 -8 55 33 51 60 -5 33 -26 31
-48 -5z"/>
<path d="M4167 2642 c-37 -41 -3 -83 35 -45 14 14 18 27 13 42 -8 26 -27 27
-48 3z"/>
<path d="M2285 1849 c-11 -17 1 -21 15 -4 8 9 8 15 2 15 -6 0 -14 -5 -17 -11z"/>
<path d="M2474 1708 c3 -13 6 -26 6 -29 0 -7 98 25 108 36 4 4 -12 5 -35 2
-24 -3 -43 -1 -43 4 0 5 -10 9 -21 9 -17 0 -20 -4 -15 -22z"/>
<path d="M5030 1050 c20 -13 40 -13 40 0 0 6 -12 10 -27 10 -22 0 -25 -2 -13
-10z"/>
<path d="M4555 1040 c3 -5 17 -10 31 -10 13 0 24 5 24 10 0 6 -14 10 -31 10
-17 0 -28 -4 -24 -10z"/>
<path d="M4831 1043 c-26 -3 -31 -7 -20 -14 15 -10 -69 -6 -135 6 -21 4 -36 3
-36 -3 0 -9 85 -22 200 -28 72 -4 96 11 53 33 -14 7 -26 12 -27 11 0 0 -16 -3
-35 -5z"/>
<path d="M5277 969 c7 -7 15 -10 18 -7 3 3 -2 9 -12 12 -14 6 -15 5 -6 -5z"/>
<path d="M3680 972 c0 -5 16 -13 35 -19 30 -10 50 -2 28 10 -19 10 -63 17 -63
9z"/>
<path d="M3808 933 c6 -2 18 -2 25 0 6 3 1 5 -13 5 -14 0 -19 -2 -12 -5z"/>
<path d="M4058 923 c7 -3 16 -2 19 1 4 3 -2 6 -13 5 -11 0 -14 -3 -6 -6z"/>
<path d="M4090 920 c0 -5 7 -10 16 -10 8 0 12 5 9 10 -3 6 -10 10 -16 10 -5 0
-9 -4 -9 -10z"/>
<path d="M4138 908 c5 -5 67 -11 138 -13 90 -3 124 -1 111 6 -23 13 -262 20
-249 7z"/>
<path d="M4428 893 c6 -2 18 -2 25 0 6 3 1 5 -13 5 -14 0 -19 -2 -12 -5z"/>
<path d="M4481 896 c9 -9 99 -14 99 -5 0 5 -23 9 -52 9 -28 0 -49 -2 -47 -4z"/>
<path d="M4590 880 c0 -5 9 -10 21 -10 11 0 17 5 14 10 -3 6 -13 10 -21 10 -8
0 -14 -4 -14 -10z"/>
<path d="M2175 790 c3 -5 11 -10 16 -10 6 0 7 5 4 10 -3 6 -11 10 -16 10 -6 0
-7 -4 -4 -10z"/>
<path d="M2138 763 c7 -3 16 -2 19 1 4 3 -2 6 -13 5 -11 0 -14 -3 -6 -6z"/>
<path d="M2175 660 c3 -5 8 -10 11 -10 2 0 4 5 4 10 0 6 -5 10 -11 10 -5 0 -7
-4 -4 -10z"/>
<path d="M3750 788 c-12 -8 -12 -9 3 -4 9 3 17 1 17 -4 0 -6 12 -9 28 -9 20 1
22 2 7 6 -11 3 -25 9 -30 14 -6 4 -17 3 -25 -3z"/>
<path d="M2665 550 c-3 -5 1 -10 9 -10 9 0 15 -4 14 -9 -4 -13 16 -15 20 -2 5
14 -35 34 -43 21z"/>
<path d="M2745 550 c-16 -4 -25 -9 -20 -10 6 -1 15 -3 20 -5 6 -1 17 -3 25 -4
11 -2 10 -5 -5 -11 -16 -7 -11 -9 22 -9 23 -1 45 4 48 9 3 6 16 10 28 10 16 0
18 3 10 11 -14 14 -87 19 -128 9z"/>
<path d="M3123 303 c9 -2 23 -2 30 0 6 3 -1 5 -18 5 -16 0 -22 -2 -12 -5z"/>
<path d="M5018 493 c7 -3 16 -2 19 1 4 3 -2 6 -13 5 -11 0 -14 -3 -6 -6z"/>
<path d="M4928 483 c7 -3 16 -2 19 1 4 3 -2 6 -13 5 -11 0 -14 -3 -6 -6z"/>
<path d="M2595 520 c-3 -5 -1 -10 4 -10 6 0 11 5 11 10 0 6 -2 10 -4 10 -3 0
-8 -4 -11 -10z"/>
<path d="M2685 440 c3 -5 8 -10 11 -10 2 0 4 5 4 10 0 6 -5 10 -11 10 -5 0 -7
-4 -4 -10z"/>
<path d="M6356 3835 c7 -43 32 -111 38 -104 2 2 -7 36 -20 74 -17 51 -22 59
-18 30z"/>
<path d="M6277 3813 c-11 -10 -8 -73 3 -73 6 0 10 18 10 40 0 41 -2 45 -13 33z"/>
<path d="M6350 3605 c-13 -15 -13 -15 35 -30 22 -6 18 18 -4 32 -15 10 -22 9
-31 -2z"/>
<path d="M6275 3589 c-4 -5 -19 -7 -34 -4 -19 4 -32 1 -41 -10 -12 -15 -8 -16
42 -12 63 4 88 15 67 28 -18 12 -27 11 -34 -2z"/>
<path d="M6131 3576 c-10 -12 -6 -46 5 -46 2 0 12 8 23 19 17 17 17 19 0 29
-13 8 -20 8 -28 -2z"/>
<path d="M6270 3478 c0 -7 5 -20 10 -28 8 -12 10 -11 10 7 0 12 -4 25 -10 28
-5 3 -10 0 -10 -7z"/>
<path d="M6375 3477 c-19 -15 -13 -37 11 -37 8 0 14 10 14 25 0 29 0 29 -25
12z"/>
<path d="M6280 3372 c0 -5 -9 -13 -20 -18 -15 -7 -17 -13 -10 -24 9 -13 12
-13 21 3 5 9 19 17 31 17 17 0 18 2 8 15 -14 16 -30 20 -30 7z"/>
<path d="M6215 3360 c-3 -5 -1 -10 4 -10 6 0 11 5 11 10 0 6 -2 10 -4 10 -3 0
-8 -4 -11 -10z"/>
<path d="M6361 3367 c2 -1 13 -9 24 -17 19 -14 19 -14 6 3 -7 9 -18 17 -24 17
-6 0 -8 -1 -6 -3z"/>
<path d="M6116 3341 c-4 -7 -5 -15 -2 -18 9 -9 19 4 14 18 -4 11 -6 11 -12 0z"/>
<path d="M6241 3219 c0 -9 -11 -24 -23 -32 -13 -9 -18 -16 -13 -16 21 -1 47
28 42 46 -4 14 -5 15 -6 2z"/>
<path d="M6372 3213 c-18 -32 -16 -51 4 -31 9 8 14 24 12 34 -4 18 -5 17 -16
-3z"/>
<path d="M6120 3196 c0 -19 19 -31 31 -19 5 5 0 14 -11 21 -17 10 -20 10 -20
-2z"/>
<path d="M6270 3190 c0 -13 28 -25 38 -16 3 4 0 11 -8 16 -20 13 -30 12 -30 0z"/>
<path d="M6202 3105 c-7 -14 -17 -17 -41 -12 -28 6 -31 4 -31 -19 0 -23 1 -24
16 -10 8 9 31 16 50 16 35 0 40 5 25 29 -7 11 -11 10 -19 -4z"/>
<path d="M6357 3105 c-6 -14 -23 -15 -44 -2 -7 5 -13 4 -13 -2 0 -5 5 -13 11
-17 8 -5 10 -37 7 -102 -5 -83 -4 -93 8 -77 14 19 15 18 30 -3 8 -12 20 -20
26 -16 5 4 -1 18 -17 34 -24 25 -26 33 -23 96 3 67 4 69 31 74 26 5 26 6 8 17
-15 10 -20 9 -24 -2z"/>
<path d="M6150 2910 c20 -13 33 -13 25 0 -3 6 -14 10 -23 10 -15 0 -15 -2 -2
-10z"/>
<path d="M6210 2910 c0 -5 5 -10 10 -10 6 0 10 5 10 10 0 6 -4 10 -10 10 -5 0
-10 -4 -10 -10z"/>
<path d="M6160 2837 c0 -10 9 -30 21 -46 l20 -28 31 29 c21 19 28 32 21 39 -7
7 -14 5 -23 -6 -18 -21 -36 -19 -54 7 -14 19 -16 20 -16 5z"/>
</g>
</svg>
