<?xml version="1.0" standalone="no"?>
<!DOCTYPE svg PUBLIC "-//W3C//DTD SVG 20010904//EN"
 "http://www.w3.org/TR/2001/REC-SVG-20010904/DTD/svg10.dtd">
<svg version="1.0" xmlns="http://www.w3.org/2000/svg"
 width="400.000000pt" height="400.000000pt" viewBox="0 0 400.000000 400.000000"
 preserveAspectRatio="xMidYMid meet">
<metadata>
Created by potrace 1.14, written by Peter Selinger 2001-2017
</metadata>
<g transform="translate(0.000000,400.000000) scale(0.100000,-0.100000)"
fill="#000000" stroke="none">
<path d="M2216 3989 c3 -6 -2 -17 -12 -25 -11 -9 -13 -13 -6 -9 6 3 15 -1 18
-10 5 -12 9 -13 20 -4 11 9 14 7 14 -12 0 -22 0 -22 15 -3 8 11 14 14 15 6 0
-7 10 -17 23 -23 21 -9 20 -9 -5 -6 -16 3 -28 0 -28 -4 0 -5 5 -9 11 -9 5 0 7
-6 3 -12 -13 -20 -15 -80 -3 -94 7 -8 6 -14 -3 -17 -8 -4 -9 -8 -3 -14 6 -4
11 -36 12 -70 2 -61 1 -63 -22 -63 -16 0 -25 6 -25 15 0 8 -7 15 -15 15 -11 0
-14 -7 -9 -24 7 -29 -11 -35 -97 -30 -57 3 -67 7 -91 35 -16 17 -28 28 -29 23
0 -5 -2 -32 -4 -61 -3 -39 0 -57 12 -69 12 -12 13 -18 4 -23 -6 -4 -9 -15 -6
-23 6 -15 10 -15 41 -2 20 9 34 10 35 4 0 -5 1 -27 1 -47 0 -21 5 -45 9 -55 7
-13 2 -17 -30 -23 -41 -7 -62 -31 -36 -41 8 -4 13 -10 10 -14 -3 -4 2 -11 11
-14 8 -3 13 -10 10 -15 -3 -4 8 -19 24 -31 23 -18 27 -26 19 -36 -9 -11 -8
-14 5 -14 9 0 16 -5 16 -10 0 -6 12 -15 28 -21 19 -8 23 -13 12 -17 -8 -3 -20
-12 -26 -21 -10 -13 -14 -13 -28 -2 -14 11 -16 11 -16 -3 0 -9 8 -16 19 -16
10 0 22 -7 25 -16 3 -8 10 -12 16 -9 5 3 10 -1 10 -10 0 -12 -6 -15 -20 -10
-15 5 -20 2 -20 -11 0 -16 -1 -16 -19 0 -25 23 -32 9 -15 -31 11 -25 18 -30
35 -26 16 4 18 8 7 14 -11 7 -10 11 2 19 21 14 33 8 35 -18 1 -14 -8 -28 -24
-38 l-25 -17 25 -10 24 -9 -22 -9 c-13 -4 -23 -13 -23 -19 0 -5 -7 -10 -15
-10 -13 0 -14 -4 -5 -20 6 -11 7 -20 2 -20 -4 0 -8 -9 -8 -19 0 -13 6 -18 18
-16 10 2 18 -2 18 -10 0 -9 6 -12 15 -9 10 4 15 0 15 -10 0 -10 -13 -22 -30
-27 -16 -6 -30 -15 -30 -21 0 -5 -5 -6 -11 -2 -16 9 -29 -17 -19 -36 11 -20 1
-35 -27 -42 -17 -5 -23 -2 -23 10 0 15 -2 15 -10 2 -9 -13 -11 -13 -21 0 -8
12 -9 9 -5 -12 5 -21 3 -28 -9 -28 -10 0 -15 -10 -15 -31 0 -17 4 -28 10 -24
6 3 10 1 10 -5 0 -7 -8 -9 -19 -5 -29 9 -70 -12 -77 -40 -3 -14 -9 -25 -13
-25 -17 0 -18 13 -5 38 19 37 18 44 -6 30 -12 -8 -15 -15 -8 -19 11 -7 3 -29
-12 -29 -14 0 -21 32 -9 47 7 7 9 17 5 21 -4 4 -16 -4 -26 -18 -11 -14 -20
-21 -20 -16 0 5 -7 3 -15 -4 -15 -13 -21 -61 -7 -59 19 3 23 -2 12 -16 -9 -10
-17 -12 -30 -5 -13 7 -21 6 -29 -4 -9 -10 -6 -13 11 -13 63 -1 74 -3 57 -13
-10 -6 -15 -20 -14 -34 2 -18 -1 -23 -11 -19 -10 4 -12 0 -8 -11 5 -12 2 -15
-12 -9 -12 4 -15 3 -10 -5 4 -7 4 -12 -1 -12 -12 0 -39 20 -28 20 6 0 16 14
22 30 6 17 7 30 2 30 -5 0 -9 -5 -9 -11 0 -5 -4 -8 -9 -4 -5 3 -16 -1 -24 -10
-13 -13 -15 -12 -20 5 -3 11 0 20 6 20 6 0 8 3 5 6 -10 9 -49 -20 -44 -33 3
-7 -4 -15 -15 -18 -14 -5 -18 -12 -14 -26 4 -11 2 -19 -5 -19 -7 0 -10 -6 -7
-13 4 -10 -3 -12 -23 -9 -21 3 -31 -1 -39 -17 -7 -12 -18 -21 -26 -21 -8 0
-15 -5 -15 -11 0 -6 -7 -9 -15 -5 -8 3 -15 1 -15 -4 0 -6 6 -10 13 -11 6 0 2
-4 -10 -9 -22 -9 -27 -20 -24 -47 1 -7 -3 -22 -9 -34 l-12 -21 -19 21 c-27 29
-45 27 -26 -3 18 -27 13 -38 -11 -28 -15 5 -15 4 -3 -12 12 -15 12 -19 1 -26
-7 -4 -19 -6 -27 -3 -7 3 -30 -3 -51 -13 -24 -12 -57 -18 -94 -18 -32 1 -58
-2 -58 -7 0 -5 40 -9 89 -9 97 0 119 -11 82 -41 l-22 -18 31 1 c16 1 30 5 30
10 0 4 7 8 16 8 14 0 15 2 3 17 -12 15 -12 16 4 10 10 -4 21 -7 24 -7 3 0 0
-7 -7 -15 -15 -18 -5 -69 12 -59 8 5 9 2 5 -10 -6 -14 -3 -15 14 -5 19 10 20
9 9 -10 -6 -12 -14 -21 -18 -22 -4 0 -22 -2 -39 -3 -44 -3 -50 -12 -21 -28 13
-7 24 -22 24 -33 -1 -14 5 -19 19 -17 14 2 9 -4 -12 -17 -18 -12 -33 -24 -33
-27 0 -4 7 -1 15 6 9 8 15 9 15 2 0 -6 -5 -14 -11 -17 -6 -4 -7 -14 -4 -24 4
-9 8 -22 9 -30 2 -8 11 -15 20 -17 23 -3 47 -35 41 -54 -3 -9 1 -8 10 4 8 10
12 22 10 27 -3 4 -1 10 5 14 5 3 10 -1 10 -9 0 -19 16 -21 23 -3 4 8 6 7 7 -3
1 -8 3 -23 5 -32 2 -13 -4 -18 -23 -19 -24 -2 -25 -2 -4 -6 26 -5 20 -23 -9
-23 -11 0 -18 -4 -15 -9 5 -8 -48 -26 -66 -22 -5 0 -8 -4 -8 -11 0 -6 -8 -4
-19 6 -15 14 -29 16 -60 11 -31 -5 -41 -3 -41 7 -1 9 -4 8 -13 -3 -11 -15 -17
-15 -42 -5 -17 7 -40 11 -53 10 -17 -3 -22 1 -24 19 -1 12 -3 31 -4 42 -1 11
-2 26 -3 33 -1 6 -5 12 -11 12 -5 0 -9 -27 -8 -60 2 -62 -6 -84 -23 -60 -8 13
-12 12 -24 -4 -8 -11 -15 -14 -15 -8 0 7 -9 12 -20 12 -11 0 -20 -6 -20 -12 0
-9 -4 -8 -10 2 -7 10 -10 11 -10 2 0 -8 -5 -9 -17 -3 -47 25 -133 37 -133 18
0 -4 -5 -5 -12 -1 -7 4 -28 10 -47 13 -28 5 -36 12 -43 36 -5 17 -6 47 -2 68
4 24 2 37 -5 37 -7 0 -11 -26 -11 -70 0 -49 -4 -70 -12 -71 -41 -4 -136 0
-150 6 -11 4 -18 3 -18 -4 0 -9 -5 -9 -20 -1 -16 8 -18 15 -10 29 5 10 7 21 4
24 -3 2 6 13 19 24 20 15 22 23 15 43 -6 14 -11 47 -13 73 -5 58 -42 102 -81
94 -17 -3 -24 0 -24 11 0 12 -2 12 -17 1 -15 -12 -16 -12 -8 1 5 9 0 7 -14 -4
-22 -20 -22 -20 -15 0 4 10 4 16 -1 12 -4 -4 -16 -3 -26 3 -15 7 -17 6 -13 -6
4 -8 1 -15 -6 -15 -6 0 -14 9 -17 20 -3 11 -11 20 -19 20 -21 0 -26 17 -9 33
8 9 15 22 15 29 0 10 3 9 10 -2 8 -13 10 -13 10 2 0 9 -3 19 -7 21 -10 6 -34
-19 -26 -27 4 -3 1 -6 -5 -6 -7 0 -12 5 -12 10 0 6 -5 10 -11 10 -5 0 -8 -3
-6 -7 3 -5 1 -17 -3 -27 -6 -17 -7 -18 -13 -3 -4 10 -1 17 6 17 8 0 8 3 -2 9
-10 7 -11 13 -2 27 6 11 11 14 11 7 0 -6 6 -10 13 -9 20 3 38 17 32 26 -3 4 5
10 18 14 12 3 24 1 25 -4 2 -6 31 -10 63 -10 33 0 58 4 55 9 -3 5 -22 7 -42 4
-23 -3 -39 0 -44 7 -4 7 -26 13 -48 13 l-40 1 13 37 c13 37 13 38 -14 44 -16
3 -34 5 -42 3 -8 -2 -13 2 -12 8 3 18 -59 6 -92 -17 -16 -12 -24 -16 -17 -8
19 20 14 30 -12 25 -19 -3 -23 -1 -19 11 5 12 7 12 14 1 5 -7 9 -8 9 -2 0 19
-13 24 -28 12 -11 -10 -17 -8 -28 7 -8 10 -14 13 -14 6 0 -7 -5 -9 -10 -6 -6
4 -10 -5 -10 -19 0 -14 5 -26 11 -26 6 0 9 7 6 15 -4 8 -2 17 2 20 5 3 12 -2
15 -11 9 -23 7 -36 -4 -29 -5 3 -10 1 -10 -5 0 -6 -5 -8 -10 -5 -7 4 -10 -143
-10 -435 l0 -442 78 1 c75 1 512 -8 562 -11 14 -1 66 2 115 6 72 5 695 8 820
4 17 -1 53 0 80 2 28 1 300 -1 605 -6 539 -8 867 -8 1348 1 l233 5 -7 -53
c-35 -295 -41 -312 -101 -310 -7 1 -13 -4 -13 -9 0 -7 -4 -7 -12 -1 -7 5 -47
11 -88 12 -86 2 -100 4 -117 14 -7 5 -13 4 -13 -2 0 -7 -8 -7 -25 -1 -14 5
-29 9 -33 8 -4 -1 -36 2 -72 6 -118 13 -164 13 -248 0 -45 -7 -87 -16 -93 -20
-6 -3 -57 -6 -112 -5 -79 1 -105 4 -113 16 -12 16 -29 21 -19 6 3 -6 -4 -9
-15 -8 -11 1 -20 4 -20 8 0 13 -318 -2 -340 -16 -9 -5 -10 -2 -5 14 7 23 -1
26 -25 11 -10 -6 -11 -10 -2 -10 6 0 12 -4 12 -10 0 -5 -14 -10 -31 -10 -17 0
-28 4 -24 10 3 5 -1 10 -9 10 -9 0 -16 -3 -16 -8 0 -4 -36 -3 -80 2 -43 5 -77
13 -74 18 3 4 -9 8 -25 8 -18 0 -31 5 -31 13 0 8 -2 9 -8 1 -7 -12 -46 -12
-74 0 -9 4 -22 5 -28 1 -5 -3 -10 0 -10 7 0 9 -3 9 -10 -2 -7 -11 -10 -11 -10
-2 0 8 -5 10 -12 5 -19 -11 -261 -12 -275 0 -8 6 -13 6 -13 0 0 -5 -6 -10 -12
-10 -7 0 -47 -4 -88 -8 -41 -4 -79 -7 -85 -7 -5 1 -44 2 -85 3 -41 1 -79 4
-85 7 -5 4 -16 7 -23 8 -24 4 -26 14 -4 14 12 0 22 4 22 8 0 5 -27 8 -61 8
-33 -1 -63 2 -65 5 -6 10 -55 2 -67 -10 -8 -8 -8 -11 1 -11 16 0 15 -16 0 -18
-7 -1 -30 -5 -51 -8 -43 -7 -51 10 -9 22 15 4 31 6 35 5 5 -1 6 2 4 6 -3 5
-27 7 -54 6 -26 -2 -96 -4 -155 -6 -59 -2 -110 -6 -114 -10 -4 -4 6 -8 22 -9
17 -1 9 -4 -21 -7 -27 -4 -62 -3 -77 1 -16 4 -28 2 -28 -3 0 -5 -11 -9 -25 -9
-15 0 -24 5 -23 13 2 9 -21 12 -92 10 -52 0 -114 -3 -137 -6 -29 -3 -47 0 -54
9 -6 8 -14 12 -18 10 -3 -3 -34 -1 -69 3 -34 4 -66 3 -71 -2 -5 -5 -22 -10
-37 -12 -16 -2 -50 -7 -76 -11 l-48 -7 0 -109 0 -110 108 6 c163 10 412 12
412 3 0 -4 9 -3 20 3 16 8 75 8 75 0 0 -1 84 -3 188 -3 103 -1 187 1 187 5 0
5 5 8 11 8 5 0 7 -5 3 -12 -5 -7 -3 -8 7 -2 25 15 46 14 25 -2 -11 -8 -16 -14
-10 -14 14 0 30 13 37 30 4 12 6 11 6 -3 1 -16 8 -17 69 -10 82 8 244 8 292 0
40 -7 110 2 110 13 0 5 -8 7 -17 5 -10 -1 -22 1 -28 5 -5 5 -24 10 -41 13 -17
3 -42 10 -55 17 -17 9 -24 10 -27 2 -3 -9 -9 -9 -24 -1 -11 6 -22 8 -25 5 -3
-3 -13 -1 -23 4 -10 5 -21 6 -25 2 -9 -9 -205 -9 -205 0 0 13 53 22 110 20 30
-1 64 -1 75 -1 198 7 465 -12 465 -32 0 -5 12 -4 27 2 17 6 70 8 138 4 60 -3
115 -5 120 -5 6 1 80 3 166 4 161 3 164 3 207 48 9 10 19 13 22 8 9 -14 370
-11 370 4 0 4 10 5 23 1 12 -4 51 -9 87 -11 36 -3 76 -6 90 -7 14 -2 31 1 38
6 7 6 12 6 12 -1 0 -7 39 -9 118 -7 64 3 154 5 200 7 49 1 82 6 82 12 0 6 5 4
10 -4 8 -12 12 -13 19 -1 7 10 13 11 30 2 13 -8 21 -8 21 -2 0 7 8 7 23 2 23
-9 94 -7 144 5 15 3 38 7 51 8 12 0 22 4 22 9 0 4 13 7 29 7 17 0 32 4 36 9 3
6 15 8 26 6 12 -3 39 -5 61 -7 23 -1 43 -8 48 -17 5 -9 10 -11 10 -4 0 7 10
10 25 7 l25 -4 0 620 c0 401 -4 619 -10 615 -6 -3 -10 1 -10 10 0 9 4 14 9 10
6 -3 10 259 11 704 0 561 -2 710 -12 714 -10 4 -10 6 0 6 6 1 12 10 12 20 0
11 -6 21 -12 24 -10 4 -10 7 0 18 6 7 12 34 12 60 0 39 -4 49 -30 69 -36 28
-33 39 4 15 l26 -18 -1 142 -1 141 -894 0 c-621 0 -893 -4 -888 -11z m1689
-119 c3 -5 1 -10 -4 -10 -6 0 -11 5 -11 10 0 6 2 10 4 10 3 0 8 -4 11 -10z
m-1454 -73 c-8 -8 -11 -3 -11 19 1 25 2 27 11 11 8 -14 8 -22 0 -30z m-95 -22
c21 21 38 19 29 -2 -4 -10 -7 -26 -7 -35 0 -9 -6 -22 -13 -28 -8 -6 -11 -18
-8 -26 3 -7 -2 -17 -11 -20 -15 -6 -15 -8 1 -21 17 -13 16 -14 -9 -9 -16 4
-28 1 -31 -7 -3 -6 -6 2 -6 18 -1 17 -4 41 -7 55 l-5 25 15 -25 16 -25 -7 34
c-5 26 -3 32 6 27 8 -5 12 -3 10 5 -1 8 0 23 1 34 2 17 3 18 7 3 4 -16 6 -16
19 -3z m1487 -65 c8 -9 8 -11 0 -6 -6 3 -13 -1 -15 -11 -2 -13 -6 -11 -15 9
-10 22 -9 26 3 24 8 -1 20 -8 27 -16z m-163 -41 c0 -4 -7 -6 -15 -3 -8 4 -15
10 -15 15 0 4 7 6 15 3 8 -4 15 -10 15 -15z m238 9 c-6 -17 -37 -23 -51 -9 -7
7 -4 9 11 6 12 -2 22 0 22 6 0 5 5 9 11 9 6 0 9 -6 7 -12z m19 -50 c-3 -8 -6
-5 -6 6 -1 11 2 17 5 13 3 -3 4 -12 1 -19z m-1397 -8 c0 -5 -5 -10 -11 -10 -5
0 -7 5 -4 10 3 6 8 10 11 10 2 0 4 -4 4 -10z m1373 3 c-7 -2 -19 -2 -25 0 -7
3 -2 5 12 5 14 0 19 -2 13 -5z m-1456 -46 c10 3 23 12 30 20 9 11 16 12 32 3
12 -6 21 -13 21 -16 0 -3 -5 -2 -11 1 -6 4 -20 -3 -31 -15 -16 -17 -22 -19
-29 -8 -7 10 -9 10 -9 -3 0 -9 -7 -22 -15 -29 -10 -9 -15 -9 -15 -1 0 6 5 11
12 11 6 0 2 8 -8 18 -12 10 -18 26 -16 37 4 19 5 19 13 -2 6 -16 13 -21 26
-16z m363 29 c0 -3 -4 -8 -10 -11 -5 -3 -10 -1 -10 4 0 6 5 11 10 11 6 0 10
-2 10 -4z m1122 -54 c3 -11 0 -19 -8 -19 -8 0 -14 9 -14 19 0 10 4 18 9 18 5
0 11 -8 13 -18z m-1522 -22 c0 -5 -4 -10 -9 -10 -6 0 -13 5 -16 10 -3 6 1 10
9 10 9 0 16 -4 16 -10z m1281 -43 c-6 -8 -7 -18 -3 -22 4 -5 1 -5 -5 -1 -19
10 -16 36 3 36 13 0 14 -3 5 -13z m64 -7 c3 -5 1 -10 -4 -10 -6 0 -11 5 -11
10 0 6 2 10 4 10 3 0 8 -4 11 -10z m-1015 -20 c0 -5 -5 -10 -11 -10 -5 0 -7 5
-4 10 3 6 8 10 11 10 2 0 4 -4 4 -10z m1090 -47 c0 -4 -5 0 -11 10 -9 16 -12
16 -26 2 -8 -9 -18 -13 -22 -10 -3 4 2 11 11 16 11 6 15 16 11 27 -3 9 4 5 15
-10 12 -14 22 -30 22 -35z m84 42 c-7 -17 -34 -21 -34 -4 0 5 4 8 9 4 5 -3 12
-1 16 5 9 15 15 12 9 -5z m26 0 c0 -8 -4 -15 -10 -15 -5 0 -7 7 -4 15 4 8 8
15 10 15 2 0 4 -7 4 -15z m-1372 -60 c3 -3 -4 -4 -16 -2 -12 2 -24 6 -28 10
-4 3 4 4 16 2 12 -2 25 -7 28 -10z m1402 -26 c0 -6 -4 -7 -10 -4 -5 3 -10 11
-10 16 0 6 5 7 10 4 6 -3 10 -11 10 -16z m-383 -21 c-3 -8 -6 -5 -6 6 -1 11 2
17 5 13 3 -3 4 -12 1 -19z m-97 8 c0 -3 -4 -8 -10 -11 -5 -3 -10 -1 -10 4 0 6
5 11 10 11 6 0 10 -2 10 -4z m-1270 -85 c10 -19 10 -23 -2 -19 -19 6 -41 56
-33 76 6 14 9 13 15 -9 4 -14 13 -36 20 -48z m1632 17 c-8 -30 -20 -20 -19 16
1 29 3 32 13 19 6 -9 9 -25 6 -35z m33 22 c3 -5 1 -10 -4 -10 -6 0 -11 5 -11
10 0 6 2 10 4 10 3 0 8 -4 11 -10z m-1593 -54 c7 4 8 2 4 -4 -11 -18 -26 -14
-25 6 0 10 3 12 6 4 2 -6 10 -9 15 -6z m848 -20 c0 -8 -4 -18 -10 -21 -5 -3
-10 3 -10 14 0 12 5 21 10 21 6 0 10 -6 10 -14z m-860 -17 c0 -4 -7 -6 -15 -3
-8 4 -15 10 -15 15 0 4 7 6 15 3 8 -4 15 -10 15 -15z m1080 -19 c0 -5 -2 -10
-4 -10 -3 0 -8 5 -11 10 -3 6 -1 10 4 10 6 0 11 -4 11 -10z m-1140 -18 c0 -14
-59 -76 -66 -69 -3 3 -2 12 2 19 5 7 9 20 9 28 0 8 7 14 17 12 9 -1 19 2 23 8
7 12 15 13 15 2z m1080 -11 c0 -6 -4 -13 -10 -16 -5 -3 -10 1 -10 9 0 9 5 16
10 16 6 0 10 -4 10 -9z m68 -141 c-7 -10 -14 -17 -17 -15 -4 4 18 35 25 35 2
0 -1 -9 -8 -20z m312 10 c12 -8 11 -10 -7 -10 -13 0 -23 5 -23 10 0 13 11 13
30 0z m-381 -37 c0 -11 -3 -13 -6 -5 -2 6 -10 9 -15 6 -7 -4 -8 -2 -4 4 11 18
26 14 25 -5z m651 -39 c0 -8 -4 -12 -10 -9 -5 3 -10 10 -10 16 0 5 5 9 10 9 6
0 10 -7 10 -16z m-195 -3 c3 -5 1 -12 -5 -16 -5 -3 -10 1 -10 9 0 18 6 21 15
7z m-685 -34 c0 -5 -4 -5 -10 -2 -5 3 -10 14 -10 23 0 15 2 15 10 2 5 -8 10
-19 10 -23z m-562 2 c29 15 32 14 32 -14 0 -28 0 -28 -34 -15 -25 9 -37 -2
-16 -15 22 -13 8 -24 -30 -23 -44 0 -64 16 -32 25 11 2 25 16 31 31 9 19 15
22 20 13 7 -10 13 -10 29 -2z m1408 -24 c-1 -14 -6 -28 -11 -33 -4 -4 -6 5 -3
20 4 23 3 25 -14 15 -19 -13 -21 -18 -19 -57 2 -24 1 -24 -14 -6 -17 23 -19
36 -5 36 6 0 10 7 10 15 0 15 26 34 47 35 7 0 10 -11 9 -25z m-965 -7 c-13 -4
-28 -5 -34 -1 -7 4 -2 10 13 13 33 9 50 -1 21 -12z m219 -8 c0 -5 -2 -10 -4
-10 -3 0 -8 5 -11 10 -3 6 -1 10 4 10 6 0 11 -4 11 -10z m-320 -28 c0 -15 -2
-15 -10 -2 -13 20 -13 33 0 25 6 -3 10 -14 10 -23z m1097 -4 c-3 -8 -6 -5 -6
6 -1 11 2 17 5 13 3 -3 4 -12 1 -19z m33 12 c0 -5 -2 -10 -4 -10 -3 0 -8 5
-11 10 -3 6 -1 10 4 10 6 0 11 -4 11 -10z m-640 -69 c0 -11 -5 -10 -20 4 -11
10 -20 28 -20 39 0 20 1 20 20 -4 11 -14 20 -31 20 -39z m50 49 c0 -5 -5 -10
-11 -10 -5 0 -7 5 -4 10 3 6 8 10 11 10 2 0 4 -4 4 -10z m-1035 -17 c4 -10 9
-27 10 -37 2 -16 -3 -14 -21 9 -21 27 -23 45 -4 45 4 0 11 -8 15 -17z m371
-38 c10 -8 14 -15 7 -15 -6 0 -18 -3 -27 -6 -12 -4 -16 0 -16 15 0 25 9 26 36
6z m-49 -17 c-3 -8 -6 -5 -6 6 -1 11 2 17 5 13 3 -3 4 -12 1 -19z m-350 -10
c-3 -8 -6 -5 -6 6 -1 11 2 17 5 13 3 -3 4 -12 1 -19z m53 -14 c0 -2 -7 -4 -15
-4 -8 0 -15 4 -15 10 0 5 7 7 15 4 8 -4 15 -8 15 -10z m-260 -24 c0 -5 -4 -10
-10 -10 -5 0 -10 5 -10 10 0 6 5 10 10 10 6 0 10 -4 10 -10z m735 -30 c-10
-16 -35 7 -28 27 5 13 7 13 21 0 8 -8 11 -20 7 -27z m769 1 c-4 -17 -9 -30
-11 -27 -3 2 -2 19 2 36 9 41 17 33 9 -9z m-1030 -13 c-3 -4 4 -8 15 -8 11 0
26 -7 34 -15 8 -8 18 -11 22 -7 5 4 5 2 1 -5 -5 -9 -14 -10 -34 -2 -14 6 -23
7 -19 3 12 -12 -26 -34 -40 -22 -9 7 -13 7 -13 -2 0 -7 -7 -10 -16 -6 -8 3
-12 2 -9 -4 3 -6 -3 -10 -15 -10 -12 0 -18 -5 -15 -10 12 -20 -24 -21 -44 -1
-16 16 -18 26 -11 43 5 14 9 17 9 8 1 -25 42 -21 69 5 13 14 28 23 32 20 4 -3
13 2 20 10 9 11 9 15 1 15 -7 0 -9 5 -5 11 4 8 9 7 15 -2 4 -7 5 -17 3 -21z
m-478 -3 c-3 -8 2 -22 11 -31 16 -15 16 -17 -1 -29 -13 -10 -25 -11 -49 -2
-17 6 -26 12 -19 15 6 2 12 10 12 17 0 16 27 45 42 45 5 0 8 -7 4 -15z m615
-22 c-7 -11 -11 -13 -11 -4 0 7 -6 11 -15 7 -8 -3 -15 -3 -15 0 0 6 44 23 48
19 2 -2 -1 -12 -7 -22z m-688 -37 c3 -8 0 -19 -7 -25 -10 -8 -12 -5 -10 12 4
33 8 37 17 13z m387 -46 c0 -6 -9 -10 -20 -10 -13 0 -20 7 -20 20 0 18 3 19
20 10 11 -6 20 -15 20 -20z m1174 4 c3 -8 2 -12 -4 -9 -6 3 -10 10 -10 16 0
14 7 11 14 -7z m216 -34 c0 -5 -4 -10 -10 -10 -5 0 -10 5 -10 10 0 6 5 10 10
10 6 0 10 -4 10 -10z m-1090 -40 c0 -5 -2 -10 -4 -10 -3 0 -8 5 -11 10 -3 6
-1 10 4 10 6 0 11 -4 11 -10z m-472 -48 c2 -7 -3 -12 -12 -12 -9 0 -16 7 -16
16 0 17 22 14 28 -4z m-448 -27 c0 -8 -4 -15 -10 -15 -5 0 -7 7 -4 15 4 8 8
15 10 15 2 0 4 -7 4 -15z m-172 -91 c-6 -13 -18 -24 -27 -23 -11 0 -12 2 -3 6
6 2 9 9 6 14 -10 16 4 39 20 33 12 -5 13 -11 4 -30z m38 9 c-10 -10 -19 5 -10
18 6 11 8 11 12 0 2 -7 1 -15 -2 -18z m594 17 c0 -5 -2 -10 -4 -10 -3 0 -8 5
-11 10 -3 6 -1 10 4 10 6 0 11 -4 11 -10z m-460 -4 c0 -3 -4 -8 -10 -11 -5 -3
-10 -1 -10 4 0 6 5 11 10 11 6 0 10 -2 10 -4z m403 -49 c-4 -23 -9 -26 -27
-21 -29 9 -32 13 -16 27 10 9 11 9 6 0 -12 -21 13 -15 26 7 15 24 18 22 11
-13z m353 -12 c-1 -8 -5 -17 -8 -21 -5 -4 -4 16 1 34 3 9 9 -1 7 -13z m-416
-16 c0 -6 -4 -7 -10 -4 -5 3 -10 11 -10 16 0 6 5 7 10 4 6 -3 10 -11 10 -16z
m490 11 c0 -5 -4 -10 -10 -10 -5 0 -10 5 -10 10 0 6 5 10 10 10 6 0 10 -4 10
-10z m-913 -22 c-3 -8 -6 -5 -6 6 -1 11 2 17 5 13 3 -3 4 -12 1 -19z m80 0
c-3 -8 -6 -5 -6 6 -1 11 2 17 5 13 3 -3 4 -12 1 -19z m41 -10 c7 -9 6 -17 -4
-26 -9 -8 -14 -9 -14 -2 0 6 -4 9 -9 6 -5 -4 -7 3 -4 14 6 23 16 25 31 8z
m222 -13 c0 -8 -9 -15 -20 -15 -11 0 -20 7 -20 15 0 8 9 15 20 15 11 0 20 -7
20 -15z m-554 -22 c-7 -7 -26 7 -26 19 0 6 6 6 15 -2 9 -7 13 -15 11 -17z
m644 3 c0 -2 -7 -6 -15 -10 -8 -3 -15 -1 -15 4 0 6 7 10 15 10 8 0 15 -2 15
-4z m1680 -31 c-7 -9 -15 -13 -19 -10 -3 3 1 10 9 15 21 14 24 12 10 -5z
m-2050 -5 c0 -5 -8 -10 -17 -10 -15 0 -16 2 -3 10 19 12 20 12 20 0z m320 -5
c9 -10 9 -15 1 -15 -6 0 -11 5 -11 10 0 6 -8 10 -17 10 -15 0 -16 -2 -3 -10
13 -9 7 -14 -12 -11 -5 0 -8 -4 -8 -11 0 -6 -3 -9 -6 -6 -9 10 15 48 30 48 8
0 19 -7 26 -15z m1600 -6 c0 -6 -4 -7 -10 -4 -5 3 -10 11 -10 16 0 6 5 7 10 4
6 -3 10 -11 10 -16z m-1990 -35 c0 -8 -4 -12 -10 -9 -5 3 -10 13 -10 21 0 8 5
12 10 9 6 -3 10 -13 10 -21z m258 -9 c-3 -3 -9 2 -12 12 -6 14 -5 15 5 6 7 -7
10 -15 7 -18z m-522 0 c9 -8 11 -15 6 -15 -5 0 -15 7 -22 15 -7 8 -9 15 -6 15
4 0 14 -7 22 -15z m470 -11 c-9 -9 -20 -14 -23 -10 -4 3 2 13 13 20 25 18 31
12 10 -10z m-252 -5 c3 1 6 -2 6 -6 0 -18 -25 -6 -28 12 -2 15 -1 16 6 7 5 -8
12 -13 16 -13z m386 17 c0 -3 -4 -8 -10 -11 -5 -3 -10 -1 -10 4 0 6 5 11 10
11 6 0 10 -2 10 -4z m1446 -8 c4 -6 3 -8 -4 -4 -5 3 -13 0 -15 -6 -3 -8 -6 -6
-6 5 -1 19 14 23 25 5z m-3313 -10 c2 -7 0 -22 -4 -33 l-9 -20 2 20 c2 11 -1
26 -5 33 -5 6 -4 12 1 12 6 0 12 -6 15 -12z m-23 -18 c0 -5 -2 -10 -4 -10 -3
0 -8 5 -11 10 -3 6 -1 10 4 10 6 0 11 -4 11 -10z m1270 -10 c0 -5 -4 -10 -9
-10 -6 0 -13 5 -16 10 -3 6 1 10 9 10 9 0 16 -4 16 -10z m2160 -24 c0 -6 -6
-4 -13 5 -7 9 -19 14 -27 12 -13 -4 -13 -3 0 6 16 11 40 -3 40 -23z m-3479 10
c-6 -7 -8 -22 -4 -32 6 -16 5 -17 -9 -4 -15 14 -15 17 -1 33 19 20 31 23 14 3z
m1814 -4 c-3 -3 -11 0 -18 7 -9 10 -8 11 6 5 10 -3 15 -9 12 -12z m-1780 -2
c3 -5 1 -10 -4 -10 -6 0 -11 5 -11 10 0 6 2 10 4 10 3 0 8 -4 11 -10z m3555
-5 c0 -8 -2 -15 -4 -15 -2 0 -6 7 -10 15 -3 8 -1 15 4 15 6 0 10 -7 10 -15z
m-3480 -37 c0 -16 -20 -7 -30 12 -10 19 -10 20 9 8 12 -7 21 -16 21 -20z
m3466 18 c18 -18 18 -23 -1 -23 -8 0 -15 5 -15 10 0 5 -7 7 -15 3 -9 -3 -15 0
-15 9 0 19 27 19 46 1z m234 -1 c0 -8 -2 -15 -4 -15 -2 0 -6 7 -10 15 -3 8 -1
15 4 15 6 0 10 -7 10 -15z m46 -11 c-4 -9 -9 -15 -11 -12 -3 3 -3 13 1 22 4 9
9 15 11 12 3 -3 3 -13 -1 -22z m-2639 10 c-3 -3 -12 -4 -19 -1 -8 3 -5 6 6 6
11 1 17 -2 13 -5z m2253 2 c0 -2 -7 -7 -16 -10 -8 -3 -12 -2 -9 4 6 10 25 14
25 6z m11 -29 c-10 -9 -11 -8 -5 6 3 10 9 15 12 12 3 -3 0 -11 -7 -18z m-1501
3 c0 -5 -5 -10 -11 -10 -5 0 -7 5 -4 10 3 6 8 10 11 10 2 0 4 -4 4 -10z m1458
-20 c-9 -14 -14 -16 -20 -7 -6 10 5 20 30 26 1 1 -3 -8 -10 -19z m-1497 -23
c-10 -9 -11 -8 -5 6 3 10 9 15 12 12 3 -3 0 -11 -7 -18z m-214 -9 c-3 -8 -6
-5 -6 6 -1 11 2 17 5 13 3 -3 4 -12 1 -19z m-277 -50 c0 -5 -7 -8 -15 -8 -15
0 -20 21 -8 33 7 7 23 -11 23 -25z m-110 -9 c0 -5 -7 -9 -15 -9 -9 0 -12 6 -9
15 6 15 24 11 24 -6z m1944 -1 c-3 -4 -9 -8 -15 -8 -5 0 -9 4 -9 8 0 5 7 9 15
9 8 0 12 -4 9 -9z m-3379 -8 c3 -5 1 -10 -4 -10 -6 0 -11 5 -11 10 0 6 2 10 4
10 3 0 8 -4 11 -10z m186 -17 c13 -16 12 -17 -3 -4 -10 7 -18 15 -18 17 0 8 8
3 21 -13z m42 3 c20 -15 22 -32 5 -42 -7 -4 -8 -3 -4 4 4 7 3 12 -1 12 -5 0
-14 9 -21 20 -14 23 -5 26 21 6z m1502 4 c3 -5 -1 -10 -10 -10 -9 0 -13 5 -10
10 3 6 8 10 10 10 2 0 7 -4 10 -10z m1405 0 c0 -5 -2 -10 -4 -10 -3 0 -8 5
-11 10 -3 6 -1 10 4 10 6 0 11 -4 11 -10z m-1726 -25 c-4 -8 -15 -15 -25 -15
-27 0 -24 18 4 23 12 2 23 5 24 6 1 0 0 -6 -3 -14z m1750 0 c-4 -8 -8 -15 -10
-15 -2 0 -4 7 -4 15 0 8 4 15 10 15 5 0 7 -7 4 -15z m-499 -5 c3 -5 1 -10 -4
-10 -6 0 -11 5 -11 10 0 6 2 10 4 10 3 0 8 -4 11 -10z m793 -27 c-5 -23 -21
-20 -24 4 -3 17 0 21 12 16 8 -3 14 -12 12 -20z m-260 -21 c-11 -13 -10 -15 5
-9 9 3 17 3 17 -2 0 -5 -16 -11 -35 -13 -37 -4 -38 -4 -29 28 4 16 11 20 30
16 21 -4 23 -7 12 -20z m324 -4 c-7 -7 -12 -8 -12 -2 0 14 12 26 19 19 2 -3
-1 -11 -7 -17z m-1812 -8 c-6 -11 -13 -20 -16 -20 -3 0 -2 5 1 10 3 6 0 10 -7
10 -9 0 -9 3 2 10 24 15 32 12 20 -10z m1037 13 c-4 -3 -3 -11 3 -17 5 -7 5
-17 1 -24 -6 -10 -11 -10 -21 3 -10 12 -10 18 0 30 7 8 15 15 18 15 3 0 2 -3
-1 -7z m-817 -13 c0 -5 -5 -10 -11 -10 -5 0 -7 5 -4 10 3 6 8 10 11 10 2 0 4
-4 4 -10z m-270 -12 c0 -4 -4 -8 -9 -8 -6 0 -12 4 -15 8 -3 5 1 9 9 9 8 0 15
-4 15 -9z m2087 -20 c-3 -7 -5 -2 -5 12 0 14 2 19 5 13 2 -7 2 -19 0 -25z
m-1695 13 c8 11 9 11 6 1 -4 -16 -22 -18 -24 -2 -2 7 -1 6 3 -1 4 -8 8 -7 15
2z m751 -46 c-25 -19 -28 -2 -6 32 18 27 18 27 21 4 2 -13 -4 -28 -15 -36z
m657 51 c0 -3 -4 -8 -10 -11 -5 -3 -10 -1 -10 4 0 6 5 11 10 11 6 0 10 -2 10
-4z m-1306 -27 c-3 -6 1 -21 10 -34 19 -30 21 -56 2 -30 -8 11 -19 16 -30 12
-18 -7 -46 1 -46 13 0 5 9 7 19 5 11 -2 22 3 25 12 4 10 2 13 -7 10 -8 -3 -14
1 -14 9 0 7 4 11 9 8 4 -3 8 -1 8 5 0 6 7 8 15 5 8 -4 12 -10 9 -15z m121 -56
c1 -24 -3 -43 -8 -43 -5 0 -7 9 -4 20 3 11 1 23 -4 26 -9 5 -12 -7 -10 -41 1
-15 -4 -21 -18 -21 -15 0 -17 3 -9 13 8 10 6 13 -6 13 -9 0 -16 8 -16 20 0 11
-7 23 -15 26 -21 8 -19 34 3 34 13 0 14 -2 4 -9 -11 -7 -11 -9 2 -14 11 -4 21
3 31 24 15 28 17 29 33 13 10 -11 17 -34 17 -61z m1555 56 c0 -14 -17 -10 -23
5 -4 10 -1 13 9 9 7 -3 14 -9 14 -14z m-2464 -18 c-8 -13 -36 -15 -36 -3 0 4
5 13 12 20 14 14 34 0 24 -17z m734 14 c0 -8 -7 -15 -15 -15 -16 0 -20 12 -8
23 11 12 23 8 23 -8z m-363 -17 c-3 -8 -6 -5 -6 6 -1 11 2 17 5 13 3 -3 4 -12
1 -19z m803 18 c0 -3 -4 -8 -10 -11 -5 -3 -10 -1 -10 4 0 6 5 11 10 11 6 0 10
-2 10 -4z m148 -31 c0 -23 -2 -24 -14 -8 -17 23 -17 33 0 33 8 0 14 -10 14
-25z m72 21 c0 -3 -4 -8 -10 -11 -5 -3 -10 -1 -10 4 0 6 5 11 10 11 6 0 10 -2
10 -4z m650 -27 c0 -17 -4 -28 -10 -24 -11 7 -9 55 2 55 4 0 8 -14 8 -31z
m-2980 11 c0 -5 -2 -10 -4 -10 -3 0 -8 5 -11 10 -3 6 -1 10 4 10 6 0 11 -4 11
-10z m957 -14 c-12 -13 -25 -22 -29 -20 -14 9 -9 19 15 30 35 18 37 16 14 -10z
m318 14 c-3 -5 2 -10 12 -10 14 0 13 -3 -6 -17 -23 -15 -25 -15 -38 3 -12 17
-12 20 9 26 13 3 24 6 26 7 2 1 0 -3 -3 -9z m1018 -11 c-4 -15 -8 -17 -14 -8
-6 11 4 28 18 29 0 0 -1 -9 -4 -21z m-1193 -15 c0 -9 -10 -14 -27 -13 -25 0
-26 1 -8 9 11 5 16 9 12 9 -5 1 -5 6 -2 11 8 13 25 3 25 -16z m1020 13 c0 -7
-7 -22 -15 -33 -12 -16 -16 -17 -24 -5 -12 18 -4 39 17 44 10 3 18 5 20 6 1 0
2 -5 2 -12z m-898 -46 c-4 -10 -1 -12 9 -6 12 7 12 5 1 -6 -11 -12 -14 -12
-22 1 -5 8 -10 11 -10 5 0 -5 -10 1 -21 15 -11 14 -17 19 -13 11 4 -8 2 -12
-5 -10 -19 7 -13 24 9 24 10 0 22 4 26 8 10 10 33 -25 26 -42z m134 25 c1 -17
-2 -23 -12 -19 -10 4 -11 10 -3 24 13 24 14 24 15 -5z m289 15 c3 -5 1 -12 -5
-16 -5 -3 -10 1 -10 9 0 18 6 21 15 7z m545 -6 c9 -11 9 -15 1 -15 -7 0 -10
-4 -6 -9 3 -5 1 -12 -4 -15 -5 -3 -11 8 -13 24 -5 33 3 38 22 15z m467 -7 c-3
-8 -6 -5 -6 6 -1 11 2 17 5 13 3 -3 4 -12 1 -19z m72 0 c11 -10 14 -10 18 0 3
6 9 12 15 12 6 0 6 -6 -2 -15 -6 -8 -9 -23 -5 -35 4 -11 2 -20 -4 -20 -6 0
-10 3 -10 8 4 22 -3 32 -21 32 -11 0 -20 7 -20 15 0 18 11 19 29 3z m-379 -8
c0 -5 -5 -10 -11 -10 -5 0 -7 5 -4 10 3 6 8 10 11 10 2 0 4 -4 4 -10z m-1060
-20 c0 -5 -7 -7 -15 -4 -8 4 -12 10 -9 15 6 11 24 2 24 -11z m380 -15 c-4 -20
-4 -35 1 -35 5 0 9 5 9 10 0 6 4 10 8 10 4 0 8 -9 8 -20 0 -24 -19 -26 -40 -5
-13 13 -13 18 0 45 20 39 24 38 14 -5z m477 13 c-2 -12 -10 -24 -17 -26 -9 -3
-11 1 -7 12 4 10 7 22 7 27 0 5 4 9 10 9 5 0 8 -10 7 -22z m-1006 -12 c6 3 8
-6 5 -23 -3 -15 -10 -29 -16 -31 -7 -3 -7 -8 1 -18 6 -8 10 -14 8 -15 -40 -8
-49 -7 -49 4 0 8 -4 7 -10 -3 -7 -12 -10 -8 -11 15 0 17 -2 38 -4 48 -2 9 0
15 4 13 3 -3 18 4 31 14 21 16 26 17 28 4 2 -8 8 -12 13 -8z m1279 -7 c-8 -13
-7 -19 0 -19 6 0 8 -4 5 -10 -10 -16 -22 -11 -28 12 -7 24 10 51 24 42 5 -3 5
-14 -1 -25z m420 -11 c-11 -12 -23 -18 -27 -14 -5 4 1 14 11 22 30 21 39 17
16 -8z m-1605 -8 c3 -5 2 -10 -4 -10 -5 0 -13 5 -16 10 -3 6 -2 10 4 10 5 0
13 -4 16 -10z m1152 -22 c-3 -8 -6 -5 -6 6 -1 11 2 17 5 13 3 -3 4 -12 1 -19z
m570 -13 c0 -8 -4 -12 -9 -9 -5 3 -6 10 -3 15 9 13 12 11 12 -6z m-1903 -26
c-2 -4 -13 -7 -24 -6 -18 1 -18 2 -3 19 12 14 18 15 24 6 4 -7 6 -15 3 -19z
m1974 -236 c-10 -2 -26 -2 -35 0 -10 3 -2 5 17 5 19 0 27 -2 18 -5z m-2280
-399 c-3 -10 -55 -16 -76 -9 -7 3 -11 8 -9 12 7 11 88 8 85 -3z m-335 -11 c-7
-2 -19 -2 -25 0 -7 3 -2 5 12 5 14 0 19 -2 13 -5z m-326 -9 c-3 -3 -12 -4 -19
-1 -8 3 -5 6 6 6 11 1 17 -2 13 -5z m40 0 c-3 -3 -12 -4 -19 -1 -8 3 -5 6 6 6
11 1 17 -2 13 -5z m1783 -98 c0 -2 -7 -7 -16 -10 -8 -3 -12 -2 -9 4 6 10 25
14 25 6z m-1337 -33 c-3 -8 -24 -13 -57 -14 -28 0 -60 -2 -71 -5 -24 -5 -196
-5 -245 0 -19 2 -46 8 -60 14 -17 6 17 9 115 7 77 -1 167 2 200 5 90 11 124 8
118 -7z"/>
<path d="M115 3930 c22 -25 35 -26 35 -2 0 12 -9 18 -27 20 -26 2 -26 2 -8
-18z"/>
<path d="M50 3930 c0 -5 5 -10 10 -10 6 0 10 5 10 10 0 6 -4 10 -10 10 -5 0
-10 -4 -10 -10z"/>
<path d="M10 3880 c0 -5 5 -10 11 -10 5 0 7 5 4 10 -3 6 -8 10 -11 10 -2 0 -4
-4 -4 -10z"/>
<path d="M70 3869 c-10 -18 -9 -20 6 -17 9 1 18 11 20 21 3 24 -13 22 -26 -4z"/>
<path d="M160 3859 c0 -5 5 -7 10 -4 6 3 10 8 10 11 0 2 -4 4 -10 4 -5 0 -10
-5 -10 -11z"/>
<path d="M60 3520 c0 -5 5 -10 11 -10 5 0 7 5 4 10 -3 6 -8 10 -11 10 -2 0 -4
-4 -4 -10z"/>
<path d="M3 3482 c1 -14 5 -18 11 -12 7 7 6 14 -1 21 -9 9 -12 7 -10 -9z"/>
<path d="M57 3403 c-3 -5 1 -14 9 -21 12 -10 14 -10 14 2 0 17 -16 30 -23 19z"/>
<path d="M2040 3370 c0 -5 5 -10 10 -10 6 0 10 5 10 10 0 6 -4 10 -10 10 -5 0
-10 -4 -10 -10z"/>
<path d="M2072 2929 c2 -7 10 -15 17 -17 8 -3 12 1 9 9 -2 7 -10 15 -17 17 -8
3 -12 -1 -9 -9z"/>
<path d="M1505 2480 c-8 -13 5 -13 25 0 13 8 13 10 -2 10 -9 0 -20 -4 -23 -10z"/>
<path d="M1671 2461 c-9 -6 -7 -10 8 -14 12 -3 21 -1 21 3 0 14 -15 19 -29 11z"/>
<path d="M1430 2450 c0 -5 7 -7 15 -4 8 4 15 8 15 10 0 2 -7 4 -15 4 -8 0 -15
-4 -15 -10z"/>
<path d="M1545 2340 c3 -5 10 -10 16 -10 5 0 9 5 9 10 0 6 -7 10 -16 10 -8 0
-12 -4 -9 -10z"/>
<path d="M1397 2246 c-3 -8 2 -16 14 -19 15 -4 18 -2 10 7 -6 7 -8 16 -4 19 3
4 2 7 -4 7 -6 0 -13 -6 -16 -14z"/>
<path d="M670 2230 c0 -5 -7 -16 -16 -24 -14 -15 -14 -16 3 -16 14 0 12 -3 -7
-13 -16 -8 -26 -23 -28 -40 -3 -25 -7 -28 -34 -25 -21 2 -33 10 -39 24 -6 19
-4 21 14 17 20 -5 20 -4 6 8 -9 8 -20 21 -25 30 -8 15 -11 15 -22 3 -7 -8 -8
-14 -3 -14 6 0 8 -7 5 -15 -4 -9 -11 -14 -18 -13 -6 1 -29 -8 -51 -21 -24 -13
-31 -20 -17 -17 14 2 25 -2 31 -12 8 -13 15 -14 45 -5 33 10 37 9 56 -15 16
-22 20 -23 18 -8 -2 10 3 21 11 24 8 3 11 0 7 -7 -4 -6 -1 -11 8 -11 9 0 16
-4 16 -10 0 -14 42 -13 90 2 45 14 53 27 14 22 -18 -2 -22 1 -15 9 17 21 4 83
-23 110 -14 14 -26 22 -26 17z m-20 -80 c0 -5 -4 -10 -10 -10 -5 0 -10 5 -10
10 0 6 5 10 10 10 6 0 10 -4 10 -10z m-135 -30 c-3 -5 -10 -10 -16 -10 -5 0
-9 5 -9 10 0 6 7 10 16 10 8 0 12 -4 9 -10z"/>
<path d="M357 2173 c-4 -3 -7 -15 -7 -25 0 -10 -4 -18 -10 -18 -5 0 -10 -5
-10 -11 0 -5 6 -7 13 -3 9 6 9 5 0 -8 -16 -18 -7 -28 24 -28 23 0 31 14 14 24
-5 3 -7 15 -4 26 3 11 0 20 -6 20 -5 0 -8 7 -5 15 6 16 2 20 -9 8z"/>
<path d="M1008 2164 c-42 -22 -75 -94 -43 -94 7 0 19 -8 25 -17 9 -16 10 -15
8 7 -2 14 3 32 10 40 7 8 24 30 38 48 23 28 24 32 7 32 -10 -1 -30 -7 -45 -16z"/>
<path d="M1060 2150 c-14 -11 -21 -20 -16 -20 5 0 2 -7 -5 -16 -7 -9 -14 -22
-15 -30 -2 -10 3 -10 22 3 13 8 24 18 24 22 0 3 14 6 30 7 21 1 27 -2 21 -10
-7 -8 -4 -12 10 -12 22 0 23 1 7 29 -11 21 -37 46 -48 46 -3 1 -16 -8 -30 -19z
m15 -10 c-3 -5 -12 -10 -18 -10 -7 0 -6 4 3 10 19 12 23 12 15 0z"/>
<path d="M1326 2157 c3 -10 9 -15 12 -12 3 3 0 11 -7 18 -10 9 -11 8 -5 -6z"/>
<path d="M810 2137 c0 -10 -4 -16 -9 -12 -9 5 -27 -33 -19 -40 1 -1 13 1 26 6
24 9 28 25 12 49 -8 13 -10 12 -10 -3z"/>
<path d="M570 2130 c-9 -6 -10 -10 -3 -10 6 0 15 5 18 10 8 12 4 12 -15 0z"/>
<path d="M1272 2118 c2 -6 10 -14 16 -16 7 -2 10 2 6 12 -7 18 -28 22 -22 4z"/>
<path d="M300 2091 c0 -5 5 -13 10 -16 6 -3 10 -2 10 4 0 5 -4 13 -10 16 -5 3
-10 2 -10 -4z"/>
<path d="M520 2080 c-8 -5 -18 -6 -22 -4 -4 3 -8 0 -8 -5 0 -6 7 -11 15 -11 8
0 15 -7 15 -17 0 -14 2 -14 20 2 11 10 20 21 20 25 0 13 -26 19 -40 10z"/>
<path d="M700 2049 c0 -4 -8 -5 -18 -3 -9 3 -28 1 -42 -5 -20 -8 -9 -10 53
-10 78 -1 107 13 42 21 -19 2 -35 1 -35 -3z"/>
<path d="M820 2052 c0 -5 9 -12 21 -15 13 -3 19 -1 16 6 -5 15 -37 22 -37 9z"/>
<path d="M328 1908 c9 -9 15 -9 24 0 9 9 7 12 -12 12 -19 0 -21 -3 -12 -12z"/>
<path d="M505 1640 c-3 -5 -2 -10 4 -10 5 0 13 5 16 10 3 6 2 10 -4 10 -5 0
-13 -4 -16 -10z"/>
<path d="M2126 563 c-6 -14 -5 -15 5 -6 7 7 10 15 7 18 -3 3 -9 -2 -12 -12z"/>
<path d="M2250 458 c0 -4 4 -8 9 -8 6 0 12 4 15 8 3 5 -1 9 -9 9 -8 0 -15 -4
-15 -9z"/>
<path d="M2380 456 c0 -2 7 -7 16 -10 8 -3 12 -2 9 4 -6 10 -25 14 -25 6z"/>
<path d="M3281 424 c0 -11 3 -14 6 -6 3 7 2 16 -1 19 -3 4 -6 -2 -5 -13z"/>
<path d="M2294 389 c-3 -6 -1 -16 4 -21 8 -8 11 -5 9 11 -1 24 -3 25 -13 10z"/>
<path d="M2380 391 c0 -6 4 -13 10 -16 6 -3 7 1 4 9 -7 18 -14 21 -14 7z"/>
<path d="M3220 389 c0 -10 27 -19 34 -12 12 12 5 22 -14 20 -11 -1 -20 -4 -20
-8z"/>
<path d="M3500 326 c0 -8 4 -17 9 -20 5 -4 7 3 4 14 -6 23 -13 26 -13 6z"/>
<path d="M3947 325 c3 -8 9 -12 14 -9 12 7 11 11 -5 17 -10 4 -13 1 -9 -8z"/>
<path d="M3740 251 c13 -9 13 -11 -2 -11 -10 0 -18 -5 -18 -12 0 -6 3 -8 7 -5
3 4 12 2 18 -3 9 -7 12 -4 11 12 0 12 -8 23 -16 25 -13 4 -13 3 0 -6z"/>
<path d="M3885 249 c-4 -6 -5 -12 -2 -15 2 -3 7 2 10 11 7 17 1 20 -8 4z"/>
<path d="M3696 242 c-2 -4 -1 -14 4 -22 7 -11 9 -9 7 8 -1 24 -3 26 -11 14z"/>
<path d="M3825 230 c-3 -5 -1 -10 4 -10 6 0 11 5 11 10 0 6 -2 10 -4 10 -3 0
-8 -4 -11 -10z"/>
<path d="M3570 220 c0 -5 5 -10 11 -10 5 0 7 5 4 10 -3 6 -8 10 -11 10 -2 0
-4 -4 -4 -10z"/>
<path d="M245 180 c-16 -7 -17 -9 -3 -9 9 -1 20 4 23 9 7 11 7 11 -20 0z"/>
<path d="M1360 150 c8 -5 20 -10 25 -10 6 0 3 5 -5 10 -8 5 -19 10 -25 10 -5
0 -3 -5 5 -10z"/>
<path d="M5 140 c4 -6 11 -8 16 -5 14 9 11 15 -7 15 -8 0 -12 -5 -9 -10z"/>
<path d="M110 106 c0 -2 7 -7 16 -10 8 -3 12 -2 9 4 -6 10 -25 14 -25 6z"/>
<path d="M201 84 c-1 -6 -21 -10 -51 -8 -27 1 -50 -2 -50 -6 0 -12 -73 -18
-87 -7 -10 7 -13 1 -13 -27 l0 -36 360 0 c198 0 360 3 360 8 0 4 10 8 23 9 42
4 58 9 77 26 17 15 21 15 35 1 11 -12 15 -12 15 -2 0 17 -20 47 -20 31 0 -7
-6 -10 -14 -7 -8 3 -24 1 -35 -5 -13 -7 -22 -8 -26 -1 -4 7 -12 7 -25 0 -28
-15 -36 -12 -14 6 18 15 18 15 -3 5 -12 -6 -24 -16 -26 -23 -4 -10 -6 -10 -6
0 -1 6 -6 12 -12 12 -5 0 -7 -5 -4 -10 3 -6 1 -10 -4 -10 -6 0 -11 4 -11 10 0
5 -18 9 -40 7 -22 -2 -40 1 -40 5 0 5 -4 7 -9 3 -6 -3 -28 -1 -50 4 -24 5 -43
5 -47 0 -3 -5 -13 -5 -25 1 -13 8 -19 7 -19 0 0 -6 -12 -9 -27 -7 -16 2 -37 0
-48 -6 -18 -9 -19 -9 -5 8 14 17 14 17 -6 7 -12 -6 -24 -8 -28 -5 -3 3 -6 1
-6 -5 0 -17 -44 -10 -58 10 -15 20 -36 24 -29 6 2 -7 10 -12 16 -10 6 1 11 -3
11 -9 0 -6 -7 -8 -16 -5 -9 3 -19 6 -24 6 -5 0 -11 8 -13 18 -3 9 -5 12 -6 6z"/>
<path d="M1370 66 c15 -15 12 -26 -5 -20 -8 4 -15 1 -15 -5 0 -6 -5 -11 -11
-11 -5 0 -7 6 -3 13 4 6 4 9 -1 5 -4 -4 -15 -2 -24 5 -14 11 -14 10 -2 -5 7
-10 12 -18 10 -19 -2 0 -28 -2 -56 -4 -44 -4 -53 -1 -53 12 0 21 -10 11 -15
-15 -4 -21 -2 -21 306 -22 250 0 309 2 309 13 0 8 -15 14 -42 16 -23 1 -45 4
-49 7 -4 2 -10 0 -14 -6 -9 -14 -27 -2 -19 13 3 7 0 5 -8 -3 -15 -17 -40 -20
-50 -5 -5 6 -8 6 -8 -2 0 -12 -17 -12 -37 0 -8 5 -13 3 -13 -3 0 -7 -6 -10
-12 -7 -7 2 -12 9 -11 16 3 13 -41 26 -56 16 -6 -3 -11 -1 -11 4 0 6 -5 11
-11 11 -5 0 -8 -4 -4 -9 3 -5 1 -12 -5 -16 -5 -3 -10 3 -10 15 0 18 -3 19 -20
10 -15 -8 -20 -8 -21 2 -1 7 -5 2 -9 -12 -7 -22 -8 -22 -9 -4 -1 11 -8 21 -16
21 -11 0 -12 -4 -5 -11z"/>
<path d="M3915 59 c-3 -4 1 -9 9 -12 14 -6 26 0 26 13 0 9 -30 9 -35 -1z"/>
<path d="M1226 45 c4 -8 11 -15 16 -15 6 0 5 6 -2 15 -7 8 -14 15 -16 15 -2 0
-1 -7 2 -15z"/>
<path d="M1892 31 c2 -7 -3 -16 -9 -18 -7 -3 -13 0 -13 7 0 7 -6 8 -19 1 -10
-6 -21 -7 -25 -4 -3 3 -6 1 -6 -5 0 -14 59 -16 80 -2 12 8 13 11 2 22 -11 11
-13 10 -10 -1z"/>
<path d="M1024 22 c3 -6 -2 -13 -11 -15 -14 -4 -13 -5 5 -6 23 -1 30 13 10 25
-6 4 -8 3 -4 -4z"/>
<path d="M1050 16 c0 -13 12 -16 65 -16 60 0 80 9 55 25 -5 3 -10 1 -10 -6 0
-10 -3 -10 -12 -1 -16 16 -48 15 -48 0 0 -9 -4 -8 -10 2 -8 12 -10 12 -10 1 0
-11 -3 -11 -15 -1 -12 10 -15 10 -15 -4z"/>
<path d="M835 10 c-3 -5 -1 -10 4 -10 6 0 11 5 11 10 0 6 -2 10 -4 10 -3 0 -8
-4 -11 -10z"/>
<path d="M946 8 c3 -5 10 -6 15 -3 13 9 11 12 -6 12 -8 0 -12 -4 -9 -9z"/>
</g>
</svg>
